<svg width="836" height="218" viewBox="0 0 836 218" fill="none" xmlns="http://www.w3.org/2000/svg">
<rect width="800" height="218" rx="10" fill="white"/>
<path d="M152.68 72.68H157.8L161.04 82.08L164.32 72.68H169.4L164.52 85.6L168.12 94.64L176.16 72.6H182.16L170.8 101H166.04L161.04 89.08L156.08 101H151.32L140 72.6H145.92L154 94.64L157.52 85.6L152.68 72.68ZM195.272 84.68C193.645 84.68 192.192 85 190.912 85.64C189.632 86.2533 188.712 87.1467 188.152 88.32V101H182.792V80.04H187.712V84.52C188.458 83.08 189.405 81.9467 190.552 81.12C191.698 80.2933 192.912 79.84 194.192 79.76C194.485 79.76 194.712 79.76 194.872 79.76C195.032 79.76 195.165 79.7733 195.272 79.8V84.68ZM198.26 101V80.04H203.62V101H198.26ZM198.26 77.12V71.8H203.62V77.12H198.26ZM221.016 99.92C220.562 100.107 220.016 100.32 219.376 100.56C218.736 100.8 218.042 100.987 217.296 101.12C216.576 101.28 215.842 101.36 215.096 101.36C214.109 101.36 213.202 101.187 212.376 100.84C211.549 100.493 210.882 99.9467 210.376 99.2C209.896 98.4267 209.656 97.4267 209.656 96.2V84.16H206.896V80.04H209.656V73.24H215.016V80.04H219.416V84.16H215.016V94.4C215.042 95.12 215.242 95.64 215.616 95.96C215.989 96.28 216.456 96.44 217.016 96.44C217.576 96.44 218.122 96.3467 218.656 96.16C219.189 95.9733 219.616 95.8133 219.936 95.68L221.016 99.92ZM233.254 101.4C231.574 101.4 230.054 101.12 228.694 100.56C227.334 99.9733 226.174 99.1867 225.214 98.2C224.254 97.1867 223.507 96.04 222.974 94.76C222.467 93.4533 222.214 92.08 222.214 90.64C222.214 88.64 222.654 86.8133 223.534 85.16C224.44 83.5067 225.72 82.1867 227.374 81.2C229.054 80.1867 231.027 79.68 233.294 79.68C235.587 79.68 237.547 80.1867 239.174 81.2C240.8 82.1867 242.04 83.5067 242.894 85.16C243.774 86.7867 244.214 88.5467 244.214 90.44C244.214 90.76 244.2 91.0933 244.174 91.44C244.147 91.76 244.12 92.0267 244.094 92.24H227.894C228 93.3067 228.307 94.24 228.814 95.04C229.347 95.84 230.014 96.4533 230.814 96.88C231.64 97.28 232.52 97.48 233.454 97.48C234.52 97.48 235.52 97.2267 236.454 96.72C237.414 96.1867 238.067 95.4933 238.414 94.64L243.014 95.92C242.507 96.9867 241.774 97.9333 240.814 98.76C239.88 99.5867 238.774 100.24 237.494 100.72C236.214 101.173 234.8 101.4 233.254 101.4ZM227.774 88.84H238.734C238.627 87.7733 238.32 86.8533 237.814 86.08C237.334 85.28 236.694 84.6667 235.894 84.24C235.094 83.7867 234.2 83.56 233.214 83.56C232.254 83.56 231.374 83.7867 230.574 84.24C229.8 84.6667 229.16 85.28 228.654 86.08C228.174 86.8533 227.88 87.7733 227.774 88.84ZM255.648 94.8C255.648 93.44 256.022 92.2533 256.768 91.24C257.542 90.2 258.608 89.4 259.968 88.84C261.328 88.28 262.888 88 264.648 88C265.528 88 266.422 88.0667 267.328 88.2C268.235 88.3333 269.022 88.5467 269.688 88.84V87.72C269.688 86.3867 269.288 85.36 268.488 84.64C267.715 83.92 266.555 83.56 265.008 83.56C263.862 83.56 262.768 83.76 261.728 84.16C260.688 84.56 259.595 85.1467 258.448 85.92L256.728 82.4C258.115 81.4933 259.528 80.8133 260.968 80.36C262.435 79.9067 263.968 79.68 265.568 79.68C268.555 79.68 270.875 80.4267 272.528 81.92C274.208 83.4133 275.048 85.5467 275.048 88.32V95C275.048 95.56 275.142 95.96 275.328 96.2C275.542 96.44 275.875 96.5867 276.328 96.64V101C275.848 101.08 275.408 101.147 275.008 101.2C274.635 101.253 274.315 101.28 274.048 101.28C272.982 101.28 272.168 101.04 271.608 100.56C271.075 100.08 270.742 99.4933 270.608 98.8L270.488 97.72C269.582 98.8933 268.448 99.8 267.088 100.44C265.728 101.08 264.342 101.4 262.928 101.4C261.542 101.4 260.288 101.12 259.168 100.56C258.075 99.9733 257.208 99.1867 256.568 98.2C255.955 97.1867 255.648 96.0533 255.648 94.8ZM268.688 95.88C268.982 95.56 269.222 95.24 269.408 94.92C269.595 94.6 269.688 94.3067 269.688 94.04V91.92C269.048 91.6533 268.355 91.4533 267.608 91.32C266.862 91.16 266.155 91.08 265.488 91.08C264.102 91.08 262.955 91.3867 262.048 92C261.168 92.5867 260.728 93.3733 260.728 94.36C260.728 94.8933 260.875 95.4 261.168 95.88C261.462 96.36 261.888 96.7467 262.448 97.04C263.008 97.3333 263.675 97.48 264.448 97.48C265.248 97.48 266.035 97.3333 266.808 97.04C267.582 96.72 268.208 96.3333 268.688 95.88ZM287.947 108.84C286.96 108.84 286.013 108.68 285.107 108.36C284.2 108.067 283.373 107.6 282.627 106.96L284.947 103.32C285.24 103.64 285.6 103.867 286.027 104C286.453 104.133 286.88 104.2 287.307 104.2C287.787 104.2 288.213 104.08 288.587 103.84C288.987 103.627 289.293 103.32 289.507 102.92C289.747 102.52 289.867 102.067 289.867 101.56V80.04H295.227V101.16C295.227 102.653 294.893 103.987 294.227 105.16C293.587 106.333 292.72 107.24 291.627 107.88C290.56 108.52 289.333 108.84 287.947 108.84ZM289.867 77.12V71.8H295.227V77.12H289.867ZM309.776 101.4C308.07 101.4 306.536 101.12 305.176 100.56C303.816 99.9733 302.656 99.1733 301.696 98.16C300.763 97.1467 300.043 95.9867 299.536 94.68C299.03 93.3733 298.776 92 298.776 90.56C298.776 89.0933 299.03 87.7067 299.536 86.4C300.043 85.0933 300.763 83.9333 301.696 82.92C302.656 81.9067 303.816 81.12 305.176 80.56C306.536 79.9733 308.07 79.68 309.776 79.68C311.483 79.68 313.003 79.9733 314.336 80.56C315.696 81.12 316.856 81.9067 317.816 82.92C318.776 83.9333 319.496 85.0933 319.976 86.4C320.483 87.7067 320.736 89.0933 320.736 90.56C320.736 92 320.483 93.3733 319.976 94.68C319.496 95.9867 318.776 97.1467 317.816 98.16C316.883 99.1733 315.736 99.9733 314.376 100.56C313.016 101.12 311.483 101.4 309.776 101.4ZM304.296 90.56C304.296 91.7867 304.536 92.88 305.016 93.84C305.496 94.7733 306.15 95.5067 306.976 96.04C307.803 96.5733 308.736 96.84 309.776 96.84C310.79 96.84 311.71 96.5733 312.536 96.04C313.363 95.48 314.016 94.7333 314.496 93.8C315.003 92.84 315.256 91.7467 315.256 90.52C315.256 89.32 315.003 88.24 314.496 87.28C314.016 86.32 313.363 85.5733 312.536 85.04C311.71 84.5067 310.79 84.24 309.776 84.24C308.736 84.24 307.803 84.52 306.976 85.08C306.15 85.6133 305.496 86.36 305.016 87.32C304.536 88.2533 304.296 89.3333 304.296 90.56ZM324.154 93.16V80.04H329.514V92C329.514 93.6 329.807 94.8133 330.394 95.64C330.981 96.44 331.847 96.84 332.994 96.84C333.687 96.84 334.367 96.7067 335.034 96.44C335.727 96.1467 336.354 95.72 336.914 95.16C337.501 94.6 337.994 93.8933 338.394 93.04V80.04H343.754V95C343.754 95.56 343.847 95.96 344.034 96.2C344.247 96.44 344.581 96.5867 345.034 96.64V101C344.501 101.08 344.047 101.133 343.674 101.16C343.327 101.213 343.007 101.24 342.714 101.24C341.754 101.24 340.967 101.027 340.354 100.6C339.767 100.147 339.421 99.5333 339.314 98.76L339.194 97.08C338.261 98.4933 337.061 99.5733 335.594 100.32C334.127 101.04 332.514 101.4 330.754 101.4C328.594 101.4 326.954 100.707 325.834 99.32C324.714 97.9067 324.154 95.8533 324.154 93.16ZM361.561 84.68C359.934 84.68 358.481 85 357.201 85.64C355.921 86.2533 355.001 87.1467 354.441 88.32V101H349.081V80.04H354.001V84.52C354.747 83.08 355.694 81.9467 356.841 81.12C357.987 80.2933 359.201 79.84 360.481 79.76C360.774 79.76 361.001 79.76 361.161 79.76C361.321 79.76 361.454 79.7733 361.561 79.8V84.68ZM384.029 101H378.669V89.24C378.669 87.56 378.376 86.3333 377.789 85.56C377.203 84.7867 376.389 84.4 375.349 84.4C374.629 84.4 373.896 84.5867 373.149 84.96C372.429 85.3333 371.776 85.8533 371.189 86.52C370.603 87.16 370.176 87.9067 369.909 88.76V101H364.549V80.04H369.389V83.92C369.923 83.0133 370.603 82.2533 371.429 81.64C372.256 81 373.203 80.52 374.269 80.2C375.363 79.8533 376.509 79.68 377.709 79.68C379.016 79.68 380.083 79.92 380.909 80.4C381.763 80.8533 382.403 81.48 382.829 82.28C383.283 83.0533 383.589 83.9333 383.749 84.92C383.936 85.9067 384.029 86.9067 384.029 87.92V101ZM387.25 94.8C387.25 93.44 387.623 92.2533 388.37 91.24C389.143 90.2 390.21 89.4 391.57 88.84C392.93 88.28 394.49 88 396.25 88C397.13 88 398.023 88.0667 398.93 88.2C399.837 88.3333 400.623 88.5467 401.29 88.84V87.72C401.29 86.3867 400.89 85.36 400.09 84.64C399.317 83.92 398.157 83.56 396.61 83.56C395.463 83.56 394.37 83.76 393.33 84.16C392.29 84.56 391.197 85.1467 390.05 85.92L388.33 82.4C389.717 81.4933 391.13 80.8133 392.57 80.36C394.037 79.9067 395.57 79.68 397.17 79.68C400.157 79.68 402.477 80.4267 404.13 81.92C405.81 83.4133 406.65 85.5467 406.65 88.32V95C406.65 95.56 406.743 95.96 406.93 96.2C407.143 96.44 407.477 96.5867 407.93 96.64V101C407.45 101.08 407.01 101.147 406.61 101.2C406.237 101.253 405.917 101.28 405.65 101.28C404.583 101.28 403.77 101.04 403.21 100.56C402.677 100.08 402.343 99.4933 402.21 98.8L402.09 97.72C401.183 98.8933 400.05 99.8 398.69 100.44C397.33 101.08 395.943 101.4 394.53 101.4C393.143 101.4 391.89 101.12 390.77 100.56C389.677 99.9733 388.81 99.1867 388.17 98.2C387.557 97.1867 387.25 96.0533 387.25 94.8ZM400.29 95.88C400.583 95.56 400.823 95.24 401.01 94.92C401.197 94.6 401.29 94.3067 401.29 94.04V91.92C400.65 91.6533 399.957 91.4533 399.21 91.32C398.463 91.16 397.757 91.08 397.09 91.08C395.703 91.08 394.557 91.3867 393.65 92C392.77 92.5867 392.33 93.3733 392.33 94.36C392.33 94.8933 392.477 95.4 392.77 95.88C393.063 96.36 393.49 96.7467 394.05 97.04C394.61 97.3333 395.277 97.48 396.05 97.48C396.85 97.48 397.637 97.3333 398.41 97.04C399.183 96.72 399.81 96.3333 400.29 95.88ZM411.619 71.8H416.979V94.28C416.979 95.24 417.139 95.8933 417.459 96.24C417.779 96.56 418.219 96.72 418.779 96.72C419.205 96.72 419.645 96.6667 420.099 96.56C420.552 96.4533 420.952 96.32 421.299 96.16L422.019 100.24C421.299 100.587 420.459 100.853 419.499 101.04C418.539 101.227 417.672 101.32 416.899 101.32C415.219 101.32 413.912 100.88 412.979 100C412.072 99.0933 411.619 97.8133 411.619 96.16V71.8ZM442.59 101.4C440.91 101.4 439.39 101.12 438.03 100.56C436.67 99.9733 435.51 99.1867 434.55 98.2C433.59 97.1867 432.843 96.04 432.31 94.76C431.803 93.4533 431.55 92.08 431.55 90.64C431.55 88.64 431.99 86.8133 432.87 85.16C433.776 83.5067 435.056 82.1867 436.71 81.2C438.39 80.1867 440.363 79.68 442.63 79.68C444.923 79.68 446.883 80.1867 448.51 81.2C450.136 82.1867 451.376 83.5067 452.23 85.16C453.11 86.7867 453.55 88.5467 453.55 90.44C453.55 90.76 453.536 91.0933 453.51 91.44C453.483 91.76 453.456 92.0267 453.43 92.24H437.23C437.336 93.3067 437.643 94.24 438.15 95.04C438.683 95.84 439.35 96.4533 440.15 96.88C440.976 97.28 441.856 97.48 442.79 97.48C443.856 97.48 444.856 97.2267 445.79 96.72C446.75 96.1867 447.403 95.4933 447.75 94.64L452.35 95.92C451.843 96.9867 451.11 97.9333 450.15 98.76C449.216 99.5867 448.11 100.24 446.83 100.72C445.55 101.173 444.136 101.4 442.59 101.4ZM437.11 88.84H448.07C447.963 87.7733 447.656 86.8533 447.15 86.08C446.67 85.28 446.03 84.6667 445.23 84.24C444.43 83.7867 443.536 83.56 442.55 83.56C441.59 83.56 440.71 83.7867 439.91 84.24C439.136 84.6667 438.496 85.28 437.99 86.08C437.51 86.8533 437.216 87.7733 437.11 88.84ZM476.295 101H470.935V89.24C470.935 87.56 470.642 86.3333 470.055 85.56C469.468 84.7867 468.655 84.4 467.615 84.4C466.895 84.4 466.162 84.5867 465.415 84.96C464.695 85.3333 464.042 85.8533 463.455 86.52C462.868 87.16 462.442 87.9067 462.175 88.76V101H456.815V80.04H461.655V83.92C462.188 83.0133 462.868 82.2533 463.695 81.64C464.522 81 465.468 80.52 466.535 80.2C467.628 79.8533 468.775 79.68 469.975 79.68C471.282 79.68 472.348 79.92 473.175 80.4C474.028 80.8533 474.668 81.48 475.095 82.28C475.548 83.0533 475.855 83.9333 476.015 84.92C476.202 85.9067 476.295 86.9067 476.295 87.92V101ZM493.398 99.92C492.945 100.107 492.398 100.32 491.758 100.56C491.118 100.8 490.425 100.987 489.678 101.12C488.958 101.28 488.225 101.36 487.478 101.36C486.492 101.36 485.585 101.187 484.758 100.84C483.932 100.493 483.265 99.9467 482.758 99.2C482.278 98.4267 482.038 97.4267 482.038 96.2V84.16H479.278V80.04H482.038V73.24H487.398V80.04H491.798V84.16H487.398V94.4C487.425 95.12 487.625 95.64 487.998 95.96C488.372 96.28 488.838 96.44 489.398 96.44C489.958 96.44 490.505 96.3467 491.038 96.16C491.572 95.9733 491.998 95.8133 492.318 95.68L493.398 99.92ZM508.67 84.68C507.043 84.68 505.59 85 504.31 85.64C503.03 86.2533 502.11 87.1467 501.55 88.32V101H496.19V80.04H501.11V84.52C501.857 83.08 502.803 81.9467 503.95 81.12C505.097 80.2933 506.31 79.84 507.59 79.76C507.883 79.76 508.11 79.76 508.27 79.76C508.43 79.76 508.563 79.7733 508.67 79.8V84.68ZM512.099 105.08C512.579 105.187 513.019 105.28 513.419 105.36C513.845 105.44 514.205 105.48 514.499 105.48C515.005 105.48 515.419 105.347 515.739 105.08C516.085 104.84 516.419 104.387 516.739 103.72C517.059 103.08 517.392 102.173 517.739 101L509.459 80.04H515.019L520.659 95.52L525.619 80.04H530.739L521.939 105.16C521.619 106.093 521.125 106.933 520.459 107.68C519.819 108.453 519.005 109.053 518.019 109.48C517.059 109.933 515.979 110.16 514.779 110.16C514.352 110.16 513.925 110.12 513.499 110.04C513.072 109.987 512.605 109.88 512.099 109.72V105.08Z" fill="#FCA908"/>
<path d="M148 122.736H142.096V121.2H155.68V122.736H149.776V138H148V122.736ZM167.837 132.216H157.277C157.373 133.528 157.877 134.592 158.789 135.408C159.701 136.208 160.853 136.608 162.245 136.608C163.029 136.608 163.749 136.472 164.405 136.2C165.061 135.912 165.629 135.496 166.109 134.952L167.069 136.056C166.509 136.728 165.805 137.24 164.957 137.592C164.125 137.944 163.205 138.12 162.197 138.12C160.901 138.12 159.749 137.848 158.741 137.304C157.749 136.744 156.973 135.976 156.413 135C155.853 134.024 155.573 132.92 155.573 131.688C155.573 130.456 155.837 129.352 156.365 128.376C156.909 127.4 157.645 126.64 158.573 126.096C159.517 125.552 160.573 125.28 161.741 125.28C162.909 125.28 163.957 125.552 164.885 126.096C165.813 126.64 166.541 127.4 167.069 128.376C167.597 129.336 167.861 130.44 167.861 131.688L167.837 132.216ZM161.741 126.744C160.525 126.744 159.501 127.136 158.669 127.92C157.853 128.688 157.389 129.696 157.277 130.944H166.229C166.117 129.696 165.645 128.688 164.813 127.92C163.997 127.136 162.973 126.744 161.741 126.744ZM171.329 120.192H173.033V138H171.329V120.192ZM177.774 120.192H179.478V138H177.774V120.192ZM190.861 121.2H197.701C199.477 121.2 201.045 121.56 202.405 122.28C203.765 122.984 204.821 123.976 205.573 125.256C206.325 126.52 206.701 127.968 206.701 129.6C206.701 131.232 206.325 132.688 205.573 133.968C204.821 135.232 203.765 136.224 202.405 136.944C201.045 137.648 199.477 138 197.701 138H190.861V121.2ZM197.605 136.464C199.077 136.464 200.365 136.176 201.469 135.6C202.573 135.008 203.429 134.2 204.037 133.176C204.645 132.136 204.949 130.944 204.949 129.6C204.949 128.256 204.645 127.072 204.037 126.048C203.429 125.008 202.573 124.2 201.469 123.624C200.365 123.032 199.077 122.736 197.605 122.736H192.637V136.464H197.605ZM212.138 138.144C211.178 138.144 210.29 137.936 209.474 137.52C208.658 137.104 207.994 136.512 207.482 135.744L208.538 134.544C209.466 135.92 210.674 136.608 212.162 136.608C214.242 136.608 215.282 135.376 215.282 132.912V122.736H209.138V121.2H217.034V132.84C217.034 134.6 216.618 135.928 215.786 136.824C214.97 137.704 213.754 138.144 212.138 138.144ZM228.642 121.2H235.482C237.258 121.2 238.826 121.56 240.186 122.28C241.546 122.984 242.602 123.976 243.354 125.256C244.106 126.52 244.482 127.968 244.482 129.6C244.482 131.232 244.106 132.688 243.354 133.968C242.602 135.232 241.546 136.224 240.186 136.944C238.826 137.648 237.258 138 235.482 138H228.642V121.2ZM235.386 136.464C236.858 136.464 238.146 136.176 239.25 135.6C240.354 135.008 241.21 134.2 241.818 133.176C242.426 132.136 242.73 130.944 242.73 129.6C242.73 128.256 242.426 127.072 241.818 126.048C241.21 125.008 240.354 124.2 239.25 123.624C238.146 123.032 236.858 122.736 235.386 122.736H230.418V136.464H235.386ZM248.11 125.376H249.814V138H248.11V125.376ZM248.974 122.616C248.622 122.616 248.326 122.496 248.086 122.256C247.846 122.016 247.726 121.728 247.726 121.392C247.726 121.072 247.846 120.792 248.086 120.552C248.326 120.312 248.622 120.192 248.974 120.192C249.326 120.192 249.622 120.312 249.862 120.552C250.102 120.776 250.222 121.048 250.222 121.368C250.222 121.72 250.102 122.016 249.862 122.256C249.622 122.496 249.326 122.616 248.974 122.616ZM258.972 125.28C260.62 125.28 261.884 125.696 262.764 126.528C263.644 127.344 264.084 128.56 264.084 130.176V138H262.452V136.032C262.068 136.688 261.5 137.2 260.748 137.568C260.012 137.936 259.132 138.12 258.108 138.12C256.7 138.12 255.58 137.784 254.748 137.112C253.916 136.44 253.5 135.552 253.5 134.448C253.5 133.376 253.884 132.512 254.652 131.856C255.436 131.2 256.676 130.872 258.372 130.872H262.38V130.104C262.38 129.016 262.076 128.192 261.468 127.632C260.86 127.056 259.972 126.768 258.804 126.768C258.004 126.768 257.236 126.904 256.5 127.176C255.764 127.432 255.132 127.792 254.604 128.256L253.836 126.984C254.476 126.44 255.244 126.024 256.14 125.736C257.036 125.432 257.98 125.28 258.972 125.28ZM258.372 136.776C259.332 136.776 260.156 136.56 260.844 136.128C261.532 135.68 262.044 135.04 262.38 134.208V132.144H258.42C256.26 132.144 255.18 132.896 255.18 134.4C255.18 135.136 255.46 135.72 256.02 136.152C256.58 136.568 257.364 136.776 258.372 136.776ZM270.344 127.848C270.744 127 271.336 126.36 272.12 125.928C272.92 125.496 273.904 125.28 275.072 125.28V126.936L274.664 126.912C273.336 126.912 272.296 127.32 271.544 128.136C270.792 128.952 270.416 130.096 270.416 131.568V138H268.712V125.376H270.344V127.848ZM289.304 125.376L282.992 139.512C282.48 140.696 281.888 141.536 281.216 142.032C280.544 142.528 279.736 142.776 278.792 142.776C278.184 142.776 277.616 142.68 277.088 142.488C276.56 142.296 276.104 142.008 275.72 141.624L276.512 140.352C277.152 140.992 277.92 141.312 278.816 141.312C279.392 141.312 279.88 141.152 280.28 140.832C280.696 140.512 281.08 139.968 281.432 139.2L281.984 137.976L276.344 125.376H278.12L282.872 136.104L287.624 125.376H289.304ZM302.401 125.28C304.049 125.28 305.313 125.696 306.193 126.528C307.073 127.344 307.513 128.56 307.513 130.176V138H305.881V136.032C305.497 136.688 304.929 137.2 304.177 137.568C303.441 137.936 302.561 138.12 301.537 138.12C300.129 138.12 299.009 137.784 298.177 137.112C297.345 136.44 296.929 135.552 296.929 134.448C296.929 133.376 297.313 132.512 298.081 131.856C298.865 131.2 300.105 130.872 301.801 130.872H305.809V130.104C305.809 129.016 305.505 128.192 304.897 127.632C304.289 127.056 303.401 126.768 302.233 126.768C301.433 126.768 300.665 126.904 299.929 127.176C299.193 127.432 298.561 127.792 298.033 128.256L297.265 126.984C297.905 126.44 298.673 126.024 299.569 125.736C300.465 125.432 301.409 125.28 302.401 125.28ZM301.801 136.776C302.761 136.776 303.585 136.56 304.273 136.128C304.961 135.68 305.473 135.04 305.809 134.208V132.144H301.849C299.689 132.144 298.609 132.896 298.609 134.4C298.609 135.136 298.889 135.72 299.449 136.152C300.009 136.568 300.793 136.776 301.801 136.776ZM318.646 125.28C319.83 125.28 320.902 125.552 321.862 126.096C322.822 126.624 323.574 127.376 324.118 128.352C324.662 129.328 324.934 130.44 324.934 131.688C324.934 132.936 324.662 134.048 324.118 135.024C323.574 136 322.822 136.76 321.862 137.304C320.902 137.848 319.83 138.12 318.646 138.12C317.59 138.12 316.638 137.896 315.79 137.448C314.958 137 314.286 136.352 313.774 135.504V138H312.142V120.192H313.846V127.776C314.374 126.96 315.046 126.344 315.862 125.928C316.694 125.496 317.622 125.28 318.646 125.28ZM318.526 136.608C319.406 136.608 320.206 136.408 320.926 136.008C321.646 135.592 322.206 135.008 322.606 134.256C323.022 133.504 323.23 132.648 323.23 131.688C323.23 130.728 323.022 129.872 322.606 129.12C322.206 128.368 321.646 127.792 320.926 127.392C320.206 126.976 319.406 126.768 318.526 126.768C317.63 126.768 316.822 126.976 316.102 127.392C315.398 127.792 314.838 128.368 314.422 129.12C314.022 129.872 313.822 130.728 313.822 131.688C313.822 132.648 314.022 133.504 314.422 134.256C314.838 135.008 315.398 135.592 316.102 136.008C316.822 136.408 317.63 136.608 318.526 136.608ZM333.567 138.12C332.351 138.12 331.255 137.848 330.279 137.304C329.303 136.744 328.535 135.976 327.975 135C327.415 134.024 327.135 132.92 327.135 131.688C327.135 130.456 327.415 129.352 327.975 128.376C328.535 127.4 329.303 126.64 330.279 126.096C331.255 125.552 332.351 125.28 333.567 125.28C334.783 125.28 335.879 125.552 336.855 126.096C337.831 126.64 338.591 127.4 339.135 128.376C339.695 129.352 339.975 130.456 339.975 131.688C339.975 132.92 339.695 134.024 339.135 135C338.591 135.976 337.831 136.744 336.855 137.304C335.879 137.848 334.783 138.12 333.567 138.12ZM333.567 136.608C334.463 136.608 335.263 136.408 335.967 136.008C336.687 135.592 337.247 135.008 337.647 134.256C338.047 133.504 338.247 132.648 338.247 131.688C338.247 130.728 338.047 129.872 337.647 129.12C337.247 128.368 336.687 127.792 335.967 127.392C335.263 126.976 334.463 126.768 333.567 126.768C332.671 126.768 331.863 126.976 331.143 127.392C330.439 127.792 329.879 128.368 329.463 129.12C329.063 129.872 328.863 130.728 328.863 131.688C328.863 132.648 329.063 133.504 329.463 134.256C329.879 135.008 330.439 135.592 331.143 136.008C331.863 136.408 332.671 136.608 333.567 136.608ZM354.83 125.376V138H353.198V135.696C352.75 136.464 352.134 137.064 351.35 137.496C350.566 137.912 349.67 138.12 348.662 138.12C347.014 138.12 345.71 137.664 344.75 136.752C343.806 135.824 343.334 134.472 343.334 132.696V125.376H345.038V132.528C345.038 133.856 345.366 134.864 346.022 135.552C346.678 136.24 347.614 136.584 348.83 136.584C350.158 136.584 351.206 136.184 351.974 135.384C352.742 134.568 353.126 133.44 353.126 132V125.376H354.83ZM366.251 137.232C365.931 137.52 365.531 137.744 365.051 137.904C364.587 138.048 364.099 138.12 363.587 138.12C362.403 138.12 361.491 137.8 360.851 137.16C360.211 136.52 359.891 135.616 359.891 134.448V126.816H357.635V125.376H359.891V122.616H361.595V125.376H365.435V126.816H361.595V134.352C361.595 135.104 361.779 135.68 362.147 136.08C362.531 136.464 363.075 136.656 363.779 136.656C364.131 136.656 364.467 136.6 364.787 136.488C365.123 136.376 365.411 136.216 365.651 136.008L366.251 137.232ZM386.242 125.376L379.93 139.512C379.418 140.696 378.826 141.536 378.154 142.032C377.482 142.528 376.674 142.776 375.73 142.776C375.122 142.776 374.554 142.68 374.026 142.488C373.498 142.296 373.042 142.008 372.658 141.624L373.45 140.352C374.09 140.992 374.858 141.312 375.754 141.312C376.33 141.312 376.818 141.152 377.218 140.832C377.634 140.512 378.018 139.968 378.37 139.2L378.922 137.976L373.282 125.376H375.058L379.81 136.104L384.562 125.376H386.242ZM393.45 138.12C392.234 138.12 391.138 137.848 390.162 137.304C389.186 136.744 388.418 135.976 387.858 135C387.298 134.024 387.018 132.92 387.018 131.688C387.018 130.456 387.298 129.352 387.858 128.376C388.418 127.4 389.186 126.64 390.162 126.096C391.138 125.552 392.234 125.28 393.45 125.28C394.666 125.28 395.762 125.552 396.738 126.096C397.714 126.64 398.474 127.4 399.018 128.376C399.578 129.352 399.858 130.456 399.858 131.688C399.858 132.92 399.578 134.024 399.018 135C398.474 135.976 397.714 136.744 396.738 137.304C395.762 137.848 394.666 138.12 393.45 138.12ZM393.45 136.608C394.346 136.608 395.146 136.408 395.85 136.008C396.57 135.592 397.13 135.008 397.53 134.256C397.93 133.504 398.13 132.648 398.13 131.688C398.13 130.728 397.93 129.872 397.53 129.12C397.13 128.368 396.57 127.792 395.85 127.392C395.146 126.976 394.346 126.768 393.45 126.768C392.554 126.768 391.746 126.976 391.026 127.392C390.322 127.792 389.762 128.368 389.346 129.12C388.946 129.872 388.746 130.728 388.746 131.688C388.746 132.648 388.946 133.504 389.346 134.256C389.762 135.008 390.322 135.592 391.026 136.008C391.746 136.408 392.554 136.608 393.45 136.608ZM414.713 125.376V138H413.081V135.696C412.633 136.464 412.017 137.064 411.233 137.496C410.449 137.912 409.553 138.12 408.545 138.12C406.897 138.12 405.593 137.664 404.633 136.752C403.689 135.824 403.217 134.472 403.217 132.696V125.376H404.921V132.528C404.921 133.856 405.249 134.864 405.905 135.552C406.561 136.24 407.497 136.584 408.713 136.584C410.041 136.584 411.089 136.184 411.857 135.384C412.625 134.568 413.009 133.44 413.009 132V125.376H414.713ZM421.117 127.848C421.517 127 422.109 126.36 422.893 125.928C423.693 125.496 424.677 125.28 425.845 125.28V126.936L425.437 126.912C424.109 126.912 423.069 127.32 422.317 128.136C421.565 128.952 421.189 130.096 421.189 131.568V138H419.485V125.376H421.117V127.848ZM446.919 120.192V138H445.287V135.504C444.775 136.352 444.095 137 443.247 137.448C442.415 137.896 441.471 138.12 440.415 138.12C439.231 138.12 438.159 137.848 437.199 137.304C436.239 136.76 435.487 136 434.943 135.024C434.399 134.048 434.127 132.936 434.127 131.688C434.127 130.44 434.399 129.328 434.943 128.352C435.487 127.376 436.239 126.624 437.199 126.096C438.159 125.552 439.231 125.28 440.415 125.28C441.439 125.28 442.359 125.496 443.175 125.928C444.007 126.344 444.687 126.96 445.215 127.776V120.192H446.919ZM440.559 136.608C441.439 136.608 442.231 136.408 442.935 136.008C443.655 135.592 444.215 135.008 444.615 134.256C445.031 133.504 445.239 132.648 445.239 131.688C445.239 130.728 445.031 129.872 444.615 129.12C444.215 128.368 443.655 127.792 442.935 127.392C442.231 126.976 441.439 126.768 440.559 126.768C439.663 126.768 438.855 126.976 438.135 127.392C437.431 127.792 436.871 128.368 436.455 129.12C436.055 129.872 435.855 130.728 435.855 131.688C435.855 132.648 436.055 133.504 436.455 134.256C436.871 135.008 437.431 135.592 438.135 136.008C438.855 136.408 439.663 136.608 440.559 136.608ZM456.081 125.28C457.729 125.28 458.993 125.696 459.873 126.528C460.753 127.344 461.193 128.56 461.193 130.176V138H459.561V136.032C459.177 136.688 458.609 137.2 457.857 137.568C457.121 137.936 456.241 138.12 455.217 138.12C453.809 138.12 452.689 137.784 451.857 137.112C451.025 136.44 450.609 135.552 450.609 134.448C450.609 133.376 450.993 132.512 451.761 131.856C452.545 131.2 453.785 130.872 455.481 130.872H459.489V130.104C459.489 129.016 459.185 128.192 458.577 127.632C457.969 127.056 457.081 126.768 455.913 126.768C455.113 126.768 454.345 126.904 453.609 127.176C452.873 127.432 452.241 127.792 451.713 128.256L450.945 126.984C451.585 126.44 452.353 126.024 453.249 125.736C454.145 125.432 455.089 125.28 456.081 125.28ZM455.481 136.776C456.441 136.776 457.265 136.56 457.953 136.128C458.641 135.68 459.153 135.04 459.489 134.208V132.144H455.529C453.369 132.144 452.289 132.896 452.289 134.4C452.289 135.136 452.569 135.72 453.129 136.152C453.689 136.568 454.473 136.776 455.481 136.776ZM476.195 125.376L469.883 139.512C469.371 140.696 468.779 141.536 468.107 142.032C467.435 142.528 466.627 142.776 465.683 142.776C465.075 142.776 464.507 142.68 463.979 142.488C463.451 142.296 462.995 142.008 462.611 141.624L463.403 140.352C464.043 140.992 464.811 141.312 465.707 141.312C466.283 141.312 466.771 141.152 467.171 140.832C467.587 140.512 467.971 139.968 468.323 139.2L468.875 137.976L463.235 125.376H465.011L469.763 136.104L474.515 125.376H476.195ZM490.036 138.12C488.82 138.12 487.724 137.848 486.748 137.304C485.772 136.744 485.004 135.976 484.444 135C483.884 134.024 483.604 132.92 483.604 131.688C483.604 130.456 483.884 129.352 484.444 128.376C485.004 127.4 485.772 126.64 486.748 126.096C487.724 125.552 488.82 125.28 490.036 125.28C491.252 125.28 492.348 125.552 493.324 126.096C494.3 126.64 495.06 127.4 495.604 128.376C496.164 129.352 496.444 130.456 496.444 131.688C496.444 132.92 496.164 134.024 495.604 135C495.06 135.976 494.3 136.744 493.324 137.304C492.348 137.848 491.252 138.12 490.036 138.12ZM490.036 136.608C490.932 136.608 491.732 136.408 492.436 136.008C493.156 135.592 493.716 135.008 494.116 134.256C494.516 133.504 494.716 132.648 494.716 131.688C494.716 130.728 494.516 129.872 494.116 129.12C493.716 128.368 493.156 127.792 492.436 127.392C491.732 126.976 490.932 126.768 490.036 126.768C489.14 126.768 488.332 126.976 487.612 127.392C486.908 127.792 486.348 128.368 485.932 129.12C485.532 129.872 485.332 130.728 485.332 131.688C485.332 132.648 485.532 133.504 485.932 134.256C486.348 135.008 486.908 135.592 487.612 136.008C488.332 136.408 489.14 136.608 490.036 136.608ZM501.555 127.848C501.955 127 502.547 126.36 503.331 125.928C504.131 125.496 505.115 125.28 506.283 125.28V126.936L505.875 126.912C504.547 126.912 503.507 127.32 502.755 128.136C502.003 128.952 501.627 130.096 501.627 131.568V138H499.923V125.376H501.555V127.848ZM534.365 125.376L529.589 138H527.981L523.997 127.656L520.013 138H518.405L513.653 125.376H515.285L519.245 136.104L523.301 125.376H524.765L528.797 136.104L532.805 125.376H534.365ZM543.363 125.28C544.947 125.28 546.203 125.744 547.131 126.672C548.075 127.584 548.547 128.92 548.547 130.68V138H546.843V130.848C546.843 129.536 546.515 128.536 545.859 127.848C545.203 127.16 544.267 126.816 543.051 126.816C541.691 126.816 540.611 127.224 539.811 128.04C539.027 128.84 538.635 129.952 538.635 131.376V138H536.931V120.192H538.635V127.584C539.099 126.848 539.739 126.28 540.555 125.88C541.371 125.48 542.307 125.28 543.363 125.28ZM557.589 125.28C559.237 125.28 560.501 125.696 561.381 126.528C562.261 127.344 562.701 128.56 562.701 130.176V138H561.069V136.032C560.685 136.688 560.117 137.2 559.365 137.568C558.629 137.936 557.749 138.12 556.725 138.12C555.317 138.12 554.197 137.784 553.365 137.112C552.533 136.44 552.117 135.552 552.117 134.448C552.117 133.376 552.501 132.512 553.269 131.856C554.053 131.2 555.293 130.872 556.989 130.872H560.997V130.104C560.997 129.016 560.693 128.192 560.085 127.632C559.477 127.056 558.589 126.768 557.421 126.768C556.621 126.768 555.853 126.904 555.117 127.176C554.381 127.432 553.749 127.792 553.221 128.256L552.453 126.984C553.093 126.44 553.861 126.024 554.757 125.736C555.653 125.432 556.597 125.28 557.589 125.28ZM556.989 136.776C557.949 136.776 558.773 136.56 559.461 136.128C560.149 135.68 560.661 135.04 560.997 134.208V132.144H557.037C554.877 132.144 553.797 132.896 553.797 134.4C553.797 135.136 554.077 135.72 554.637 136.152C555.197 136.568 555.981 136.776 556.989 136.776ZM573.977 137.232C573.657 137.52 573.257 137.744 572.777 137.904C572.313 138.048 571.825 138.12 571.313 138.12C570.129 138.12 569.217 137.8 568.577 137.16C567.937 136.52 567.617 135.616 567.617 134.448V126.816H565.361V125.376H567.617V122.616H569.321V125.376H573.161V126.816H569.321V134.352C569.321 135.104 569.505 135.68 569.873 136.08C570.257 136.464 570.801 136.656 571.505 136.656C571.857 136.656 572.193 136.6 572.513 136.488C572.849 136.376 573.137 136.216 573.377 136.008L573.977 137.232ZM587.626 132.216H577.066C577.162 133.528 577.666 134.592 578.578 135.408C579.49 136.208 580.642 136.608 582.034 136.608C582.818 136.608 583.538 136.472 584.194 136.2C584.85 135.912 585.418 135.496 585.898 134.952L586.858 136.056C586.298 136.728 585.594 137.24 584.746 137.592C583.914 137.944 582.994 138.12 581.986 138.12C580.69 138.12 579.538 137.848 578.53 137.304C577.538 136.744 576.762 135.976 576.202 135C575.642 134.024 575.362 132.92 575.362 131.688C575.362 130.456 575.626 129.352 576.154 128.376C576.698 127.4 577.434 126.64 578.362 126.096C579.306 125.552 580.362 125.28 581.53 125.28C582.698 125.28 583.746 125.552 584.674 126.096C585.602 126.64 586.33 127.4 586.858 128.376C587.386 129.336 587.65 130.44 587.65 131.688L587.626 132.216ZM581.53 126.744C580.314 126.744 579.29 127.136 578.458 127.92C577.642 128.688 577.178 129.696 577.066 130.944H586.018C585.906 129.696 585.434 128.688 584.602 127.92C583.786 127.136 582.762 126.744 581.53 126.744ZM601.492 125.376L595.876 138H594.124L588.532 125.376H590.308L595.036 136.128L599.812 125.376H601.492ZM614.532 132.216H603.972C604.068 133.528 604.572 134.592 605.484 135.408C606.396 136.208 607.548 136.608 608.94 136.608C609.724 136.608 610.444 136.472 611.1 136.2C611.756 135.912 612.324 135.496 612.804 134.952L613.764 136.056C613.204 136.728 612.5 137.24 611.652 137.592C610.82 137.944 609.9 138.12 608.892 138.12C607.596 138.12 606.444 137.848 605.436 137.304C604.444 136.744 603.668 135.976 603.108 135C602.548 134.024 602.268 132.92 602.268 131.688C602.268 130.456 602.532 129.352 603.06 128.376C603.604 127.4 604.34 126.64 605.268 126.096C606.212 125.552 607.268 125.28 608.436 125.28C609.604 125.28 610.652 125.552 611.58 126.096C612.508 126.64 613.236 127.4 613.764 128.376C614.292 129.336 614.556 130.44 614.556 131.688L614.532 132.216ZM608.436 126.744C607.22 126.744 606.196 127.136 605.364 127.92C604.548 128.688 604.084 129.696 603.972 130.944H612.924C612.812 129.696 612.34 128.688 611.508 127.92C610.692 127.136 609.668 126.744 608.436 126.744ZM619.656 127.848C620.056 127 620.648 126.36 621.432 125.928C622.232 125.496 623.216 125.28 624.384 125.28V126.936L623.976 126.912C622.648 126.912 621.608 127.32 620.856 128.136C620.104 128.952 619.728 130.096 619.728 131.568V138H618.024V125.376H619.656V127.848ZM628.623 120.072C628.991 120.072 629.295 120.2 629.535 120.456C629.775 120.696 629.895 121 629.895 121.368C629.895 121.56 629.863 121.768 629.799 121.992C629.751 122.2 629.679 122.448 629.583 122.736L628.551 126.048H627.399L628.239 122.592C627.967 122.512 627.751 122.368 627.591 122.16C627.431 121.936 627.351 121.672 627.351 121.368C627.351 120.984 627.471 120.672 627.711 120.432C627.951 120.192 628.255 120.072 628.623 120.072ZM636.526 138.12C635.502 138.12 634.518 137.976 633.574 137.688C632.646 137.384 631.918 137.008 631.39 136.56L632.158 135.216C632.686 135.632 633.35 135.976 634.15 136.248C634.95 136.504 635.782 136.632 636.646 136.632C637.798 136.632 638.646 136.456 639.19 136.104C639.75 135.736 640.03 135.224 640.03 134.568C640.03 134.104 639.878 133.744 639.574 133.488C639.27 133.216 638.886 133.016 638.422 132.888C637.958 132.744 637.342 132.608 636.574 132.48C635.55 132.288 634.726 132.096 634.102 131.904C633.478 131.696 632.942 131.352 632.494 130.872C632.062 130.392 631.846 129.728 631.846 128.88C631.846 127.824 632.286 126.96 633.166 126.288C634.046 125.616 635.27 125.28 636.838 125.28C637.654 125.28 638.47 125.392 639.286 125.616C640.102 125.824 640.774 126.104 641.302 126.456L640.558 127.824C639.518 127.104 638.278 126.744 636.838 126.744C635.75 126.744 634.926 126.936 634.366 127.32C633.822 127.704 633.55 128.208 633.55 128.832C633.55 129.312 633.702 129.696 634.006 129.984C634.326 130.272 634.718 130.488 635.182 130.632C635.646 130.76 636.286 130.896 637.102 131.04C638.11 131.232 638.918 131.424 639.526 131.616C640.134 131.808 640.654 132.136 641.086 132.6C641.518 133.064 641.734 133.704 641.734 134.52C641.734 135.624 641.27 136.504 640.342 137.16C639.43 137.8 638.158 138.12 636.526 138.12ZM149.536 167.12C148.32 167.12 147.224 166.848 146.248 166.304C145.272 165.744 144.504 164.976 143.944 164C143.384 163.024 143.104 161.92 143.104 160.688C143.104 159.456 143.384 158.352 143.944 157.376C144.504 156.4 145.272 155.64 146.248 155.096C147.224 154.552 148.32 154.28 149.536 154.28C150.752 154.28 151.848 154.552 152.824 155.096C153.8 155.64 154.56 156.4 155.104 157.376C155.664 158.352 155.944 159.456 155.944 160.688C155.944 161.92 155.664 163.024 155.104 164C154.56 164.976 153.8 165.744 152.824 166.304C151.848 166.848 150.752 167.12 149.536 167.12ZM149.536 165.608C150.432 165.608 151.232 165.408 151.936 165.008C152.656 164.592 153.216 164.008 153.616 163.256C154.016 162.504 154.216 161.648 154.216 160.688C154.216 159.728 154.016 158.872 153.616 158.12C153.216 157.368 152.656 156.792 151.936 156.392C151.232 155.976 150.432 155.768 149.536 155.768C148.64 155.768 147.832 155.976 147.112 156.392C146.408 156.792 145.848 157.368 145.432 158.12C145.032 158.872 144.832 159.728 144.832 160.688C144.832 161.648 145.032 162.504 145.432 163.256C145.848 164.008 146.408 164.592 147.112 165.008C147.832 165.408 148.64 165.608 149.536 165.608ZM165.855 154.28C167.439 154.28 168.695 154.744 169.623 155.672C170.567 156.584 171.039 157.92 171.039 159.68V167H169.335V159.848C169.335 158.536 169.007 157.536 168.351 156.848C167.695 156.16 166.759 155.816 165.543 155.816C164.183 155.816 163.103 156.224 162.303 157.04C161.519 157.84 161.127 158.952 161.127 160.376V167H159.423V154.376H161.055V156.704C161.519 155.936 162.159 155.344 162.975 154.928C163.807 154.496 164.767 154.28 165.855 154.28ZM192.554 154.376L186.242 168.512C185.73 169.696 185.138 170.536 184.466 171.032C183.794 171.528 182.986 171.776 182.042 171.776C181.434 171.776 180.866 171.68 180.338 171.488C179.81 171.296 179.354 171.008 178.97 170.624L179.762 169.352C180.402 169.992 181.17 170.312 182.066 170.312C182.642 170.312 183.13 170.152 183.53 169.832C183.946 169.512 184.33 168.968 184.682 168.2L185.234 166.976L179.594 154.376H181.37L186.122 165.104L190.874 154.376H192.554ZM199.763 167.12C198.547 167.12 197.451 166.848 196.475 166.304C195.499 165.744 194.731 164.976 194.171 164C193.611 163.024 193.331 161.92 193.331 160.688C193.331 159.456 193.611 158.352 194.171 157.376C194.731 156.4 195.499 155.64 196.475 155.096C197.451 154.552 198.547 154.28 199.763 154.28C200.979 154.28 202.075 154.552 203.051 155.096C204.027 155.64 204.787 156.4 205.331 157.376C205.891 158.352 206.171 159.456 206.171 160.688C206.171 161.92 205.891 163.024 205.331 164C204.787 164.976 204.027 165.744 203.051 166.304C202.075 166.848 200.979 167.12 199.763 167.12ZM199.763 165.608C200.659 165.608 201.459 165.408 202.163 165.008C202.883 164.592 203.443 164.008 203.843 163.256C204.243 162.504 204.443 161.648 204.443 160.688C204.443 159.728 204.243 158.872 203.843 158.12C203.443 157.368 202.883 156.792 202.163 156.392C201.459 155.976 200.659 155.768 199.763 155.768C198.867 155.768 198.059 155.976 197.339 156.392C196.635 156.792 196.075 157.368 195.659 158.12C195.259 158.872 195.059 159.728 195.059 160.688C195.059 161.648 195.259 162.504 195.659 163.256C196.075 164.008 196.635 164.592 197.339 165.008C198.059 165.408 198.867 165.608 199.763 165.608ZM221.025 154.376V167H219.393V164.696C218.945 165.464 218.329 166.064 217.545 166.496C216.761 166.912 215.865 167.12 214.857 167.12C213.209 167.12 211.905 166.664 210.945 165.752C210.001 164.824 209.529 163.472 209.529 161.696V154.376H211.233V161.528C211.233 162.856 211.561 163.864 212.217 164.552C212.873 165.24 213.809 165.584 215.025 165.584C216.353 165.584 217.401 165.184 218.169 164.384C218.937 163.568 219.321 162.44 219.321 161V154.376H221.025ZM227.43 156.848C227.83 156 228.422 155.36 229.206 154.928C230.006 154.496 230.99 154.28 232.158 154.28V155.936L231.75 155.912C230.422 155.912 229.382 156.32 228.63 157.136C227.878 157.952 227.502 159.096 227.502 160.568V167H225.798V154.376H227.43V156.848ZM257.456 154.28C259.04 154.28 260.28 154.736 261.176 155.648C262.088 156.56 262.544 157.904 262.544 159.68V167H260.84V159.848C260.84 158.536 260.52 157.536 259.88 156.848C259.256 156.16 258.368 155.816 257.216 155.816C255.904 155.816 254.872 156.224 254.12 157.04C253.368 157.84 252.992 158.952 252.992 160.376V167H251.288V159.848C251.288 158.536 250.968 157.536 250.328 156.848C249.704 156.16 248.808 155.816 247.64 155.816C246.344 155.816 245.312 156.224 244.544 157.04C243.792 157.84 243.416 158.952 243.416 160.376V167H241.712V154.376H243.344V156.68C243.792 155.912 244.416 155.32 245.216 154.904C246.016 154.488 246.936 154.28 247.976 154.28C249.032 154.28 249.944 154.504 250.712 154.952C251.496 155.4 252.08 156.064 252.464 156.944C252.928 156.112 253.592 155.464 254.456 155C255.336 154.52 256.336 154.28 257.456 154.28ZM267.165 154.376H268.869V167H267.165V154.376ZM268.029 151.616C267.677 151.616 267.381 151.496 267.141 151.256C266.901 151.016 266.781 150.728 266.781 150.392C266.781 150.072 266.901 149.792 267.141 149.552C267.381 149.312 267.677 149.192 268.029 149.192C268.381 149.192 268.677 149.312 268.917 149.552C269.157 149.776 269.277 150.048 269.277 150.368C269.277 150.72 269.157 151.016 268.917 151.256C268.677 151.496 268.381 151.616 268.029 151.616ZM280.042 154.28C281.626 154.28 282.882 154.744 283.81 155.672C284.754 156.584 285.226 157.92 285.226 159.68V167H283.522V159.848C283.522 158.536 283.194 157.536 282.538 156.848C281.882 156.16 280.946 155.816 279.73 155.816C278.37 155.816 277.29 156.224 276.49 157.04C275.706 157.84 275.314 158.952 275.314 160.376V167H273.61V154.376H275.242V156.704C275.706 155.936 276.346 155.344 277.162 154.928C277.994 154.496 278.954 154.28 280.042 154.28ZM301.419 149.192V167H299.787V164.504C299.275 165.352 298.595 166 297.747 166.448C296.915 166.896 295.971 167.12 294.915 167.12C293.731 167.12 292.659 166.848 291.699 166.304C290.739 165.76 289.987 165 289.443 164.024C288.899 163.048 288.627 161.936 288.627 160.688C288.627 159.44 288.899 158.328 289.443 157.352C289.987 156.376 290.739 155.624 291.699 155.096C292.659 154.552 293.731 154.28 294.915 154.28C295.939 154.28 296.859 154.496 297.675 154.928C298.507 155.344 299.187 155.96 299.715 156.776V149.192H301.419ZM295.059 165.608C295.939 165.608 296.731 165.408 297.435 165.008C298.155 164.592 298.715 164.008 299.115 163.256C299.531 162.504 299.739 161.648 299.739 160.688C299.739 159.728 299.531 158.872 299.115 158.12C298.715 157.368 298.155 156.792 297.435 156.392C296.731 155.976 295.939 155.768 295.059 155.768C294.163 155.768 293.355 155.976 292.635 156.392C291.931 156.792 291.371 157.368 290.955 158.12C290.555 158.872 290.355 159.728 290.355 160.688C290.355 161.648 290.555 162.504 290.955 163.256C291.371 164.008 291.931 164.592 292.635 165.008C293.355 165.408 294.163 165.608 295.059 165.608ZM305.901 150.2H307.917L307.557 161.96H306.237L305.901 150.2ZM306.909 167.12C306.557 167.12 306.253 167 305.997 166.76C305.757 166.504 305.637 166.208 305.637 165.872C305.637 165.52 305.757 165.232 305.997 165.008C306.237 164.768 306.541 164.648 306.909 164.648C307.261 164.648 307.557 164.768 307.797 165.008C308.037 165.232 308.157 165.52 308.157 165.872C308.157 166.208 308.037 166.504 307.797 166.76C307.557 167 307.261 167.12 306.909 167.12Z" fill="#FCA908"/>
<path d="M127 125.778C127 129.766 123.766 133 119.778 133H69.2222C65.2337 133 62 129.766 62 125.778V75.2222C62 71.2337 65.2337 68 69.2222 68H119.778C123.766 68 127 71.2337 127 75.2222V125.778Z" fill="url(#paint0_linear_134_1303)"/>
<path d="M91.723 88.1771H88.4206C85.7339 88.1771 84.6145 86.2181 84.6145 84.3151C84.6145 82.356 86.0138 80.4512 88.4206 80.4512H96.3687C98.7773 80.4512 100.121 82.1863 100.121 84.4252V116.281C100.121 119.081 98.3295 120.646 95.9209 120.646C93.5141 120.646 91.723 119.081 91.723 116.281V88.1771Z" fill="white"/>
<path d="M549.272 106.596C546.937 108.932 544.624 110.404 544.104 109.884C543.585 109.365 545.058 107.051 547.393 104.717C549.728 102.381 552.041 100.908 552.561 101.428C553.079 101.947 551.607 104.259 549.272 106.596Z" fill="#C1694F"/>
<path d="M552.561 101.429L549.741 98.6096C549.741 98.6096 548.302 100.461 546.706 103.433C545.51 105.66 545.044 107.066 545.044 107.066L545.983 108.006L546.923 108.945C546.923 108.945 548.33 108.477 550.556 107.283C553.528 105.687 555.378 104.248 555.378 104.248L552.561 101.429Z" fill="#FFCC4D"/>
<path d="M589.206 64.7831C584.508 60.0844 565.069 78.4659 564.129 79.4054C563.19 80.3449 562.397 81.1967 562.896 81.6963L560.078 84.5147C557.258 87.3345 548.801 97.6687 549.741 98.6082L552.561 101.428L555.379 104.246C556.319 105.186 566.654 96.7292 569.474 93.9108L572.292 91.0924C572.792 91.592 573.644 90.7974 574.583 89.8579C575.523 88.9198 593.904 69.4818 589.206 64.7831Z" fill="#31373D"/>
<path d="M574.583 89.8591C574.696 89.7475 575.064 89.3608 575.612 88.7734L565.217 78.3794C564.629 78.9255 564.244 79.295 564.131 79.4079C563.191 80.3474 562.398 81.1992 562.898 81.6988L567.595 86.3975L572.294 91.0949C572.792 91.5919 573.644 90.7985 574.583 89.8591Z" fill="#FFCC4D"/>
<path d="M585.474 64.8109C584.243 63.5791 582.599 62.2875 580.249 63.4621C577.9 64.6368 570.532 69.3634 567.123 72.7705C565.367 74.5272 565.466 75.5637 566.125 75.6474C567.216 75.7883 567.946 75.7644 568.945 74.7664C569.942 73.7685 570.119 72.0649 570.119 72.0649C570.119 72.0649 574.171 68.9528 577.371 67.0446C580.572 65.1351 581.714 64.8096 582.833 65.9284C583.952 67.0473 585.474 64.8109 585.474 64.8109Z" fill="#FFAC33"/>
<path d="M582.362 65.4566L588.532 71.6263C589.001 70.6842 589.371 69.7872 589.619 68.9541L585.035 64.3696C584.201 64.6194 583.306 64.9889 582.362 65.4566Z" fill="#FFAC33"/>
<defs>
<linearGradient id="paint0_linear_134_1303" x1="94.5" y1="68" x2="94.5" y2="133" gradientUnits="userSpaceOnUse">
<stop stop-color="#F18F26"/>
<stop offset="0.6875" stop-color="#F18F26" stop-opacity="0.463542"/>
<stop offset="1" stop-color="#F18F26" stop-opacity="0"/>
</linearGradient>
</defs>
</svg>
