<svg width="836" height="218" viewBox="0 0 836 218" fill="none" xmlns="http://www.w3.org/2000/svg">
<rect width="800" height="218" rx="10" fill="white"/>
<path d="M141.24 86.6C141.24 84.8667 141.547 83.1733 142.16 81.52C142.8 79.84 143.72 78.32 144.92 76.96C146.12 75.5733 147.587 74.48 149.32 73.68C151.053 72.8533 153.027 72.44 155.24 72.44C157.853 72.44 160.107 73.0133 162 74.16C163.92 75.3067 165.347 76.8 166.28 78.64L162.04 81.56C161.56 80.4933 160.933 79.6533 160.16 79.04C159.387 78.4 158.56 77.96 157.68 77.72C156.8 77.4533 155.933 77.32 155.08 77.32C153.693 77.32 152.48 77.6 151.44 78.16C150.427 78.72 149.573 79.4533 148.88 80.36C148.187 81.2667 147.667 82.28 147.32 83.4C147 84.52 146.84 85.64 146.84 86.76C146.84 88.0133 147.04 89.2267 147.44 90.4C147.84 91.5467 148.4 92.5733 149.12 93.48C149.867 94.36 150.747 95.0667 151.76 95.6C152.8 96.1067 153.933 96.36 155.16 96.36C156.04 96.36 156.933 96.2133 157.84 95.92C158.747 95.6267 159.587 95.16 160.36 94.52C161.133 93.88 161.733 93.0533 162.16 92.04L166.68 94.64C166.12 96.0533 165.2 97.2533 163.92 98.24C162.667 99.2267 161.253 99.9733 159.68 100.48C158.107 100.987 156.547 101.24 155 101.24C152.973 101.24 151.12 100.827 149.44 100C147.76 99.1467 146.307 98.0267 145.08 96.64C143.88 95.2267 142.933 93.6533 142.24 91.92C141.573 90.16 141.24 88.3867 141.24 86.6ZM169.662 93.16V80.04H175.022V92C175.022 93.6 175.315 94.8133 175.902 95.64C176.489 96.44 177.355 96.84 178.502 96.84C179.195 96.84 179.875 96.7067 180.542 96.44C181.235 96.1467 181.862 95.72 182.422 95.16C183.009 94.6 183.502 93.8933 183.902 93.04V80.04H189.262V95C189.262 95.56 189.355 95.96 189.542 96.2C189.755 96.44 190.089 96.5867 190.542 96.64V101C190.009 101.08 189.555 101.133 189.182 101.16C188.835 101.213 188.515 101.24 188.222 101.24C187.262 101.24 186.475 101.027 185.862 100.6C185.275 100.147 184.929 99.5333 184.822 98.76L184.702 97.08C183.769 98.4933 182.569 99.5733 181.102 100.32C179.635 101.04 178.022 101.4 176.262 101.4C174.102 101.4 172.462 100.707 171.342 99.32C170.222 97.9067 169.662 95.8533 169.662 93.16ZM202.308 101.4C200.522 101.4 198.815 101.107 197.188 100.52C195.562 99.9333 194.162 99.0667 192.988 97.92L194.908 94.44C196.162 95.4533 197.388 96.2 198.588 96.68C199.815 97.16 200.988 97.4 202.108 97.4C203.148 97.4 203.975 97.2133 204.588 96.84C205.228 96.4667 205.548 95.9067 205.548 95.16C205.548 94.6533 205.375 94.2667 205.028 94C204.682 93.7067 204.175 93.4533 203.508 93.24C202.868 93.0267 202.082 92.7867 201.148 92.52C199.602 92.0133 198.308 91.52 197.268 91.04C196.228 90.56 195.442 89.96 194.908 89.24C194.402 88.4933 194.148 87.5467 194.148 86.4C194.148 85.0133 194.495 83.8267 195.188 82.84C195.908 81.8267 196.895 81.04 198.148 80.48C199.428 79.92 200.922 79.64 202.628 79.64C204.122 79.64 205.535 79.88 206.868 80.36C208.202 80.8133 209.415 81.56 210.508 82.6L208.348 86C207.282 85.1733 206.268 84.5733 205.308 84.2C204.348 83.8 203.375 83.6 202.388 83.6C201.828 83.6 201.295 83.6667 200.788 83.8C200.308 83.9333 199.908 84.16 199.588 84.48C199.295 84.7733 199.148 85.2 199.148 85.76C199.148 86.2667 199.282 86.6667 199.548 86.96C199.842 87.2267 200.268 87.4667 200.828 87.68C201.415 87.8933 202.122 88.1333 202.948 88.4C204.628 88.88 206.042 89.3733 207.188 89.88C208.362 90.3867 209.242 91.0133 209.828 91.76C210.415 92.48 210.708 93.48 210.708 94.76C210.708 96.84 209.948 98.4667 208.428 99.64C206.908 100.813 204.868 101.4 202.308 101.4ZM226.797 99.92C226.344 100.107 225.797 100.32 225.157 100.56C224.517 100.8 223.824 100.987 223.077 101.12C222.357 101.28 221.624 101.36 220.877 101.36C219.89 101.36 218.984 101.187 218.157 100.84C217.33 100.493 216.664 99.9467 216.157 99.2C215.677 98.4267 215.437 97.4267 215.437 96.2V84.16H212.677V80.04H215.437V73.24H220.797V80.04H225.197V84.16H220.797V94.4C220.824 95.12 221.024 95.64 221.397 95.96C221.77 96.28 222.237 96.44 222.797 96.44C223.357 96.44 223.904 96.3467 224.437 96.16C224.97 95.9733 225.397 95.8133 225.717 95.68L226.797 99.92ZM238.995 101.4C237.288 101.4 235.755 101.12 234.395 100.56C233.035 99.9733 231.875 99.1733 230.915 98.16C229.982 97.1467 229.262 95.9867 228.755 94.68C228.248 93.3733 227.995 92 227.995 90.56C227.995 89.0933 228.248 87.7067 228.755 86.4C229.262 85.0933 229.982 83.9333 230.915 82.92C231.875 81.9067 233.035 81.12 234.395 80.56C235.755 79.9733 237.288 79.68 238.995 79.68C240.702 79.68 242.222 79.9733 243.555 80.56C244.915 81.12 246.075 81.9067 247.035 82.92C247.995 83.9333 248.715 85.0933 249.195 86.4C249.702 87.7067 249.955 89.0933 249.955 90.56C249.955 92 249.702 93.3733 249.195 94.68C248.715 95.9867 247.995 97.1467 247.035 98.16C246.102 99.1733 244.955 99.9733 243.595 100.56C242.235 101.12 240.702 101.4 238.995 101.4ZM233.515 90.56C233.515 91.7867 233.755 92.88 234.235 93.84C234.715 94.7733 235.368 95.5067 236.195 96.04C237.022 96.5733 237.955 96.84 238.995 96.84C240.008 96.84 240.928 96.5733 241.755 96.04C242.582 95.48 243.235 94.7333 243.715 93.8C244.222 92.84 244.475 91.7467 244.475 90.52C244.475 89.32 244.222 88.24 243.715 87.28C243.235 86.32 242.582 85.5733 241.755 85.04C240.928 84.5067 240.008 84.24 238.995 84.24C237.955 84.24 237.022 84.52 236.195 85.08C235.368 85.6133 234.715 86.36 234.235 87.32C233.755 88.2533 233.515 89.3333 233.515 90.56ZM286.133 101H280.773V89.24C280.773 87.5867 280.479 86.3733 279.893 85.6C279.333 84.8 278.546 84.4 277.533 84.4C276.493 84.4 275.493 84.8133 274.533 85.64C273.599 86.44 272.933 87.4933 272.533 88.8V101H267.173V89.24C267.173 87.56 266.879 86.3333 266.293 85.56C265.733 84.7867 264.946 84.4 263.933 84.4C262.893 84.4 261.893 84.8 260.933 85.6C259.999 86.4 259.333 87.4533 258.933 88.76V101H253.573V80.04H258.413V83.92C259.213 82.56 260.279 81.52 261.613 80.8C262.946 80.0533 264.479 79.68 266.213 79.68C267.946 79.68 269.293 80.1067 270.253 80.96C271.239 81.8133 271.866 82.8667 272.133 84.12C272.986 82.68 274.066 81.5867 275.373 80.84C276.706 80.0667 278.199 79.68 279.853 79.68C281.159 79.68 282.213 79.92 283.013 80.4C283.839 80.8533 284.479 81.48 284.933 82.28C285.386 83.0533 285.693 83.9333 285.853 84.92C286.039 85.9067 286.133 86.9067 286.133 87.92V101ZM290.799 101V80.04H296.159V101H290.799ZM290.799 77.12V71.8H296.159V77.12H290.799ZM299.595 97.72L311.155 83.8H300.075V80.04H316.915V83.32L305.435 97.24H317.115V101H299.595V97.72ZM330.09 101.4C328.41 101.4 326.89 101.12 325.53 100.56C324.17 99.9733 323.01 99.1867 322.05 98.2C321.09 97.1867 320.343 96.04 319.81 94.76C319.303 93.4533 319.05 92.08 319.05 90.64C319.05 88.64 319.49 86.8133 320.37 85.16C321.276 83.5067 322.556 82.1867 324.21 81.2C325.89 80.1867 327.863 79.68 330.13 79.68C332.423 79.68 334.383 80.1867 336.01 81.2C337.636 82.1867 338.876 83.5067 339.73 85.16C340.61 86.7867 341.05 88.5467 341.05 90.44C341.05 90.76 341.036 91.0933 341.01 91.44C340.983 91.76 340.956 92.0267 340.93 92.24H324.73C324.836 93.3067 325.143 94.24 325.65 95.04C326.183 95.84 326.85 96.4533 327.65 96.88C328.476 97.28 329.356 97.48 330.29 97.48C331.356 97.48 332.356 97.2267 333.29 96.72C334.25 96.1867 334.903 95.4933 335.25 94.64L339.85 95.92C339.343 96.9867 338.61 97.9333 337.65 98.76C336.716 99.5867 335.61 100.24 334.33 100.72C333.05 101.173 331.636 101.4 330.09 101.4ZM324.61 88.84H335.57C335.463 87.7733 335.156 86.8533 334.65 86.08C334.17 85.28 333.53 84.6667 332.73 84.24C331.93 83.7867 331.036 83.56 330.05 83.56C329.09 83.56 328.21 83.7867 327.41 84.24C326.636 84.6667 325.996 85.28 325.49 86.08C325.01 86.8533 324.716 87.7733 324.61 88.84ZM343.035 90.52C343.035 88.4933 343.435 86.6667 344.235 85.04C345.035 83.3867 346.142 82.08 347.555 81.12C348.968 80.16 350.582 79.68 352.395 79.68C353.942 79.68 355.328 80.0667 356.555 80.84C357.808 81.5867 358.782 82.5467 359.475 83.72V71.8H364.835V95C364.835 95.56 364.928 95.96 365.115 96.2C365.302 96.44 365.622 96.5867 366.075 96.64V101C365.142 101.187 364.382 101.28 363.795 101.28C362.835 101.28 362.035 101.04 361.395 100.56C360.782 100.08 360.435 99.4533 360.355 98.68L360.275 97.36C359.502 98.6667 358.448 99.6667 357.115 100.36C355.808 101.053 354.435 101.4 352.995 101.4C351.555 101.4 350.222 101.12 348.995 100.56C347.795 100 346.742 99.2267 345.835 98.24C344.955 97.2533 344.262 96.1067 343.755 94.8C343.275 93.4667 343.035 92.04 343.035 90.52ZM359.475 93.32V88.32C359.208 87.5467 358.782 86.8533 358.195 86.24C357.608 85.6267 356.955 85.1467 356.235 84.8C355.515 84.4267 354.795 84.24 354.075 84.24C353.248 84.24 352.502 84.4133 351.835 84.76C351.168 85.1067 350.582 85.5733 350.075 86.16C349.595 86.7467 349.222 87.4267 348.955 88.2C348.715 88.9733 348.595 89.7867 348.595 90.64C348.595 91.4933 348.728 92.3067 348.995 93.08C349.288 93.8267 349.702 94.48 350.235 95.04C350.768 95.6 351.382 96.04 352.075 96.36C352.795 96.68 353.568 96.84 354.395 96.84C354.902 96.84 355.408 96.76 355.915 96.6C356.448 96.4133 356.942 96.1733 357.395 95.88C357.875 95.56 358.288 95.1867 358.635 94.76C359.008 94.3067 359.288 93.8267 359.475 93.32ZM392.266 101.4C390.639 101.4 389.199 101.04 387.946 100.32C386.719 99.5733 385.759 98.5733 385.066 97.32V109.52H379.706V80.04H384.386V83.64C385.186 82.4133 386.199 81.4533 387.426 80.76C388.652 80.04 390.052 79.68 391.626 79.68C393.039 79.68 394.332 79.96 395.506 80.52C396.706 81.08 397.746 81.8667 398.626 82.88C399.506 83.8667 400.186 85.0133 400.666 86.32C401.172 87.6 401.426 88.9867 401.426 90.48C401.426 92.5067 401.026 94.3467 400.226 96C399.452 97.6533 398.372 98.9733 396.986 99.96C395.626 100.92 394.052 101.4 392.266 101.4ZM390.466 96.84C391.292 96.84 392.039 96.6667 392.706 96.32C393.372 95.9733 393.946 95.5067 394.426 94.92C394.932 94.3067 395.306 93.6267 395.546 92.88C395.812 92.1067 395.946 91.3067 395.946 90.48C395.946 89.6 395.799 88.7867 395.506 88.04C395.239 87.2933 394.839 86.64 394.306 86.08C393.772 85.4933 393.146 85.04 392.426 84.72C391.732 84.4 390.972 84.24 390.146 84.24C389.639 84.24 389.119 84.3333 388.586 84.52C388.079 84.68 387.586 84.92 387.106 85.24C386.626 85.56 386.199 85.9333 385.826 86.36C385.479 86.7867 385.226 87.2533 385.066 87.76V92.68C385.386 93.4533 385.812 94.16 386.346 94.8C386.906 95.44 387.546 95.9467 388.266 96.32C388.986 96.6667 389.719 96.84 390.466 96.84ZM405.017 71.8H410.377V94.28C410.377 95.24 410.537 95.8933 410.857 96.24C411.177 96.56 411.617 96.72 412.177 96.72C412.604 96.72 413.044 96.6667 413.497 96.56C413.951 96.4533 414.351 96.32 414.697 96.16L415.417 100.24C414.697 100.587 413.857 100.853 412.897 101.04C411.937 101.227 411.071 101.32 410.297 101.32C408.617 101.32 407.311 100.88 406.377 100C405.471 99.0933 405.017 97.8133 405.017 96.16V71.8ZM416.313 94.8C416.313 93.44 416.686 92.2533 417.433 91.24C418.206 90.2 419.273 89.4 420.633 88.84C421.993 88.28 423.553 88 425.312 88C426.193 88 427.086 88.0667 427.993 88.2C428.899 88.3333 429.686 88.5467 430.353 88.84V87.72C430.353 86.3867 429.953 85.36 429.153 84.64C428.379 83.92 427.219 83.56 425.673 83.56C424.526 83.56 423.433 83.76 422.393 84.16C421.353 84.56 420.259 85.1467 419.113 85.92L417.393 82.4C418.779 81.4933 420.193 80.8133 421.633 80.36C423.099 79.9067 424.633 79.68 426.233 79.68C429.219 79.68 431.539 80.4267 433.193 81.92C434.873 83.4133 435.713 85.5467 435.713 88.32V95C435.713 95.56 435.806 95.96 435.993 96.2C436.206 96.44 436.539 96.5867 436.993 96.64V101C436.513 101.08 436.073 101.147 435.673 101.2C435.299 101.253 434.979 101.28 434.713 101.28C433.646 101.28 432.833 101.04 432.273 100.56C431.739 100.08 431.406 99.4933 431.273 98.8L431.153 97.72C430.246 98.8933 429.113 99.8 427.753 100.44C426.393 101.08 425.006 101.4 423.593 101.4C422.206 101.4 420.953 101.12 419.833 100.56C418.739 99.9733 417.873 99.1867 417.233 98.2C416.619 97.1867 416.313 96.0533 416.313 94.8ZM429.353 95.88C429.646 95.56 429.886 95.24 430.073 94.92C430.259 94.6 430.353 94.3067 430.353 94.04V91.92C429.713 91.6533 429.019 91.4533 428.273 91.32C427.526 91.16 426.819 91.08 426.153 91.08C424.766 91.08 423.619 91.3867 422.713 92C421.833 92.5867 421.393 93.3733 421.393 94.36C421.393 94.8933 421.539 95.4 421.833 95.88C422.126 96.36 422.553 96.7467 423.113 97.04C423.673 97.3333 424.339 97.48 425.113 97.48C425.913 97.48 426.699 97.3333 427.473 97.04C428.246 96.72 428.873 96.3333 429.353 95.88ZM440.38 105.08C440.86 105.187 441.3 105.28 441.7 105.36C442.127 105.44 442.487 105.48 442.78 105.48C443.287 105.48 443.7 105.347 444.02 105.08C444.367 104.84 444.7 104.387 445.02 103.72C445.34 103.08 445.673 102.173 446.02 101L437.74 80.04H443.3L448.94 95.52L453.9 80.04H459.02L450.22 105.16C449.9 106.093 449.407 106.933 448.74 107.68C448.1 108.453 447.287 109.053 446.3 109.48C445.34 109.933 444.26 110.16 443.06 110.16C442.633 110.16 442.207 110.12 441.78 110.04C441.353 109.987 440.887 109.88 440.38 109.72V105.08ZM461.892 71.8H467.252V94.28C467.252 95.24 467.412 95.8933 467.732 96.24C468.052 96.56 468.492 96.72 469.052 96.72C469.479 96.72 469.919 96.6667 470.372 96.56C470.826 96.4533 471.226 96.32 471.572 96.16L472.292 100.24C471.572 100.587 470.732 100.853 469.772 101.04C468.812 101.227 467.946 101.32 467.172 101.32C465.492 101.32 464.186 100.88 463.252 100C462.346 99.0933 461.892 97.8133 461.892 96.16V71.8ZM474.628 101V80.04H479.988V101H474.628ZM474.628 77.12V71.8H479.988V77.12H474.628ZM492.543 101.4C490.756 101.4 489.049 101.107 487.423 100.52C485.796 99.9333 484.396 99.0667 483.223 97.92L485.143 94.44C486.396 95.4533 487.623 96.2 488.823 96.68C490.049 97.16 491.223 97.4 492.343 97.4C493.383 97.4 494.209 97.2133 494.823 96.84C495.463 96.4667 495.783 95.9067 495.783 95.16C495.783 94.6533 495.609 94.2667 495.263 94C494.916 93.7067 494.409 93.4533 493.743 93.24C493.103 93.0267 492.316 92.7867 491.383 92.52C489.836 92.0133 488.543 91.52 487.503 91.04C486.463 90.56 485.676 89.96 485.143 89.24C484.636 88.4933 484.383 87.5467 484.383 86.4C484.383 85.0133 484.729 83.8267 485.423 82.84C486.143 81.8267 487.129 81.04 488.383 80.48C489.663 79.92 491.156 79.64 492.863 79.64C494.356 79.64 495.769 79.88 497.103 80.36C498.436 80.8133 499.649 81.56 500.743 82.6L498.583 86C497.516 85.1733 496.503 84.5733 495.543 84.2C494.583 83.8 493.609 83.6 492.623 83.6C492.063 83.6 491.529 83.6667 491.023 83.8C490.543 83.9333 490.143 84.16 489.823 84.48C489.529 84.7733 489.383 85.2 489.383 85.76C489.383 86.2667 489.516 86.6667 489.783 86.96C490.076 87.2267 490.503 87.4667 491.063 87.68C491.649 87.8933 492.356 88.1333 493.183 88.4C494.863 88.88 496.276 89.3733 497.423 89.88C498.596 90.3867 499.476 91.0133 500.063 91.76C500.649 92.48 500.943 93.48 500.943 94.76C500.943 96.84 500.183 98.4667 498.663 99.64C497.143 100.813 495.103 101.4 492.543 101.4ZM517.031 99.92C516.578 100.107 516.031 100.32 515.391 100.56C514.751 100.8 514.058 100.987 513.311 101.12C512.591 101.28 511.858 101.36 511.111 101.36C510.125 101.36 509.218 101.187 508.391 100.84C507.565 100.493 506.898 99.9467 506.391 99.2C505.911 98.4267 505.671 97.4267 505.671 96.2V84.16H502.911V80.04H505.671V73.24H511.031V80.04H515.431V84.16H511.031V94.4C511.058 95.12 511.258 95.64 511.631 95.96C512.005 96.28 512.471 96.44 513.031 96.44C513.591 96.44 514.138 96.3467 514.671 96.16C515.205 95.9733 515.631 95.8133 515.951 95.68L517.031 99.92Z" fill="#FCA908"/>
<path d="M144.736 121.2H151.576C153.352 121.2 154.92 121.56 156.28 122.28C157.64 122.984 158.696 123.976 159.448 125.256C160.2 126.52 160.576 127.968 160.576 129.6C160.576 131.232 160.2 132.688 159.448 133.968C158.696 135.232 157.64 136.224 156.28 136.944C154.92 137.648 153.352 138 151.576 138H144.736V121.2ZM151.48 136.464C152.952 136.464 154.24 136.176 155.344 135.6C156.448 135.008 157.304 134.2 157.912 133.176C158.52 132.136 158.824 130.944 158.824 129.6C158.824 128.256 158.52 127.072 157.912 126.048C157.304 125.008 156.448 124.2 155.344 123.624C154.24 123.032 152.952 122.736 151.48 122.736H146.512V136.464H151.48ZM166.013 138.144C165.053 138.144 164.165 137.936 163.349 137.52C162.533 137.104 161.869 136.512 161.357 135.744L162.413 134.544C163.341 135.92 164.549 136.608 166.037 136.608C168.117 136.608 169.157 135.376 169.157 132.912V122.736H163.013V121.2H170.909V132.84C170.909 134.6 170.493 135.928 169.661 136.824C168.845 137.704 167.629 138.144 166.013 138.144ZM182.517 121.2H189.357C191.133 121.2 192.701 121.56 194.061 122.28C195.421 122.984 196.477 123.976 197.229 125.256C197.981 126.52 198.357 127.968 198.357 129.6C198.357 131.232 197.981 132.688 197.229 133.968C196.477 135.232 195.421 136.224 194.061 136.944C192.701 137.648 191.133 138 189.357 138H182.517V121.2ZM189.261 136.464C190.733 136.464 192.021 136.176 193.125 135.6C194.229 135.008 195.085 134.2 195.693 133.176C196.301 132.136 196.605 130.944 196.605 129.6C196.605 128.256 196.301 127.072 195.693 126.048C195.085 125.008 194.229 124.2 193.125 123.624C192.021 123.032 190.733 122.736 189.261 122.736H184.293V136.464H189.261ZM201.985 125.376H203.689V138H201.985V125.376ZM202.849 122.616C202.497 122.616 202.201 122.496 201.961 122.256C201.721 122.016 201.601 121.728 201.601 121.392C201.601 121.072 201.721 120.792 201.961 120.552C202.201 120.312 202.497 120.192 202.849 120.192C203.201 120.192 203.497 120.312 203.737 120.552C203.977 120.776 204.097 121.048 204.097 121.368C204.097 121.72 203.977 122.016 203.737 122.256C203.497 122.496 203.201 122.616 202.849 122.616ZM212.847 125.28C214.495 125.28 215.759 125.696 216.639 126.528C217.519 127.344 217.959 128.56 217.959 130.176V138H216.327V136.032C215.943 136.688 215.375 137.2 214.623 137.568C213.887 137.936 213.007 138.12 211.983 138.12C210.575 138.12 209.455 137.784 208.623 137.112C207.791 136.44 207.375 135.552 207.375 134.448C207.375 133.376 207.759 132.512 208.527 131.856C209.311 131.2 210.551 130.872 212.247 130.872H216.255V130.104C216.255 129.016 215.951 128.192 215.343 127.632C214.735 127.056 213.847 126.768 212.679 126.768C211.879 126.768 211.111 126.904 210.375 127.176C209.639 127.432 209.007 127.792 208.479 128.256L207.711 126.984C208.351 126.44 209.119 126.024 210.015 125.736C210.911 125.432 211.855 125.28 212.847 125.28ZM212.247 136.776C213.207 136.776 214.031 136.56 214.719 136.128C215.407 135.68 215.919 135.04 216.255 134.208V132.144H212.295C210.135 132.144 209.055 132.896 209.055 134.4C209.055 135.136 209.335 135.72 209.895 136.152C210.455 136.568 211.239 136.776 212.247 136.776ZM224.219 127.848C224.619 127 225.211 126.36 225.995 125.928C226.795 125.496 227.779 125.28 228.947 125.28V126.936L228.539 126.912C227.211 126.912 226.171 127.32 225.419 128.136C224.667 128.952 224.291 130.096 224.291 131.568V138H222.587V125.376H224.219V127.848ZM243.179 125.376L236.867 139.512C236.355 140.696 235.763 141.536 235.091 142.032C234.419 142.528 233.611 142.776 232.667 142.776C232.059 142.776 231.491 142.68 230.963 142.488C230.435 142.296 229.979 142.008 229.595 141.624L230.387 140.352C231.027 140.992 231.795 141.312 232.691 141.312C233.267 141.312 233.755 141.152 234.155 140.832C234.571 140.512 234.955 139.968 235.307 139.2L235.859 137.976L230.219 125.376H231.995L236.747 136.104L241.499 125.376H243.179ZM258.364 125.28C259.548 125.28 260.62 125.552 261.58 126.096C262.54 126.624 263.292 127.376 263.836 128.352C264.38 129.328 264.652 130.44 264.652 131.688C264.652 132.952 264.38 134.072 263.836 135.048C263.292 136.024 262.54 136.784 261.58 137.328C260.636 137.856 259.564 138.12 258.364 138.12C257.34 138.12 256.412 137.912 255.58 137.496C254.764 137.064 254.092 136.44 253.564 135.624V142.656H251.86V125.376H253.492V127.872C254.004 127.04 254.676 126.4 255.508 125.952C256.356 125.504 257.308 125.28 258.364 125.28ZM258.244 136.608C259.124 136.608 259.924 136.408 260.644 136.008C261.364 135.592 261.924 135.008 262.324 134.256C262.74 133.504 262.948 132.648 262.948 131.688C262.948 130.728 262.74 129.88 262.324 129.144C261.924 128.392 261.364 127.808 260.644 127.392C259.924 126.976 259.124 126.768 258.244 126.768C257.348 126.768 256.54 126.976 255.82 127.392C255.116 127.808 254.556 128.392 254.14 129.144C253.74 129.88 253.54 130.728 253.54 131.688C253.54 132.648 253.74 133.504 254.14 134.256C254.556 135.008 255.116 135.592 255.82 136.008C256.54 136.408 257.348 136.608 258.244 136.608ZM269.758 127.848C270.158 127 270.75 126.36 271.534 125.928C272.334 125.496 273.318 125.28 274.486 125.28V126.936L274.078 126.912C272.75 126.912 271.71 127.32 270.958 128.136C270.206 128.952 269.83 130.096 269.83 131.568V138H268.126V125.376H269.758V127.848ZM282.614 138.12C281.398 138.12 280.302 137.848 279.326 137.304C278.35 136.744 277.582 135.976 277.022 135C276.462 134.024 276.182 132.92 276.182 131.688C276.182 130.456 276.462 129.352 277.022 128.376C277.582 127.4 278.35 126.64 279.326 126.096C280.302 125.552 281.398 125.28 282.614 125.28C283.83 125.28 284.926 125.552 285.902 126.096C286.878 126.64 287.638 127.4 288.182 128.376C288.742 129.352 289.022 130.456 289.022 131.688C289.022 132.92 288.742 134.024 288.182 135C287.638 135.976 286.878 136.744 285.902 137.304C284.926 137.848 283.83 138.12 282.614 138.12ZM282.614 136.608C283.51 136.608 284.31 136.408 285.014 136.008C285.734 135.592 286.294 135.008 286.694 134.256C287.094 133.504 287.294 132.648 287.294 131.688C287.294 130.728 287.094 129.872 286.694 129.12C286.294 128.368 285.734 127.792 285.014 127.392C284.31 126.976 283.51 126.768 282.614 126.768C281.718 126.768 280.91 126.976 280.19 127.392C279.486 127.792 278.926 128.368 278.51 129.12C278.11 129.872 277.91 130.728 277.91 131.688C277.91 132.648 278.11 133.504 278.51 134.256C278.926 135.008 279.486 135.592 280.19 136.008C280.91 136.408 281.718 136.608 282.614 136.608ZM302.757 125.376L297.141 138H295.389L289.797 125.376H291.573L296.301 136.128L301.077 125.376H302.757ZM305.157 125.376H306.861V138H305.157V125.376ZM306.021 122.616C305.669 122.616 305.373 122.496 305.133 122.256C304.893 122.016 304.773 121.728 304.773 121.392C304.773 121.072 304.893 120.792 305.133 120.552C305.373 120.312 305.669 120.192 306.021 120.192C306.373 120.192 306.669 120.312 306.909 120.552C307.149 120.776 307.269 121.048 307.269 121.368C307.269 121.72 307.149 122.016 306.909 122.256C306.669 122.496 306.373 122.616 306.021 122.616ZM323.123 120.192V138H321.491V135.504C320.979 136.352 320.299 137 319.451 137.448C318.619 137.896 317.675 138.12 316.619 138.12C315.435 138.12 314.363 137.848 313.403 137.304C312.443 136.76 311.691 136 311.147 135.024C310.603 134.048 310.331 132.936 310.331 131.688C310.331 130.44 310.603 129.328 311.147 128.352C311.691 127.376 312.443 126.624 313.403 126.096C314.363 125.552 315.435 125.28 316.619 125.28C317.643 125.28 318.563 125.496 319.379 125.928C320.211 126.344 320.891 126.96 321.419 127.776V120.192H323.123ZM316.763 136.608C317.643 136.608 318.435 136.408 319.139 136.008C319.859 135.592 320.419 135.008 320.819 134.256C321.235 133.504 321.443 132.648 321.443 131.688C321.443 130.728 321.235 129.872 320.819 129.12C320.419 128.368 319.859 127.792 319.139 127.392C318.435 126.976 317.643 126.768 316.763 126.768C315.867 126.768 315.059 126.976 314.339 127.392C313.635 127.792 313.075 128.368 312.659 129.12C312.259 129.872 312.059 130.728 312.059 131.688C312.059 132.648 312.259 133.504 312.659 134.256C313.075 135.008 313.635 135.592 314.339 136.008C315.059 136.408 315.867 136.608 316.763 136.608ZM338.86 132.216H328.3C328.396 133.528 328.9 134.592 329.812 135.408C330.724 136.208 331.876 136.608 333.268 136.608C334.052 136.608 334.772 136.472 335.428 136.2C336.084 135.912 336.652 135.496 337.132 134.952L338.092 136.056C337.532 136.728 336.828 137.24 335.98 137.592C335.148 137.944 334.228 138.12 333.22 138.12C331.924 138.12 330.772 137.848 329.764 137.304C328.772 136.744 327.996 135.976 327.436 135C326.876 134.024 326.596 132.92 326.596 131.688C326.596 130.456 326.86 129.352 327.388 128.376C327.932 127.4 328.668 126.64 329.596 126.096C330.54 125.552 331.596 125.28 332.764 125.28C333.932 125.28 334.98 125.552 335.908 126.096C336.836 126.64 337.564 127.4 338.092 128.376C338.62 129.336 338.884 130.44 338.884 131.688L338.86 132.216ZM332.764 126.744C331.548 126.744 330.524 127.136 329.692 127.92C328.876 128.688 328.412 129.696 328.3 130.944H337.252C337.14 129.696 336.668 128.688 335.836 127.92C335.02 127.136 333.996 126.744 332.764 126.744ZM345.737 138.12C344.713 138.12 343.729 137.976 342.785 137.688C341.857 137.384 341.129 137.008 340.601 136.56L341.369 135.216C341.897 135.632 342.561 135.976 343.361 136.248C344.161 136.504 344.993 136.632 345.857 136.632C347.009 136.632 347.857 136.456 348.401 136.104C348.961 135.736 349.241 135.224 349.241 134.568C349.241 134.104 349.089 133.744 348.785 133.488C348.481 133.216 348.097 133.016 347.633 132.888C347.169 132.744 346.553 132.608 345.785 132.48C344.761 132.288 343.937 132.096 343.313 131.904C342.689 131.696 342.153 131.352 341.705 130.872C341.273 130.392 341.057 129.728 341.057 128.88C341.057 127.824 341.497 126.96 342.377 126.288C343.257 125.616 344.481 125.28 346.049 125.28C346.865 125.28 347.681 125.392 348.497 125.616C349.313 125.824 349.985 126.104 350.513 126.456L349.769 127.824C348.729 127.104 347.489 126.744 346.049 126.744C344.961 126.744 344.137 126.936 343.577 127.32C343.033 127.704 342.761 128.208 342.761 128.832C342.761 129.312 342.913 129.696 343.217 129.984C343.537 130.272 343.929 130.488 344.393 130.632C344.857 130.76 345.497 130.896 346.313 131.04C347.321 131.232 348.129 131.424 348.737 131.616C349.345 131.808 349.865 132.136 350.297 132.6C350.729 133.064 350.945 133.704 350.945 134.52C350.945 135.624 350.481 136.504 349.553 137.16C348.641 137.8 347.369 138.12 345.737 138.12ZM370.984 125.376L364.672 139.512C364.16 140.696 363.568 141.536 362.896 142.032C362.224 142.528 361.416 142.776 360.472 142.776C359.864 142.776 359.296 142.68 358.768 142.488C358.24 142.296 357.784 142.008 357.4 141.624L358.192 140.352C358.832 140.992 359.6 141.312 360.496 141.312C361.072 141.312 361.56 141.152 361.96 140.832C362.376 140.512 362.76 139.968 363.112 139.2L363.664 137.976L358.024 125.376H359.8L364.552 136.104L369.304 125.376H370.984ZM378.192 138.12C376.976 138.12 375.88 137.848 374.904 137.304C373.928 136.744 373.16 135.976 372.6 135C372.04 134.024 371.76 132.92 371.76 131.688C371.76 130.456 372.04 129.352 372.6 128.376C373.16 127.4 373.928 126.64 374.904 126.096C375.88 125.552 376.976 125.28 378.192 125.28C379.408 125.28 380.504 125.552 381.48 126.096C382.456 126.64 383.216 127.4 383.76 128.376C384.32 129.352 384.6 130.456 384.6 131.688C384.6 132.92 384.32 134.024 383.76 135C383.216 135.976 382.456 136.744 381.48 137.304C380.504 137.848 379.408 138.12 378.192 138.12ZM378.192 136.608C379.088 136.608 379.888 136.408 380.592 136.008C381.312 135.592 381.872 135.008 382.272 134.256C382.672 133.504 382.872 132.648 382.872 131.688C382.872 130.728 382.672 129.872 382.272 129.12C381.872 128.368 381.312 127.792 380.592 127.392C379.888 126.976 379.088 126.768 378.192 126.768C377.296 126.768 376.488 126.976 375.768 127.392C375.064 127.792 374.504 128.368 374.088 129.12C373.688 129.872 373.488 130.728 373.488 131.688C373.488 132.648 373.688 133.504 374.088 134.256C374.504 135.008 375.064 135.592 375.768 136.008C376.488 136.408 377.296 136.608 378.192 136.608ZM399.455 125.376V138H397.823V135.696C397.375 136.464 396.759 137.064 395.975 137.496C395.191 137.912 394.295 138.12 393.287 138.12C391.639 138.12 390.335 137.664 389.375 136.752C388.431 135.824 387.959 134.472 387.959 132.696V125.376H389.663V132.528C389.663 133.856 389.991 134.864 390.647 135.552C391.303 136.24 392.239 136.584 393.455 136.584C394.783 136.584 395.831 136.184 396.599 135.384C397.367 134.568 397.751 133.44 397.751 132V125.376H399.455ZM429.037 125.376L424.261 138H422.653L418.669 127.656L414.685 138H413.077L408.325 125.376H409.957L413.917 136.104L417.973 125.376H419.437L423.469 136.104L427.477 125.376H429.037ZM431.603 125.376H433.307V138H431.603V125.376ZM432.467 122.616C432.115 122.616 431.819 122.496 431.579 122.256C431.339 122.016 431.219 121.728 431.219 121.392C431.219 121.072 431.339 120.792 431.579 120.552C431.819 120.312 432.115 120.192 432.467 120.192C432.819 120.192 433.115 120.312 433.355 120.552C433.595 120.776 433.715 121.048 433.715 121.368C433.715 121.72 433.595 122.016 433.355 122.256C433.115 122.496 432.819 122.616 432.467 122.616ZM444.696 137.232C444.376 137.52 443.976 137.744 443.496 137.904C443.032 138.048 442.544 138.12 442.032 138.12C440.848 138.12 439.936 137.8 439.296 137.16C438.656 136.52 438.336 135.616 438.336 134.448V126.816H436.08V125.376H438.336V122.616H440.04V125.376H443.88V126.816H440.04V134.352C440.04 135.104 440.224 135.68 440.592 136.08C440.976 136.464 441.52 136.656 442.224 136.656C442.576 136.656 442.912 136.6 443.232 136.488C443.568 136.376 443.856 136.216 444.096 136.008L444.696 137.232ZM454.23 125.28C455.814 125.28 457.07 125.744 457.998 126.672C458.942 127.584 459.414 128.92 459.414 130.68V138H457.71V130.848C457.71 129.536 457.382 128.536 456.726 127.848C456.07 127.16 455.134 126.816 453.918 126.816C452.558 126.816 451.478 127.224 450.678 128.04C449.894 128.84 449.502 129.952 449.502 131.376V138H447.798V120.192H449.502V127.584C449.966 126.848 450.606 126.28 451.422 125.88C452.238 125.48 453.174 125.28 454.23 125.28ZM474.737 125.28C476.385 125.28 477.649 125.696 478.529 126.528C479.409 127.344 479.849 128.56 479.849 130.176V138H478.217V136.032C477.833 136.688 477.265 137.2 476.513 137.568C475.777 137.936 474.897 138.12 473.873 138.12C472.465 138.12 471.345 137.784 470.513 137.112C469.681 136.44 469.265 135.552 469.265 134.448C469.265 133.376 469.649 132.512 470.417 131.856C471.201 131.2 472.441 130.872 474.137 130.872H478.145V130.104C478.145 129.016 477.841 128.192 477.233 127.632C476.625 127.056 475.737 126.768 474.569 126.768C473.769 126.768 473.001 126.904 472.265 127.176C471.529 127.432 470.897 127.792 470.369 128.256L469.601 126.984C470.241 126.44 471.009 126.024 471.905 125.736C472.801 125.432 473.745 125.28 474.737 125.28ZM474.137 136.776C475.097 136.776 475.921 136.56 476.609 136.128C477.297 135.68 477.809 135.04 478.145 134.208V132.144H474.185C472.025 132.144 470.945 132.896 470.945 134.4C470.945 135.136 471.225 135.72 471.785 136.152C472.345 136.568 473.129 136.776 474.137 136.776ZM497.263 125.28C498.447 125.28 499.519 125.552 500.479 126.096C501.439 126.624 502.191 127.376 502.735 128.352C503.279 129.328 503.551 130.44 503.551 131.688C503.551 132.952 503.279 134.072 502.735 135.048C502.191 136.024 501.439 136.784 500.479 137.328C499.535 137.856 498.463 138.12 497.263 138.12C496.239 138.12 495.311 137.912 494.479 137.496C493.663 137.064 492.991 136.44 492.463 135.624V142.656H490.759V125.376H492.391V127.872C492.903 127.04 493.575 126.4 494.407 125.952C495.255 125.504 496.207 125.28 497.263 125.28ZM497.143 136.608C498.023 136.608 498.823 136.408 499.543 136.008C500.263 135.592 500.823 135.008 501.223 134.256C501.639 133.504 501.847 132.648 501.847 131.688C501.847 130.728 501.639 129.88 501.223 129.144C500.823 128.392 500.263 127.808 499.543 127.392C498.823 126.976 498.023 126.768 497.143 126.768C496.247 126.768 495.439 126.976 494.719 127.392C494.015 127.808 493.455 128.392 493.039 129.144C492.639 129.88 492.439 130.728 492.439 131.688C492.439 132.648 492.639 133.504 493.039 134.256C493.455 135.008 494.015 135.592 494.719 136.008C495.439 136.408 496.247 136.608 497.143 136.608ZM507.024 120.192H508.728V138H507.024V120.192ZM517.886 125.28C519.534 125.28 520.798 125.696 521.678 126.528C522.558 127.344 522.998 128.56 522.998 130.176V138H521.366V136.032C520.982 136.688 520.414 137.2 519.662 137.568C518.926 137.936 518.046 138.12 517.022 138.12C515.614 138.12 514.494 137.784 513.662 137.112C512.83 136.44 512.414 135.552 512.414 134.448C512.414 133.376 512.798 132.512 513.566 131.856C514.35 131.2 515.59 130.872 517.286 130.872H521.294V130.104C521.294 129.016 520.99 128.192 520.382 127.632C519.774 127.056 518.886 126.768 517.718 126.768C516.918 126.768 516.15 126.904 515.414 127.176C514.678 127.432 514.046 127.792 513.518 128.256L512.75 126.984C513.39 126.44 514.158 126.024 515.054 125.736C515.95 125.432 516.894 125.28 517.886 125.28ZM517.286 136.776C518.246 136.776 519.07 136.56 519.758 136.128C520.446 135.68 520.958 135.04 521.294 134.208V132.144H517.334C515.174 132.144 514.094 132.896 514.094 134.4C514.094 135.136 514.374 135.72 514.934 136.152C515.494 136.568 516.278 136.776 517.286 136.776ZM538 125.376L531.688 139.512C531.176 140.696 530.584 141.536 529.912 142.032C529.24 142.528 528.432 142.776 527.488 142.776C526.88 142.776 526.312 142.68 525.784 142.488C525.256 142.296 524.8 142.008 524.416 141.624L525.208 140.352C525.848 140.992 526.616 141.312 527.512 141.312C528.088 141.312 528.576 141.152 528.976 140.832C529.392 140.512 529.776 139.968 530.128 139.2L530.68 137.976L525.04 125.376H526.816L531.568 136.104L536.32 125.376H538ZM540.399 120.192H542.103V138H540.399V120.192ZM546.845 125.376H548.549V138H546.845V125.376ZM547.709 122.616C547.357 122.616 547.061 122.496 546.821 122.256C546.581 122.016 546.461 121.728 546.461 121.392C546.461 121.072 546.581 120.792 546.821 120.552C547.061 120.312 547.357 120.192 547.709 120.192C548.061 120.192 548.357 120.312 548.597 120.552C548.837 120.776 548.957 121.048 548.957 121.368C548.957 121.72 548.837 122.016 548.597 122.256C548.357 122.496 548.061 122.616 547.709 122.616ZM556.674 138.12C555.65 138.12 554.666 137.976 553.722 137.688C552.794 137.384 552.066 137.008 551.538 136.56L552.306 135.216C552.834 135.632 553.498 135.976 554.298 136.248C555.098 136.504 555.93 136.632 556.794 136.632C557.946 136.632 558.794 136.456 559.338 136.104C559.898 135.736 560.178 135.224 560.178 134.568C560.178 134.104 560.026 133.744 559.722 133.488C559.418 133.216 559.034 133.016 558.57 132.888C558.106 132.744 557.49 132.608 556.722 132.48C555.698 132.288 554.874 132.096 554.25 131.904C553.626 131.696 553.09 131.352 552.642 130.872C552.21 130.392 551.994 129.728 551.994 128.88C551.994 127.824 552.434 126.96 553.314 126.288C554.194 125.616 555.418 125.28 556.986 125.28C557.802 125.28 558.618 125.392 559.434 125.616C560.25 125.824 560.922 126.104 561.45 126.456L560.706 127.824C559.666 127.104 558.426 126.744 556.986 126.744C555.898 126.744 555.074 126.936 554.514 127.32C553.97 127.704 553.698 128.208 553.698 128.832C553.698 129.312 553.85 129.696 554.154 129.984C554.474 130.272 554.866 130.488 555.33 130.632C555.794 130.76 556.434 130.896 557.25 131.04C558.258 131.232 559.066 131.424 559.674 131.616C560.282 131.808 560.802 132.136 561.234 132.6C561.666 133.064 561.882 133.704 561.882 134.52C561.882 135.624 561.418 136.504 560.49 137.16C559.578 137.8 558.306 138.12 556.674 138.12ZM571.68 137.232C571.36 137.52 570.96 137.744 570.48 137.904C570.016 138.048 569.528 138.12 569.016 138.12C567.832 138.12 566.92 137.8 566.28 137.16C565.64 136.52 565.32 135.616 565.32 134.448V126.816H563.064V125.376H565.32V122.616H567.024V125.376H570.864V126.816H567.024V134.352C567.024 135.104 567.208 135.68 567.576 136.08C567.96 136.464 568.504 136.656 569.208 136.656C569.56 136.656 569.896 136.6 570.216 136.488C570.552 136.376 570.84 136.216 571.08 136.008L571.68 137.232ZM586.296 138.12C585.048 138.12 583.928 137.848 582.936 137.304C581.96 136.76 581.192 136 580.632 135.024C580.072 134.032 579.792 132.92 579.792 131.688C579.792 130.456 580.072 129.352 580.632 128.376C581.192 127.4 581.96 126.64 582.936 126.096C583.928 125.552 585.048 125.28 586.296 125.28C587.384 125.28 588.352 125.496 589.2 125.928C590.064 126.344 590.744 126.96 591.24 127.776L589.968 128.64C589.552 128.016 589.024 127.552 588.384 127.248C587.744 126.928 587.048 126.768 586.296 126.768C585.384 126.768 584.56 126.976 583.824 127.392C583.104 127.792 582.536 128.368 582.12 129.12C581.72 129.872 581.52 130.728 581.52 131.688C581.52 132.664 581.72 133.528 582.12 134.28C582.536 135.016 583.104 135.592 583.824 136.008C584.56 136.408 585.384 136.608 586.296 136.608C587.048 136.608 587.744 136.456 588.384 136.152C589.024 135.848 589.552 135.384 589.968 134.76L591.24 135.624C590.744 136.44 590.064 137.064 589.2 137.496C588.336 137.912 587.368 138.12 586.296 138.12ZM599.003 125.28C600.651 125.28 601.915 125.696 602.795 126.528C603.675 127.344 604.115 128.56 604.115 130.176V138H602.483V136.032C602.099 136.688 601.531 137.2 600.779 137.568C600.043 137.936 599.163 138.12 598.139 138.12C596.731 138.12 595.611 137.784 594.779 137.112C593.947 136.44 593.531 135.552 593.531 134.448C593.531 133.376 593.915 132.512 594.683 131.856C595.467 131.2 596.707 130.872 598.403 130.872H602.411V130.104C602.411 129.016 602.107 128.192 601.499 127.632C600.891 127.056 600.003 126.768 598.835 126.768C598.035 126.768 597.267 126.904 596.531 127.176C595.795 127.432 595.163 127.792 594.635 128.256L593.867 126.984C594.507 126.44 595.275 126.024 596.171 125.736C597.067 125.432 598.011 125.28 599.003 125.28ZM598.403 136.776C599.363 136.776 600.187 136.56 600.875 136.128C601.563 135.68 602.075 135.04 602.411 134.208V132.144H598.451C596.291 132.144 595.211 132.896 595.211 134.4C595.211 135.136 595.491 135.72 596.051 136.152C596.611 136.568 597.395 136.776 598.403 136.776ZM615.391 137.232C615.071 137.52 614.671 137.744 614.191 137.904C613.727 138.048 613.239 138.12 612.727 138.12C611.543 138.12 610.631 137.8 609.991 137.16C609.351 136.52 609.031 135.616 609.031 134.448V126.816H606.775V125.376H609.031V122.616H610.735V125.376H614.575V126.816H610.735V134.352C610.735 135.104 610.919 135.68 611.287 136.08C611.671 136.464 612.215 136.656 612.919 136.656C613.271 136.656 613.607 136.6 613.927 136.488C614.263 136.376 614.551 136.216 614.791 136.008L615.391 137.232ZM629.04 132.216H618.48C618.576 133.528 619.08 134.592 619.992 135.408C620.904 136.208 622.056 136.608 623.448 136.608C624.232 136.608 624.952 136.472 625.608 136.2C626.264 135.912 626.832 135.496 627.312 134.952L628.272 136.056C627.712 136.728 627.008 137.24 626.16 137.592C625.328 137.944 624.408 138.12 623.4 138.12C622.104 138.12 620.952 137.848 619.944 137.304C618.952 136.744 618.176 135.976 617.616 135C617.056 134.024 616.776 132.92 616.776 131.688C616.776 130.456 617.04 129.352 617.568 128.376C618.112 127.4 618.848 126.64 619.776 126.096C620.72 125.552 621.776 125.28 622.944 125.28C624.112 125.28 625.16 125.552 626.088 126.096C627.016 126.64 627.744 127.4 628.272 128.376C628.8 129.336 629.064 130.44 629.064 131.688L629.04 132.216ZM622.944 126.744C621.728 126.744 620.704 127.136 619.872 127.92C619.056 128.688 618.592 129.696 618.48 130.944H627.432C627.32 129.696 626.848 128.688 626.016 127.92C625.2 127.136 624.176 126.744 622.944 126.744ZM634.164 127.848C634.564 127 635.156 126.36 635.94 125.928C636.74 125.496 637.724 125.28 638.892 125.28V126.936L638.484 126.912C637.156 126.912 636.116 127.32 635.364 128.136C634.612 128.952 634.236 130.096 634.236 131.568V138H632.532V125.376H634.164V127.848ZM652.852 132.216H642.292C642.388 133.528 642.892 134.592 643.804 135.408C644.716 136.208 645.868 136.608 647.26 136.608C648.044 136.608 648.764 136.472 649.42 136.2C650.076 135.912 650.644 135.496 651.124 134.952L652.084 136.056C651.524 136.728 650.82 137.24 649.972 137.592C649.14 137.944 648.22 138.12 647.212 138.12C645.916 138.12 644.764 137.848 643.756 137.304C642.764 136.744 641.988 135.976 641.428 135C640.868 134.024 640.588 132.92 640.588 131.688C640.588 130.456 640.852 129.352 641.38 128.376C641.924 127.4 642.66 126.64 643.588 126.096C644.532 125.552 645.588 125.28 646.756 125.28C647.924 125.28 648.972 125.552 649.9 126.096C650.828 126.64 651.556 127.4 652.084 128.376C652.612 129.336 652.876 130.44 652.876 131.688L652.852 132.216ZM646.756 126.744C645.54 126.744 644.516 127.136 643.684 127.92C642.868 128.688 642.404 129.696 642.292 130.944H651.244C651.132 129.696 650.66 128.688 649.828 127.92C649.012 127.136 647.988 126.744 646.756 126.744ZM667.865 120.192V138H666.233V135.504C665.721 136.352 665.041 137 664.193 137.448C663.361 137.896 662.417 138.12 661.361 138.12C660.177 138.12 659.105 137.848 658.145 137.304C657.185 136.76 656.433 136 655.889 135.024C655.345 134.048 655.073 132.936 655.073 131.688C655.073 130.44 655.345 129.328 655.889 128.352C656.433 127.376 657.185 126.624 658.145 126.096C659.105 125.552 660.177 125.28 661.361 125.28C662.385 125.28 663.305 125.496 664.121 125.928C664.953 126.344 665.633 126.96 666.161 127.776V120.192H667.865ZM661.505 136.608C662.385 136.608 663.177 136.408 663.881 136.008C664.601 135.592 665.161 135.008 665.561 134.256C665.977 133.504 666.185 132.648 666.185 131.688C666.185 130.728 665.977 129.872 665.561 129.12C665.161 128.368 664.601 127.792 663.881 127.392C663.177 126.976 662.385 126.768 661.505 126.768C660.609 126.768 659.801 126.976 659.081 127.392C658.377 127.792 657.817 128.368 657.401 129.12C657.001 129.872 656.801 130.728 656.801 131.688C656.801 132.648 657.001 133.504 657.401 134.256C657.817 135.008 658.377 135.592 659.081 136.008C659.801 136.408 660.609 136.608 661.505 136.608ZM151.024 166.232C150.704 166.52 150.304 166.744 149.824 166.904C149.36 167.048 148.872 167.12 148.36 167.12C147.176 167.12 146.264 166.8 145.624 166.16C144.984 165.52 144.664 164.616 144.664 163.448V155.816H142.408V154.376H144.664V151.616H146.368V154.376H150.208V155.816H146.368V163.352C146.368 164.104 146.552 164.68 146.92 165.08C147.304 165.464 147.848 165.656 148.552 165.656C148.904 165.656 149.24 165.6 149.56 165.488C149.896 165.376 150.184 165.216 150.424 165.008L151.024 166.232ZM158.841 167.12C157.625 167.12 156.529 166.848 155.553 166.304C154.577 165.744 153.809 164.976 153.249 164C152.689 163.024 152.409 161.92 152.409 160.688C152.409 159.456 152.689 158.352 153.249 157.376C153.809 156.4 154.577 155.64 155.553 155.096C156.529 154.552 157.625 154.28 158.841 154.28C160.057 154.28 161.153 154.552 162.129 155.096C163.105 155.64 163.865 156.4 164.409 157.376C164.969 158.352 165.249 159.456 165.249 160.688C165.249 161.92 164.969 163.024 164.409 164C163.865 164.976 163.105 165.744 162.129 166.304C161.153 166.848 160.057 167.12 158.841 167.12ZM158.841 165.608C159.737 165.608 160.537 165.408 161.241 165.008C161.961 164.592 162.521 164.008 162.921 163.256C163.321 162.504 163.521 161.648 163.521 160.688C163.521 159.728 163.321 158.872 162.921 158.12C162.521 157.368 161.961 156.792 161.241 156.392C160.537 155.976 159.737 155.768 158.841 155.768C157.945 155.768 157.137 155.976 156.417 156.392C155.713 156.792 155.153 157.368 154.737 158.12C154.337 158.872 154.137 159.728 154.137 160.688C154.137 161.648 154.337 162.504 154.737 163.256C155.153 164.008 155.713 164.592 156.417 165.008C157.137 165.408 157.945 165.608 158.841 165.608ZM185.617 154.376L179.305 168.512C178.793 169.696 178.201 170.536 177.529 171.032C176.857 171.528 176.049 171.776 175.105 171.776C174.497 171.776 173.929 171.68 173.401 171.488C172.873 171.296 172.417 171.008 172.033 170.624L172.825 169.352C173.465 169.992 174.233 170.312 175.129 170.312C175.705 170.312 176.193 170.152 176.593 169.832C177.009 169.512 177.393 168.968 177.745 168.2L178.297 166.976L172.657 154.376H174.433L179.185 165.104L183.937 154.376H185.617ZM192.825 167.12C191.609 167.12 190.513 166.848 189.537 166.304C188.561 165.744 187.793 164.976 187.233 164C186.673 163.024 186.393 161.92 186.393 160.688C186.393 159.456 186.673 158.352 187.233 157.376C187.793 156.4 188.561 155.64 189.537 155.096C190.513 154.552 191.609 154.28 192.825 154.28C194.041 154.28 195.137 154.552 196.113 155.096C197.089 155.64 197.849 156.4 198.393 157.376C198.953 158.352 199.233 159.456 199.233 160.688C199.233 161.92 198.953 163.024 198.393 164C197.849 164.976 197.089 165.744 196.113 166.304C195.137 166.848 194.041 167.12 192.825 167.12ZM192.825 165.608C193.721 165.608 194.521 165.408 195.225 165.008C195.945 164.592 196.505 164.008 196.905 163.256C197.305 162.504 197.505 161.648 197.505 160.688C197.505 159.728 197.305 158.872 196.905 158.12C196.505 157.368 195.945 156.792 195.225 156.392C194.521 155.976 193.721 155.768 192.825 155.768C191.929 155.768 191.121 155.976 190.401 156.392C189.697 156.792 189.137 157.368 188.721 158.12C188.321 158.872 188.121 159.728 188.121 160.688C188.121 161.648 188.321 162.504 188.721 163.256C189.137 164.008 189.697 164.592 190.401 165.008C191.121 165.408 191.929 165.608 192.825 165.608ZM214.088 154.376V167H212.456V164.696C212.008 165.464 211.392 166.064 210.608 166.496C209.824 166.912 208.928 167.12 207.92 167.12C206.272 167.12 204.968 166.664 204.008 165.752C203.064 164.824 202.592 163.472 202.592 161.696V154.376H204.296V161.528C204.296 162.856 204.624 163.864 205.28 164.552C205.936 165.24 206.872 165.584 208.088 165.584C209.416 165.584 210.464 165.184 211.232 164.384C212 163.568 212.384 162.44 212.384 161V154.376H214.088ZM220.492 156.848C220.892 156 221.484 155.36 222.268 154.928C223.068 154.496 224.052 154.28 225.22 154.28V155.936L224.812 155.912C223.484 155.912 222.444 156.32 221.692 157.136C220.94 157.952 220.564 159.096 220.564 160.568V167H218.86V154.376H220.492V156.848ZM250.518 154.28C252.102 154.28 253.342 154.736 254.238 155.648C255.15 156.56 255.606 157.904 255.606 159.68V167H253.902V159.848C253.902 158.536 253.582 157.536 252.942 156.848C252.318 156.16 251.43 155.816 250.278 155.816C248.966 155.816 247.934 156.224 247.182 157.04C246.43 157.84 246.054 158.952 246.054 160.376V167H244.35V159.848C244.35 158.536 244.03 157.536 243.39 156.848C242.766 156.16 241.87 155.816 240.702 155.816C239.406 155.816 238.374 156.224 237.606 157.04C236.854 157.84 236.478 158.952 236.478 160.376V167H234.774V154.376H236.406V156.68C236.854 155.912 237.478 155.32 238.278 154.904C239.078 154.488 239.998 154.28 241.038 154.28C242.094 154.28 243.006 154.504 243.774 154.952C244.558 155.4 245.142 156.064 245.526 156.944C245.99 156.112 246.654 155.464 247.518 155C248.398 154.52 249.398 154.28 250.518 154.28ZM265.434 167.12C264.218 167.12 263.122 166.848 262.146 166.304C261.17 165.744 260.402 164.976 259.842 164C259.282 163.024 259.002 161.92 259.002 160.688C259.002 159.456 259.282 158.352 259.842 157.376C260.402 156.4 261.17 155.64 262.146 155.096C263.122 154.552 264.218 154.28 265.434 154.28C266.65 154.28 267.746 154.552 268.722 155.096C269.698 155.64 270.458 156.4 271.002 157.376C271.562 158.352 271.842 159.456 271.842 160.688C271.842 161.92 271.562 163.024 271.002 164C270.458 164.976 269.698 165.744 268.722 166.304C267.746 166.848 266.65 167.12 265.434 167.12ZM265.434 165.608C266.33 165.608 267.13 165.408 267.834 165.008C268.554 164.592 269.114 164.008 269.514 163.256C269.914 162.504 270.114 161.648 270.114 160.688C270.114 159.728 269.914 158.872 269.514 158.12C269.114 157.368 268.554 156.792 267.834 156.392C267.13 155.976 266.33 155.768 265.434 155.768C264.538 155.768 263.73 155.976 263.01 156.392C262.306 156.792 261.746 157.368 261.33 158.12C260.93 158.872 260.73 159.728 260.73 160.688C260.73 161.648 260.93 162.504 261.33 163.256C261.746 164.008 262.306 164.592 263.01 165.008C263.73 165.408 264.538 165.608 265.434 165.608ZM280.481 167.12C279.265 167.12 278.169 166.848 277.193 166.304C276.217 165.744 275.449 164.976 274.889 164C274.329 163.024 274.049 161.92 274.049 160.688C274.049 159.456 274.329 158.352 274.889 157.376C275.449 156.4 276.217 155.64 277.193 155.096C278.169 154.552 279.265 154.28 280.481 154.28C281.697 154.28 282.793 154.552 283.769 155.096C284.745 155.64 285.505 156.4 286.049 157.376C286.609 158.352 286.889 159.456 286.889 160.688C286.889 161.92 286.609 163.024 286.049 164C285.505 164.976 284.745 165.744 283.769 166.304C282.793 166.848 281.697 167.12 280.481 167.12ZM280.481 165.608C281.377 165.608 282.177 165.408 282.881 165.008C283.601 164.592 284.161 164.008 284.561 163.256C284.961 162.504 285.161 161.648 285.161 160.688C285.161 159.728 284.961 158.872 284.561 158.12C284.161 157.368 283.601 156.792 282.881 156.392C282.177 155.976 281.377 155.768 280.481 155.768C279.585 155.768 278.777 155.976 278.057 156.392C277.353 156.792 276.793 157.368 276.377 158.12C275.977 158.872 275.777 159.728 275.777 160.688C275.777 161.648 275.977 162.504 276.377 163.256C276.793 164.008 277.353 164.592 278.057 165.008C278.777 165.408 279.585 165.608 280.481 165.608ZM301.888 149.192V167H300.256V164.504C299.744 165.352 299.064 166 298.216 166.448C297.384 166.896 296.44 167.12 295.384 167.12C294.2 167.12 293.128 166.848 292.168 166.304C291.208 165.76 290.456 165 289.912 164.024C289.368 163.048 289.096 161.936 289.096 160.688C289.096 159.44 289.368 158.328 289.912 157.352C290.456 156.376 291.208 155.624 292.168 155.096C293.128 154.552 294.2 154.28 295.384 154.28C296.408 154.28 297.328 154.496 298.144 154.928C298.976 155.344 299.656 155.96 300.184 156.776V149.192H301.888ZM295.528 165.608C296.408 165.608 297.2 165.408 297.904 165.008C298.624 164.592 299.184 164.008 299.584 163.256C300 162.504 300.208 161.648 300.208 160.688C300.208 159.728 300 158.872 299.584 158.12C299.184 157.368 298.624 156.792 297.904 156.392C297.2 155.976 296.408 155.768 295.528 155.768C294.632 155.768 293.824 155.976 293.104 156.392C292.4 156.792 291.84 157.368 291.424 158.12C291.024 158.872 290.824 159.728 290.824 160.688C290.824 161.648 291.024 162.504 291.424 163.256C291.84 164.008 292.4 164.592 293.104 165.008C293.824 165.408 294.632 165.608 295.528 165.608ZM306.802 167.12C306.45 167.12 306.146 166.992 305.89 166.736C305.65 166.48 305.53 166.168 305.53 165.8C305.53 165.432 305.65 165.128 305.89 164.888C306.146 164.632 306.45 164.504 306.802 164.504C307.154 164.504 307.458 164.632 307.714 164.888C307.97 165.128 308.098 165.432 308.098 165.8C308.098 166.168 307.97 166.48 307.714 166.736C307.458 166.992 307.154 167.12 306.802 167.12Z" fill="#FCA908"/>
<path d="M119 126.778C119 130.766 115.766 134 111.778 134H61.2222C57.2337 134 54 130.766 54 126.778V76.2222C54 72.2337 57.2337 69 61.2222 69H111.778C115.766 69 119 72.2337 119 76.2222V126.778Z" fill="url(#paint0_linear_134_1304)"/>
<path d="M95.6831 113.971C98.1477 113.971 100.053 115.09 100.053 117.665C100.053 120.242 98.1477 121.361 96.0207 121.361H77.3224C74.8596 121.361 72.9565 120.242 72.9565 117.665C72.9565 116.491 73.6842 115.482 74.2439 114.81C78.8896 109.269 83.9289 104.23 88.1846 98.0712C89.1921 96.6159 90.1436 94.879 90.1436 92.864C90.1436 90.5691 88.4085 88.5541 86.1118 88.5541C79.6732 88.5541 82.7535 97.6234 77.3783 97.6234C74.6917 97.6234 73.2906 95.7203 73.2906 93.5356C73.2906 86.4831 79.5613 80.8281 86.4477 80.8281C93.3359 80.8281 98.8753 85.3637 98.8753 92.4722C98.8753 100.252 90.1996 107.98 85.4402 113.969L95.6831 113.971Z" fill="white"/>
<path d="M564.068 57C552.071 57 542.345 66.726 542.345 78.7229V91.7566H546.689V78.7229C546.689 68.5855 554.32 61.0723 564.068 61.0723C573.814 61.0723 581.446 68.5855 581.446 78.7229V93.2048L585.79 91.7566V78.7229C585.79 66.726 576.064 57 564.068 57Z" fill="#66757F"/>
<path d="M546.689 96.101C546.689 97.6998 545.392 98.9974 543.793 98.9974H540.896C539.298 98.9974 538 97.6998 538 96.101V83.0673C538 81.4685 539.298 80.1709 540.896 80.1709H543.793C545.392 80.1709 546.689 81.4685 546.689 83.0673V96.101ZM590.135 96.101C590.135 97.6998 588.837 98.9974 587.238 98.9974H584.342C582.743 98.9974 581.446 97.6998 581.446 96.101V83.0673C581.446 81.4685 582.743 80.1709 584.342 80.1709H587.238C588.837 80.1709 590.135 81.4685 590.135 83.0673V96.101Z" fill="#31373D"/>
<path d="M565.779 71.5049L556.563 73.4064C555.911 73.5411 555.378 74.1942 555.378 74.8604V98.2993C554.454 97.9706 553.436 97.778 552.356 97.778C548.323 97.778 545.054 100.32 545.054 103.458C545.054 106.593 548.324 109 552.356 109C556.318 108.997 559.61 106.238 559.723 103.342V80.7357L565.811 79.4729C566.461 79.3382 566.964 78.6836 566.964 78.0189V72.4694C566.964 71.8061 566.431 71.3702 565.779 71.5049ZM577.365 76.0682L571.142 77.3208C570.49 77.4555 569.86 78.1087 569.86 78.7734V95.29C569.86 95.0699 568.589 94.9424 567.833 94.9424C564.902 94.9424 562.572 96.7903 562.572 99.0727C562.572 101.352 564.973 103.201 567.905 103.201C570.838 103.201 573.23 101.352 573.23 99.0727L573.21 82.7284L577.365 81.8624C578.016 81.7277 578.549 81.0746 578.549 80.4098V77.0355C578.549 76.3708 578.016 75.9349 577.365 76.0682Z" fill="#55ACEE"/>
<defs>
<linearGradient id="paint0_linear_134_1304" x1="86.5" y1="69" x2="86.5" y2="134" gradientUnits="userSpaceOnUse">
<stop stop-color="#F18F26"/>
<stop offset="0.6875" stop-color="#F18F26" stop-opacity="0.463542"/>
<stop offset="1" stop-color="#F18F26" stop-opacity="0"/>
</linearGradient>
</defs>
</svg>
