<svg width="836" height="218" viewBox="0 0 836 218" fill="none" xmlns="http://www.w3.org/2000/svg">
<rect width="800" height="218" rx="10" fill="white"/>
<path d="M159.88 80.04C159.693 79.8533 159.347 79.6 158.84 79.28C158.36 78.96 157.76 78.6533 157.04 78.36C156.347 78.0667 155.587 77.8133 154.76 77.6C153.933 77.36 153.093 77.24 152.24 77.24C150.747 77.24 149.613 77.52 148.84 78.08C148.093 78.64 147.72 79.4267 147.72 80.44C147.72 81.2133 147.96 81.8267 148.44 82.28C148.92 82.7333 149.64 83.12 150.6 83.44C151.56 83.76 152.76 84.1067 154.2 84.48C156.067 84.9333 157.68 85.4933 159.04 86.16C160.427 86.8 161.48 87.6533 162.2 88.72C162.947 89.76 163.32 91.1467 163.32 92.88C163.32 94.4 163.04 95.7067 162.48 96.8C161.92 97.8667 161.147 98.7333 160.16 99.4C159.173 100.067 158.053 100.56 156.8 100.88C155.547 101.173 154.213 101.32 152.8 101.32C151.387 101.32 149.973 101.173 148.56 100.88C147.147 100.587 145.787 100.173 144.48 99.64C143.173 99.08 141.973 98.4133 140.88 97.64L143.32 92.88C143.56 93.12 143.987 93.44 144.6 93.84C145.213 94.2133 145.96 94.6 146.84 95C147.72 95.3733 148.68 95.6933 149.72 95.96C150.76 96.2267 151.813 96.36 152.88 96.36C154.373 96.36 155.507 96.1067 156.28 95.6C157.053 95.0933 157.44 94.3733 157.44 93.44C157.44 92.5867 157.133 91.92 156.52 91.44C155.907 90.96 155.053 90.5467 153.96 90.2C152.867 89.8267 151.573 89.4267 150.08 89C148.293 88.4933 146.8 87.9333 145.6 87.32C144.4 86.68 143.507 85.88 142.92 84.92C142.333 83.96 142.04 82.76 142.04 81.32C142.04 79.3733 142.493 77.7467 143.4 76.44C144.333 75.1067 145.587 74.1067 147.16 73.44C148.733 72.7467 150.48 72.4 152.4 72.4C153.733 72.4 154.987 72.5467 156.16 72.84C157.36 73.1333 158.48 73.52 159.52 74C160.56 74.48 161.493 75 162.32 75.56L159.88 80.04ZM165.453 94.8C165.453 93.44 165.826 92.2533 166.573 91.24C167.346 90.2 168.413 89.4 169.773 88.84C171.133 88.28 172.693 88 174.453 88C175.333 88 176.226 88.0667 177.133 88.2C178.04 88.3333 178.826 88.5467 179.493 88.84V87.72C179.493 86.3867 179.093 85.36 178.293 84.64C177.52 83.92 176.36 83.56 174.813 83.56C173.666 83.56 172.573 83.76 171.533 84.16C170.493 84.56 169.4 85.1467 168.253 85.92L166.533 82.4C167.92 81.4933 169.333 80.8133 170.773 80.36C172.24 79.9067 173.773 79.68 175.373 79.68C178.36 79.68 180.68 80.4267 182.333 81.92C184.013 83.4133 184.853 85.5467 184.853 88.32V95C184.853 95.56 184.946 95.96 185.133 96.2C185.346 96.44 185.68 96.5867 186.133 96.64V101C185.653 101.08 185.213 101.147 184.813 101.2C184.44 101.253 184.12 101.28 183.853 101.28C182.786 101.28 181.973 101.04 181.413 100.56C180.88 100.08 180.546 99.4933 180.413 98.8L180.293 97.72C179.386 98.8933 178.253 99.8 176.893 100.44C175.533 101.08 174.146 101.4 172.733 101.4C171.346 101.4 170.093 101.12 168.973 100.56C167.88 99.9733 167.013 99.1867 166.373 98.2C165.76 97.1867 165.453 96.0533 165.453 94.8ZM178.493 95.88C178.786 95.56 179.026 95.24 179.213 94.92C179.4 94.6 179.493 94.3067 179.493 94.04V91.92C178.853 91.6533 178.16 91.4533 177.413 91.32C176.666 91.16 175.96 91.08 175.293 91.08C173.906 91.08 172.76 91.3867 171.853 92C170.973 92.5867 170.533 93.3733 170.533 94.36C170.533 94.8933 170.68 95.4 170.973 95.88C171.266 96.36 171.693 96.7467 172.253 97.04C172.813 97.3333 173.48 97.48 174.253 97.48C175.053 97.48 175.84 97.3333 176.613 97.04C177.386 96.72 178.013 96.3333 178.493 95.88ZM194.76 101L187.04 80.04H192.6L197.88 96.12L203.2 80.04H208.28L200.6 101H194.76ZM220.129 101.4C218.449 101.4 216.929 101.12 215.569 100.56C214.209 99.9733 213.049 99.1867 212.089 98.2C211.129 97.1867 210.382 96.04 209.849 94.76C209.342 93.4533 209.089 92.08 209.089 90.64C209.089 88.64 209.529 86.8133 210.409 85.16C211.315 83.5067 212.595 82.1867 214.249 81.2C215.929 80.1867 217.902 79.68 220.169 79.68C222.462 79.68 224.422 80.1867 226.049 81.2C227.675 82.1867 228.915 83.5067 229.769 85.16C230.649 86.7867 231.089 88.5467 231.089 90.44C231.089 90.76 231.075 91.0933 231.049 91.44C231.022 91.76 230.995 92.0267 230.969 92.24H214.769C214.875 93.3067 215.182 94.24 215.689 95.04C216.222 95.84 216.889 96.4533 217.689 96.88C218.515 97.28 219.395 97.48 220.329 97.48C221.395 97.48 222.395 97.2267 223.329 96.72C224.289 96.1867 224.942 95.4933 225.289 94.64L229.889 95.92C229.382 96.9867 228.649 97.9333 227.689 98.76C226.755 99.5867 225.649 100.24 224.369 100.72C223.089 101.173 221.675 101.4 220.129 101.4ZM214.649 88.84H225.609C225.502 87.7733 225.195 86.8533 224.689 86.08C224.209 85.28 223.569 84.6667 222.769 84.24C221.969 83.7867 221.075 83.56 220.089 83.56C219.129 83.56 218.249 83.7867 217.449 84.24C216.675 84.6667 216.035 85.28 215.529 86.08C215.049 86.8533 214.755 87.7733 214.649 88.84ZM242.523 94.8C242.523 93.44 242.897 92.2533 243.643 91.24C244.417 90.2 245.483 89.4 246.843 88.84C248.203 88.28 249.763 88 251.523 88C252.403 88 253.297 88.0667 254.203 88.2C255.11 88.3333 255.897 88.5467 256.563 88.84V87.72C256.563 86.3867 256.163 85.36 255.363 84.64C254.59 83.92 253.43 83.56 251.883 83.56C250.737 83.56 249.643 83.76 248.603 84.16C247.563 84.56 246.47 85.1467 245.323 85.92L243.603 82.4C244.99 81.4933 246.403 80.8133 247.843 80.36C249.31 79.9067 250.843 79.68 252.443 79.68C255.43 79.68 257.75 80.4267 259.403 81.92C261.083 83.4133 261.923 85.5467 261.923 88.32V95C261.923 95.56 262.017 95.96 262.203 96.2C262.417 96.44 262.75 96.5867 263.203 96.64V101C262.723 101.08 262.283 101.147 261.883 101.2C261.51 101.253 261.19 101.28 260.923 101.28C259.857 101.28 259.043 101.04 258.483 100.56C257.95 100.08 257.617 99.4933 257.483 98.8L257.363 97.72C256.457 98.8933 255.323 99.8 253.963 100.44C252.603 101.08 251.217 101.4 249.803 101.4C248.417 101.4 247.163 101.12 246.043 100.56C244.95 99.9733 244.083 99.1867 243.443 98.2C242.83 97.1867 242.523 96.0533 242.523 94.8ZM255.563 95.88C255.857 95.56 256.097 95.24 256.283 94.92C256.47 94.6 256.563 94.3067 256.563 94.04V91.92C255.923 91.6533 255.23 91.4533 254.483 91.32C253.737 91.16 253.03 91.08 252.363 91.08C250.977 91.08 249.83 91.3867 248.923 92C248.043 92.5867 247.603 93.3733 247.603 94.36C247.603 94.8933 247.75 95.4 248.043 95.88C248.337 96.36 248.763 96.7467 249.323 97.04C249.883 97.3333 250.55 97.48 251.323 97.48C252.123 97.48 252.91 97.3333 253.683 97.04C254.457 96.72 255.083 96.3333 255.563 95.88ZM286.412 101H281.052V89.24C281.052 87.56 280.759 86.3333 280.172 85.56C279.586 84.7867 278.772 84.4 277.732 84.4C277.012 84.4 276.279 84.5867 275.532 84.96C274.812 85.3333 274.159 85.8533 273.572 86.52C272.986 87.16 272.559 87.9067 272.292 88.76V101H266.932V80.04H271.772V83.92C272.306 83.0133 272.986 82.2533 273.812 81.64C274.639 81 275.586 80.52 276.652 80.2C277.746 79.8533 278.892 79.68 280.092 79.68C281.399 79.68 282.466 79.92 283.292 80.4C284.146 80.8533 284.786 81.48 285.212 82.28C285.666 83.0533 285.972 83.9333 286.132 84.92C286.319 85.9067 286.412 86.9067 286.412 87.92V101ZM289.793 90.52C289.793 88.4933 290.193 86.6667 290.993 85.04C291.793 83.3867 292.899 82.08 294.313 81.12C295.726 80.16 297.339 79.68 299.153 79.68C300.699 79.68 302.086 80.0667 303.313 80.84C304.566 81.5867 305.539 82.5467 306.233 83.72V71.8H311.593V95C311.593 95.56 311.686 95.96 311.873 96.2C312.059 96.44 312.379 96.5867 312.833 96.64V101C311.899 101.187 311.139 101.28 310.553 101.28C309.593 101.28 308.793 101.04 308.153 100.56C307.539 100.08 307.193 99.4533 307.113 98.68L307.033 97.36C306.259 98.6667 305.206 99.6667 303.873 100.36C302.566 101.053 301.193 101.4 299.753 101.4C298.313 101.4 296.979 101.12 295.753 100.56C294.553 100 293.499 99.2267 292.593 98.24C291.713 97.2533 291.019 96.1067 290.513 94.8C290.033 93.4667 289.793 92.04 289.793 90.52ZM306.233 93.32V88.32C305.966 87.5467 305.539 86.8533 304.953 86.24C304.366 85.6267 303.713 85.1467 302.993 84.8C302.273 84.4267 301.553 84.24 300.833 84.24C300.006 84.24 299.259 84.4133 298.593 84.76C297.926 85.1067 297.339 85.5733 296.833 86.16C296.353 86.7467 295.979 87.4267 295.713 88.2C295.473 88.9733 295.353 89.7867 295.353 90.64C295.353 91.4933 295.486 92.3067 295.753 93.08C296.046 93.8267 296.459 94.48 296.993 95.04C297.526 95.6 298.139 96.04 298.833 96.36C299.553 96.68 300.326 96.84 301.153 96.84C301.659 96.84 302.166 96.76 302.673 96.6C303.206 96.4133 303.699 96.1733 304.153 95.88C304.633 95.56 305.046 95.1867 305.393 94.76C305.766 94.3067 306.046 93.8267 306.233 93.32ZM338.943 84.68C337.317 84.68 335.863 85 334.583 85.64C333.303 86.2533 332.383 87.1467 331.823 88.32V101H326.463V80.04H331.383V84.52C332.13 83.08 333.077 81.9467 334.223 81.12C335.37 80.2933 336.583 79.84 337.863 79.76C338.157 79.76 338.383 79.76 338.543 79.76C338.703 79.76 338.837 79.7733 338.943 79.8V84.68ZM351.379 101.4C349.699 101.4 348.179 101.12 346.819 100.56C345.459 99.9733 344.299 99.1867 343.339 98.2C342.379 97.1867 341.632 96.04 341.099 94.76C340.592 93.4533 340.339 92.08 340.339 90.64C340.339 88.64 340.779 86.8133 341.659 85.16C342.565 83.5067 343.845 82.1867 345.499 81.2C347.179 80.1867 349.152 79.68 351.419 79.68C353.712 79.68 355.672 80.1867 357.299 81.2C358.925 82.1867 360.165 83.5067 361.019 85.16C361.899 86.7867 362.339 88.5467 362.339 90.44C362.339 90.76 362.325 91.0933 362.299 91.44C362.272 91.76 362.245 92.0267 362.219 92.24H346.019C346.125 93.3067 346.432 94.24 346.939 95.04C347.472 95.84 348.139 96.4533 348.939 96.88C349.765 97.28 350.645 97.48 351.579 97.48C352.645 97.48 353.645 97.2267 354.579 96.72C355.539 96.1867 356.192 95.4933 356.539 94.64L361.139 95.92C360.632 96.9867 359.899 97.9333 358.939 98.76C358.005 99.5867 356.899 100.24 355.619 100.72C354.339 101.173 352.925 101.4 351.379 101.4ZM345.899 88.84H356.859C356.752 87.7733 356.445 86.8533 355.939 86.08C355.459 85.28 354.819 84.6667 354.019 84.24C353.219 83.7867 352.325 83.56 351.339 83.56C350.379 83.56 349.499 83.7867 348.699 84.24C347.925 84.6667 347.285 85.28 346.779 86.08C346.299 86.8533 346.005 87.7733 345.899 88.84ZM370.658 101L362.938 80.04H368.498L373.778 96.12L379.098 80.04H384.178L376.498 101H370.658ZM387.01 101V80.04H392.37V101H387.01ZM387.01 77.12V71.8H392.37V77.12H387.01ZM406.926 101.4C405.246 101.4 403.726 101.12 402.366 100.56C401.006 99.9733 399.846 99.1867 398.886 98.2C397.926 97.1867 397.179 96.04 396.646 94.76C396.139 93.4533 395.886 92.08 395.886 90.64C395.886 88.64 396.326 86.8133 397.206 85.16C398.112 83.5067 399.392 82.1867 401.046 81.2C402.726 80.1867 404.699 79.68 406.966 79.68C409.259 79.68 411.219 80.1867 412.846 81.2C414.472 82.1867 415.712 83.5067 416.566 85.16C417.446 86.7867 417.886 88.5467 417.886 90.44C417.886 90.76 417.872 91.0933 417.846 91.44C417.819 91.76 417.792 92.0267 417.766 92.24H401.566C401.672 93.3067 401.979 94.24 402.486 95.04C403.019 95.84 403.686 96.4533 404.486 96.88C405.312 97.28 406.192 97.48 407.126 97.48C408.192 97.48 409.192 97.2267 410.126 96.72C411.086 96.1867 411.739 95.4933 412.086 94.64L416.686 95.92C416.179 96.9867 415.446 97.9333 414.486 98.76C413.552 99.5867 412.446 100.24 411.166 100.72C409.886 101.173 408.472 101.4 406.926 101.4ZM401.446 88.84H412.406C412.299 87.7733 411.992 86.8533 411.486 86.08C411.006 85.28 410.366 84.6667 409.566 84.24C408.766 83.7867 407.872 83.56 406.886 83.56C405.926 83.56 405.046 83.7867 404.246 84.24C403.472 84.6667 402.832 85.28 402.326 86.08C401.846 86.8533 401.552 87.7733 401.446 88.84ZM446.565 80.04H451.645L442.885 101H438.405L434.885 92L431.445 101H426.925L418.205 80.04H423.245L429.485 95.88L431.925 89.04L428.285 80.08H432.725L434.885 86.48L437.085 80.08H441.525L437.885 89.04L440.365 95.88L446.565 80.04ZM455.16 90.32V72.32H460.52V90.32H455.16ZM455.16 101V94.96H460.52V101H455.16Z" fill="#FCA908"/>
<path d="M147 121.28H142.08V120H153.4V121.28H148.48V134H147V121.28ZM160.824 123.4C162.144 123.4 163.191 123.787 163.964 124.56C164.751 125.32 165.144 126.433 165.144 127.9V134H163.724V128.04C163.724 126.947 163.451 126.113 162.904 125.54C162.358 124.967 161.578 124.68 160.564 124.68C159.431 124.68 158.531 125.02 157.864 125.7C157.211 126.367 156.884 127.293 156.884 128.48V134H155.464V119.16H156.884V125.32C157.271 124.707 157.804 124.233 158.484 123.9C159.164 123.567 159.944 123.4 160.824 123.4ZM178.199 129.18H169.399C169.479 130.273 169.899 131.16 170.659 131.84C171.419 132.507 172.379 132.84 173.539 132.84C174.192 132.84 174.792 132.727 175.339 132.5C175.885 132.26 176.359 131.913 176.759 131.46L177.559 132.38C177.092 132.94 176.505 133.367 175.799 133.66C175.105 133.953 174.339 134.1 173.499 134.1C172.419 134.1 171.459 133.873 170.619 133.42C169.792 132.953 169.145 132.313 168.679 131.5C168.212 130.687 167.979 129.767 167.979 128.74C167.979 127.713 168.199 126.793 168.639 125.98C169.092 125.167 169.705 124.533 170.479 124.08C171.265 123.627 172.145 123.4 173.119 123.4C174.092 123.4 174.965 123.627 175.739 124.08C176.512 124.533 177.119 125.167 177.559 125.98C177.999 126.78 178.219 127.7 178.219 128.74L178.199 129.18ZM173.119 124.62C172.105 124.62 171.252 124.947 170.559 125.6C169.879 126.24 169.492 127.08 169.399 128.12H176.859C176.765 127.08 176.372 126.24 175.679 125.6C174.999 124.947 174.145 124.62 173.119 124.62ZM191.763 123.4C192.75 123.4 193.643 123.627 194.443 124.08C195.243 124.52 195.87 125.147 196.323 125.96C196.777 126.773 197.003 127.7 197.003 128.74C197.003 129.793 196.777 130.727 196.323 131.54C195.87 132.353 195.243 132.987 194.443 133.44C193.657 133.88 192.763 134.1 191.763 134.1C190.91 134.1 190.137 133.927 189.443 133.58C188.763 133.22 188.203 132.7 187.763 132.02V137.88H186.343V123.48H187.703V125.56C188.13 124.867 188.69 124.333 189.383 123.96C190.09 123.587 190.883 123.4 191.763 123.4ZM191.663 132.84C192.397 132.84 193.063 132.673 193.663 132.34C194.263 131.993 194.73 131.507 195.063 130.88C195.41 130.253 195.583 129.54 195.583 128.74C195.583 127.94 195.41 127.233 195.063 126.62C194.73 125.993 194.263 125.507 193.663 125.16C193.063 124.813 192.397 124.64 191.663 124.64C190.917 124.64 190.243 124.813 189.643 125.16C189.057 125.507 188.59 125.993 188.243 126.62C187.91 127.233 187.743 127.94 187.743 128.74C187.743 129.54 187.91 130.253 188.243 130.88C188.59 131.507 189.057 131.993 189.643 132.34C190.243 132.673 190.917 132.84 191.663 132.84ZM199.898 119.16H201.318V134H199.898V119.16ZM208.949 123.4C210.322 123.4 211.376 123.747 212.109 124.44C212.842 125.12 213.209 126.133 213.209 127.48V134H211.849V132.36C211.529 132.907 211.056 133.333 210.429 133.64C209.816 133.947 209.082 134.1 208.229 134.1C207.056 134.1 206.122 133.82 205.429 133.26C204.736 132.7 204.389 131.96 204.389 131.04C204.389 130.147 204.709 129.427 205.349 128.88C206.002 128.333 207.036 128.06 208.449 128.06H211.789V127.42C211.789 126.513 211.536 125.827 211.029 125.36C210.522 124.88 209.782 124.64 208.809 124.64C208.142 124.64 207.502 124.753 206.889 124.98C206.276 125.193 205.749 125.493 205.309 125.88L204.669 124.82C205.202 124.367 205.842 124.02 206.589 123.78C207.336 123.527 208.122 123.4 208.949 123.4ZM208.449 132.98C209.249 132.98 209.936 132.8 210.509 132.44C211.082 132.067 211.509 131.533 211.789 130.84V129.12H208.489C206.689 129.12 205.789 129.747 205.789 131C205.789 131.613 206.022 132.1 206.489 132.46C206.956 132.807 207.609 132.98 208.449 132.98ZM225.711 123.48L220.451 135.26C220.024 136.247 219.531 136.947 218.971 137.36C218.411 137.773 217.737 137.98 216.951 137.98C216.444 137.98 215.971 137.9 215.531 137.74C215.091 137.58 214.711 137.34 214.391 137.02L215.051 135.96C215.584 136.493 216.224 136.76 216.971 136.76C217.451 136.76 217.857 136.627 218.191 136.36C218.537 136.093 218.857 135.64 219.151 135L219.611 133.98L214.911 123.48H216.391L220.351 132.42L224.311 123.48H225.711ZM227.71 119.16H229.13V134H227.71V119.16ZM233.082 123.48H234.502V134H233.082V123.48ZM233.802 121.18C233.508 121.18 233.262 121.08 233.062 120.88C232.862 120.68 232.762 120.44 232.762 120.16C232.762 119.893 232.862 119.66 233.062 119.46C233.262 119.26 233.508 119.16 233.802 119.16C234.095 119.16 234.342 119.26 234.542 119.46C234.742 119.647 234.842 119.873 234.842 120.14C234.842 120.433 234.742 120.68 234.542 120.88C234.342 121.08 234.095 121.18 233.802 121.18ZM241.273 134.1C240.419 134.1 239.599 133.98 238.813 133.74C238.039 133.487 237.433 133.173 236.993 132.8L237.633 131.68C238.073 132.027 238.626 132.313 239.293 132.54C239.959 132.753 240.653 132.86 241.373 132.86C242.333 132.86 243.039 132.713 243.493 132.42C243.959 132.113 244.193 131.687 244.193 131.14C244.193 130.753 244.066 130.453 243.813 130.24C243.559 130.013 243.239 129.847 242.853 129.74C242.466 129.62 241.953 129.507 241.313 129.4C240.459 129.24 239.773 129.08 239.253 128.92C238.733 128.747 238.286 128.46 237.913 128.06C237.553 127.66 237.373 127.107 237.373 126.4C237.373 125.52 237.739 124.8 238.473 124.24C239.206 123.68 240.226 123.4 241.533 123.4C242.213 123.4 242.893 123.493 243.573 123.68C244.253 123.853 244.813 124.087 245.253 124.38L244.633 125.52C243.766 124.92 242.733 124.62 241.533 124.62C240.626 124.62 239.939 124.78 239.473 125.1C239.019 125.42 238.793 125.84 238.793 126.36C238.793 126.76 238.919 127.08 239.173 127.32C239.439 127.56 239.766 127.74 240.153 127.86C240.539 127.967 241.073 128.08 241.753 128.2C242.593 128.36 243.266 128.52 243.773 128.68C244.279 128.84 244.713 129.113 245.073 129.5C245.433 129.887 245.613 130.42 245.613 131.1C245.613 132.02 245.226 132.753 244.453 133.3C243.693 133.833 242.633 134.1 241.273 134.1ZM253.778 133.36C253.511 133.6 253.178 133.787 252.778 133.92C252.391 134.04 251.984 134.1 251.558 134.1C250.571 134.1 249.811 133.833 249.278 133.3C248.744 132.767 248.478 132.013 248.478 131.04V124.68H246.598V123.48H248.478V121.18H249.898V123.48H253.098V124.68H249.898V130.96C249.898 131.587 250.051 132.067 250.358 132.4C250.678 132.72 251.131 132.88 251.718 132.88C252.011 132.88 252.291 132.833 252.558 132.74C252.838 132.647 253.078 132.513 253.278 132.34L253.778 133.36ZM261.597 123.48H263.017V134H261.597V123.48ZM262.317 121.18C262.024 121.18 261.777 121.08 261.577 120.88C261.377 120.68 261.277 120.44 261.277 120.16C261.277 119.893 261.377 119.66 261.577 119.46C261.777 119.26 262.024 119.16 262.317 119.16C262.611 119.16 262.857 119.26 263.057 119.46C263.257 119.647 263.357 119.873 263.357 120.14C263.357 120.433 263.257 120.68 263.057 120.88C262.857 121.08 262.611 121.18 262.317 121.18ZM269.788 134.1C268.935 134.1 268.115 133.98 267.328 133.74C266.555 133.487 265.948 133.173 265.508 132.8L266.148 131.68C266.588 132.027 267.142 132.313 267.808 132.54C268.475 132.753 269.168 132.86 269.888 132.86C270.848 132.86 271.555 132.713 272.008 132.42C272.475 132.113 272.708 131.687 272.708 131.14C272.708 130.753 272.582 130.453 272.328 130.24C272.075 130.013 271.755 129.847 271.368 129.74C270.982 129.62 270.468 129.507 269.828 129.4C268.975 129.24 268.288 129.08 267.768 128.92C267.248 128.747 266.802 128.46 266.428 128.06C266.068 127.66 265.888 127.107 265.888 126.4C265.888 125.52 266.255 124.8 266.988 124.24C267.722 123.68 268.742 123.4 270.048 123.4C270.728 123.4 271.408 123.493 272.088 123.68C272.768 123.853 273.328 124.087 273.768 124.38L273.148 125.52C272.282 124.92 271.248 124.62 270.048 124.62C269.142 124.62 268.455 124.78 267.988 125.1C267.535 125.42 267.308 125.84 267.308 126.36C267.308 126.76 267.435 127.08 267.688 127.32C267.955 127.56 268.282 127.74 268.668 127.86C269.055 127.967 269.588 128.08 270.268 128.2C271.108 128.36 271.782 128.52 272.288 128.68C272.795 128.84 273.228 129.113 273.588 129.5C273.948 129.887 274.128 130.42 274.128 131.1C274.128 132.02 273.742 132.753 272.968 133.3C272.208 133.833 271.148 134.1 269.788 134.1ZM285.668 123.4C287.041 123.4 288.094 123.747 288.828 124.44C289.561 125.12 289.928 126.133 289.928 127.48V134H288.568V132.36C288.248 132.907 287.774 133.333 287.148 133.64C286.534 133.947 285.801 134.1 284.948 134.1C283.774 134.1 282.841 133.82 282.148 133.26C281.454 132.7 281.108 131.96 281.108 131.04C281.108 130.147 281.428 129.427 282.068 128.88C282.721 128.333 283.754 128.06 285.168 128.06H288.508V127.42C288.508 126.513 288.254 125.827 287.748 125.36C287.241 124.88 286.501 124.64 285.528 124.64C284.861 124.64 284.221 124.753 283.608 124.98C282.994 125.193 282.468 125.493 282.028 125.88L281.388 124.82C281.921 124.367 282.561 124.02 283.308 123.78C284.054 123.527 284.841 123.4 285.668 123.4ZM285.168 132.98C285.968 132.98 286.654 132.8 287.228 132.44C287.801 132.067 288.228 131.533 288.508 130.84V129.12H285.208C283.408 129.12 282.508 129.747 282.508 131C282.508 131.613 282.741 132.1 283.208 132.46C283.674 132.807 284.328 132.98 285.168 132.98ZM303.265 123.48V134H301.905V132.08C301.531 132.72 301.018 133.22 300.365 133.58C299.711 133.927 298.965 134.1 298.125 134.1C296.751 134.1 295.665 133.72 294.865 132.96C294.078 132.187 293.685 131.06 293.685 129.58V123.48H295.105V129.44C295.105 130.547 295.378 131.387 295.925 131.96C296.471 132.533 297.251 132.82 298.265 132.82C299.371 132.82 300.245 132.487 300.885 131.82C301.525 131.14 301.845 130.2 301.845 129V123.48H303.265ZM312.782 133.36C312.515 133.6 312.182 133.787 311.782 133.92C311.395 134.04 310.988 134.1 310.562 134.1C309.575 134.1 308.815 133.833 308.282 133.3C307.748 132.767 307.482 132.013 307.482 131.04V124.68H305.602V123.48H307.482V121.18H308.902V123.48H312.102V124.68H308.902V130.96C308.902 131.587 309.055 132.067 309.362 132.4C309.682 132.72 310.135 132.88 310.722 132.88C311.015 132.88 311.295 132.833 311.562 132.74C311.842 132.647 312.082 132.513 312.282 132.34L312.782 133.36ZM319.296 134.1C318.282 134.1 317.369 133.873 316.556 133.42C315.742 132.953 315.102 132.313 314.636 131.5C314.169 130.687 313.936 129.767 313.936 128.74C313.936 127.713 314.169 126.793 314.636 125.98C315.102 125.167 315.742 124.533 316.556 124.08C317.369 123.627 318.282 123.4 319.296 123.4C320.309 123.4 321.222 123.627 322.036 124.08C322.849 124.533 323.482 125.167 323.936 125.98C324.402 126.793 324.636 127.713 324.636 128.74C324.636 129.767 324.402 130.687 323.936 131.5C323.482 132.313 322.849 132.953 322.036 133.42C321.222 133.873 320.309 134.1 319.296 134.1ZM319.296 132.84C320.042 132.84 320.709 132.673 321.296 132.34C321.896 131.993 322.362 131.507 322.696 130.88C323.029 130.253 323.196 129.54 323.196 128.74C323.196 127.94 323.029 127.227 322.696 126.6C322.362 125.973 321.896 125.493 321.296 125.16C320.709 124.813 320.042 124.64 319.296 124.64C318.549 124.64 317.876 124.813 317.276 125.16C316.689 125.493 316.222 125.973 315.876 126.6C315.542 127.227 315.376 127.94 315.376 128.74C315.376 129.54 315.542 130.253 315.876 130.88C316.222 131.507 316.689 131.993 317.276 132.34C317.876 132.673 318.549 132.84 319.296 132.84ZM340.655 123.4C341.975 123.4 343.008 123.78 343.755 124.54C344.515 125.3 344.895 126.42 344.895 127.9V134H343.475V128.04C343.475 126.947 343.208 126.113 342.675 125.54C342.155 124.967 341.415 124.68 340.455 124.68C339.361 124.68 338.501 125.02 337.875 125.7C337.248 126.367 336.935 127.293 336.935 128.48V134H335.515V128.04C335.515 126.947 335.248 126.113 334.715 125.54C334.195 124.967 333.448 124.68 332.475 124.68C331.395 124.68 330.535 125.02 329.895 125.7C329.268 126.367 328.955 127.293 328.955 128.48V134H327.535V123.48H328.895V125.4C329.268 124.76 329.788 124.267 330.455 123.92C331.121 123.573 331.888 123.4 332.755 123.4C333.635 123.4 334.395 123.587 335.035 123.96C335.688 124.333 336.175 124.887 336.495 125.62C336.881 124.927 337.435 124.387 338.155 124C338.888 123.6 339.721 123.4 340.655 123.4ZM352.426 123.4C353.799 123.4 354.852 123.747 355.586 124.44C356.319 125.12 356.686 126.133 356.686 127.48V134H355.326V132.36C355.006 132.907 354.532 133.333 353.906 133.64C353.292 133.947 352.559 134.1 351.706 134.1C350.532 134.1 349.599 133.82 348.906 133.26C348.212 132.7 347.866 131.96 347.866 131.04C347.866 130.147 348.186 129.427 348.826 128.88C349.479 128.333 350.512 128.06 351.926 128.06H355.266V127.42C355.266 126.513 355.012 125.827 354.506 125.36C353.999 124.88 353.259 124.64 352.286 124.64C351.619 124.64 350.979 124.753 350.366 124.98C349.752 125.193 349.226 125.493 348.786 125.88L348.146 124.82C348.679 124.367 349.319 124.02 350.066 123.78C350.812 123.527 351.599 123.4 352.426 123.4ZM351.926 132.98C352.726 132.98 353.412 132.8 353.986 132.44C354.559 132.067 354.986 131.533 355.266 130.84V129.12H351.966C350.166 129.12 349.266 129.747 349.266 131C349.266 131.613 349.499 132.1 349.966 132.46C350.432 132.807 351.086 132.98 351.926 132.98ZM366.083 133.36C365.816 133.6 365.483 133.787 365.083 133.92C364.696 134.04 364.289 134.1 363.863 134.1C362.876 134.1 362.116 133.833 361.583 133.3C361.049 132.767 360.783 132.013 360.783 131.04V124.68H358.903V123.48H360.783V121.18H362.203V123.48H365.403V124.68H362.203V130.96C362.203 131.587 362.356 132.067 362.663 132.4C362.983 132.72 363.436 132.88 364.023 132.88C364.316 132.88 364.596 132.833 364.863 132.74C365.143 132.647 365.383 132.513 365.583 132.34L366.083 133.36ZM368.668 123.48H370.088V134H368.668V123.48ZM369.388 121.18C369.094 121.18 368.848 121.08 368.648 120.88C368.448 120.68 368.348 120.44 368.348 120.16C368.348 119.893 368.448 119.66 368.648 119.46C368.848 119.26 369.094 119.16 369.388 119.16C369.681 119.16 369.928 119.26 370.128 119.46C370.328 119.647 370.428 119.873 370.428 120.14C370.428 120.433 370.328 120.68 370.128 120.88C369.928 121.08 369.681 121.18 369.388 121.18ZM378.399 134.1C377.359 134.1 376.425 133.873 375.599 133.42C374.785 132.967 374.145 132.333 373.679 131.52C373.212 130.693 372.979 129.767 372.979 128.74C372.979 127.713 373.212 126.793 373.679 125.98C374.145 125.167 374.785 124.533 375.599 124.08C376.425 123.627 377.359 123.4 378.399 123.4C379.305 123.4 380.112 123.58 380.819 123.94C381.539 124.287 382.105 124.8 382.519 125.48L381.459 126.2C381.112 125.68 380.672 125.293 380.139 125.04C379.605 124.773 379.025 124.64 378.399 124.64C377.639 124.64 376.952 124.813 376.339 125.16C375.739 125.493 375.265 125.973 374.919 126.6C374.585 127.227 374.419 127.94 374.419 128.74C374.419 129.553 374.585 130.273 374.919 130.9C375.265 131.513 375.739 131.993 376.339 132.34C376.952 132.673 377.639 132.84 378.399 132.84C379.025 132.84 379.605 132.713 380.139 132.46C380.672 132.207 381.112 131.82 381.459 131.3L382.519 132.02C382.105 132.7 381.539 133.22 380.819 133.58C380.099 133.927 379.292 134.1 378.399 134.1ZM388.988 123.4C390.361 123.4 391.415 123.747 392.148 124.44C392.881 125.12 393.248 126.133 393.248 127.48V134H391.888V132.36C391.568 132.907 391.095 133.333 390.468 133.64C389.855 133.947 389.121 134.1 388.268 134.1C387.095 134.1 386.161 133.82 385.468 133.26C384.775 132.7 384.428 131.96 384.428 131.04C384.428 130.147 384.748 129.427 385.388 128.88C386.041 128.333 387.075 128.06 388.488 128.06H391.828V127.42C391.828 126.513 391.575 125.827 391.068 125.36C390.561 124.88 389.821 124.64 388.848 124.64C388.181 124.64 387.541 124.753 386.928 124.98C386.315 125.193 385.788 125.493 385.348 125.88L384.708 124.82C385.241 124.367 385.881 124.02 386.628 123.78C387.375 123.527 388.161 123.4 388.988 123.4ZM388.488 132.98C389.288 132.98 389.975 132.8 390.548 132.44C391.121 132.067 391.548 131.533 391.828 130.84V129.12H388.528C386.728 129.12 385.828 129.747 385.828 131C385.828 131.613 386.061 132.1 386.528 132.46C386.995 132.807 387.648 132.98 388.488 132.98ZM397.105 119.16H398.525V134H397.105V119.16ZM402.476 119.16H403.896V134H402.476V119.16ZM416.687 123.48L411.427 135.26C411.001 136.247 410.507 136.947 409.947 137.36C409.387 137.773 408.714 137.98 407.927 137.98C407.421 137.98 406.947 137.9 406.507 137.74C406.067 137.58 405.687 137.34 405.367 137.02L406.027 135.96C406.561 136.493 407.201 136.76 407.947 136.76C408.427 136.76 408.834 136.627 409.167 136.36C409.514 136.093 409.834 135.64 410.127 135L410.587 133.98L405.887 123.48H407.367L411.327 132.42L415.287 123.48H416.687ZM426.741 134.1C425.888 134.1 425.068 133.98 424.281 133.74C423.508 133.487 422.901 133.173 422.461 132.8L423.101 131.68C423.541 132.027 424.095 132.313 424.761 132.54C425.428 132.753 426.121 132.86 426.841 132.86C427.801 132.86 428.508 132.713 428.961 132.42C429.428 132.113 429.661 131.687 429.661 131.14C429.661 130.753 429.535 130.453 429.281 130.24C429.028 130.013 428.708 129.847 428.321 129.74C427.935 129.62 427.421 129.507 426.781 129.4C425.928 129.24 425.241 129.08 424.721 128.92C424.201 128.747 423.755 128.46 423.381 128.06C423.021 127.66 422.841 127.107 422.841 126.4C422.841 125.52 423.208 124.8 423.941 124.24C424.675 123.68 425.695 123.4 427.001 123.4C427.681 123.4 428.361 123.493 429.041 123.68C429.721 123.853 430.281 124.087 430.721 124.38L430.101 125.52C429.235 124.92 428.201 124.62 427.001 124.62C426.095 124.62 425.408 124.78 424.941 125.1C424.488 125.42 424.261 125.84 424.261 126.36C424.261 126.76 424.388 127.08 424.641 127.32C424.908 127.56 425.235 127.74 425.621 127.86C426.008 127.967 426.541 128.08 427.221 128.2C428.061 128.36 428.735 128.52 429.241 128.68C429.748 128.84 430.181 129.113 430.541 129.5C430.901 129.887 431.081 130.42 431.081 131.1C431.081 132.02 430.695 132.753 429.921 133.3C429.161 133.833 428.101 134.1 426.741 134.1ZM437.387 123.4C438.76 123.4 439.813 123.747 440.547 124.44C441.28 125.12 441.647 126.133 441.647 127.48V134H440.287V132.36C439.967 132.907 439.493 133.333 438.867 133.64C438.253 133.947 437.52 134.1 436.667 134.1C435.493 134.1 434.56 133.82 433.867 133.26C433.173 132.7 432.827 131.96 432.827 131.04C432.827 130.147 433.147 129.427 433.787 128.88C434.44 128.333 435.473 128.06 436.887 128.06H440.227V127.42C440.227 126.513 439.973 125.827 439.467 125.36C438.96 124.88 438.22 124.64 437.247 124.64C436.58 124.64 435.94 124.753 435.327 124.98C434.713 125.193 434.187 125.493 433.747 125.88L433.107 124.82C433.64 124.367 434.28 124.02 435.027 123.78C435.773 123.527 436.56 123.4 437.387 123.4ZM436.887 132.98C437.687 132.98 438.373 132.8 438.947 132.44C439.52 132.067 439.947 131.533 440.227 130.84V129.12H436.927C435.127 129.12 434.227 129.747 434.227 131C434.227 131.613 434.46 132.1 434.927 132.46C435.393 132.807 436.047 132.98 436.887 132.98ZM454.148 123.48L449.468 134H448.008L443.348 123.48H444.828L448.768 132.44L452.748 123.48H454.148ZM465.015 129.18H456.215C456.295 130.273 456.715 131.16 457.475 131.84C458.235 132.507 459.195 132.84 460.355 132.84C461.008 132.84 461.608 132.727 462.155 132.5C462.702 132.26 463.175 131.913 463.575 131.46L464.375 132.38C463.908 132.94 463.322 133.367 462.615 133.66C461.922 133.953 461.155 134.1 460.315 134.1C459.235 134.1 458.275 133.873 457.435 133.42C456.608 132.953 455.962 132.313 455.495 131.5C455.028 130.687 454.795 129.767 454.795 128.74C454.795 127.713 455.015 126.793 455.455 125.98C455.908 125.167 456.522 124.533 457.295 124.08C458.082 123.627 458.962 123.4 459.935 123.4C460.908 123.4 461.782 123.627 462.555 124.08C463.328 124.533 463.935 125.167 464.375 125.98C464.815 126.78 465.035 127.7 465.035 128.74L465.015 129.18ZM459.935 124.62C458.922 124.62 458.068 124.947 457.375 125.6C456.695 126.24 456.308 127.08 456.215 128.12H463.675C463.582 127.08 463.188 126.24 462.495 125.6C461.815 124.947 460.962 124.62 459.935 124.62ZM477.525 119.16V134H476.165V131.92C475.739 132.627 475.172 133.167 474.465 133.54C473.772 133.913 472.985 134.1 472.105 134.1C471.119 134.1 470.225 133.873 469.425 133.42C468.625 132.967 467.999 132.333 467.545 131.52C467.092 130.707 466.865 129.78 466.865 128.74C466.865 127.7 467.092 126.773 467.545 125.96C467.999 125.147 468.625 124.52 469.425 124.08C470.225 123.627 471.119 123.4 472.105 123.4C472.959 123.4 473.725 123.58 474.405 123.94C475.099 124.287 475.665 124.8 476.105 125.48V119.16H477.525ZM472.225 132.84C472.959 132.84 473.619 132.673 474.205 132.34C474.805 131.993 475.272 131.507 475.605 130.88C475.952 130.253 476.125 129.54 476.125 128.74C476.125 127.94 475.952 127.227 475.605 126.6C475.272 125.973 474.805 125.493 474.205 125.16C473.619 124.813 472.959 124.64 472.225 124.64C471.479 124.64 470.805 124.813 470.205 125.16C469.619 125.493 469.152 125.973 468.805 126.6C468.472 127.227 468.305 127.94 468.305 128.74C468.305 129.54 468.472 130.253 468.805 130.88C469.152 131.507 469.619 131.993 470.205 132.34C470.805 132.673 471.479 132.84 472.225 132.84ZM492.254 133.36C491.988 133.6 491.654 133.787 491.254 133.92C490.868 134.04 490.461 134.1 490.034 134.1C489.048 134.1 488.288 133.833 487.754 133.3C487.221 132.767 486.954 132.013 486.954 131.04V124.68H485.074V123.48H486.954V121.18H488.374V123.48H491.574V124.68H488.374V130.96C488.374 131.587 488.528 132.067 488.834 132.4C489.154 132.72 489.608 132.88 490.194 132.88C490.488 132.88 490.768 132.833 491.034 132.74C491.314 132.647 491.554 132.513 491.754 132.34L492.254 133.36ZM498.768 134.1C497.755 134.1 496.842 133.873 496.028 133.42C495.215 132.953 494.575 132.313 494.108 131.5C493.642 130.687 493.408 129.767 493.408 128.74C493.408 127.713 493.642 126.793 494.108 125.98C494.575 125.167 495.215 124.533 496.028 124.08C496.842 123.627 497.755 123.4 498.768 123.4C499.782 123.4 500.695 123.627 501.508 124.08C502.322 124.533 502.955 125.167 503.408 125.98C503.875 126.793 504.108 127.713 504.108 128.74C504.108 129.767 503.875 130.687 503.408 131.5C502.955 132.313 502.322 132.953 501.508 133.42C500.695 133.873 499.782 134.1 498.768 134.1ZM498.768 132.84C499.515 132.84 500.182 132.673 500.768 132.34C501.368 131.993 501.835 131.507 502.168 130.88C502.502 130.253 502.668 129.54 502.668 128.74C502.668 127.94 502.502 127.227 502.168 126.6C501.835 125.973 501.368 125.493 500.768 125.16C500.182 124.813 499.515 124.64 498.768 124.64C498.022 124.64 497.348 124.813 496.748 125.16C496.162 125.493 495.695 125.973 495.348 126.6C495.015 127.227 494.848 127.94 494.848 128.74C494.848 129.54 495.015 130.253 495.348 130.88C495.695 131.507 496.162 131.993 496.748 132.34C497.348 132.673 498.022 132.84 498.768 132.84ZM521.082 123.48L515.822 135.26C515.395 136.247 514.902 136.947 514.342 137.36C513.782 137.773 513.108 137.98 512.322 137.98C511.815 137.98 511.342 137.9 510.902 137.74C510.462 137.58 510.082 137.34 509.762 137.02L510.422 135.96C510.955 136.493 511.595 136.76 512.342 136.76C512.822 136.76 513.228 136.627 513.562 136.36C513.908 136.093 514.228 135.64 514.522 135L514.982 133.98L510.282 123.48H511.762L515.722 132.42L519.682 123.48H521.082ZM527.089 134.1C526.075 134.1 525.162 133.873 524.349 133.42C523.535 132.953 522.895 132.313 522.429 131.5C521.962 130.687 521.729 129.767 521.729 128.74C521.729 127.713 521.962 126.793 522.429 125.98C522.895 125.167 523.535 124.533 524.349 124.08C525.162 123.627 526.075 123.4 527.089 123.4C528.102 123.4 529.015 123.627 529.829 124.08C530.642 124.533 531.275 125.167 531.729 125.98C532.195 126.793 532.429 127.713 532.429 128.74C532.429 129.767 532.195 130.687 531.729 131.5C531.275 132.313 530.642 132.953 529.829 133.42C529.015 133.873 528.102 134.1 527.089 134.1ZM527.089 132.84C527.835 132.84 528.502 132.673 529.089 132.34C529.689 131.993 530.155 131.507 530.489 130.88C530.822 130.253 530.989 129.54 530.989 128.74C530.989 127.94 530.822 127.227 530.489 126.6C530.155 125.973 529.689 125.493 529.089 125.16C528.502 124.813 527.835 124.64 527.089 124.64C526.342 124.64 525.669 124.813 525.069 125.16C524.482 125.493 524.015 125.973 523.669 126.6C523.335 127.227 523.169 127.94 523.169 128.74C523.169 129.54 523.335 130.253 523.669 130.88C524.015 131.507 524.482 131.993 525.069 132.34C525.669 132.673 526.342 132.84 527.089 132.84ZM544.808 123.48V134H543.448V132.08C543.074 132.72 542.561 133.22 541.908 133.58C541.254 133.927 540.508 134.1 539.668 134.1C538.294 134.1 537.208 133.72 536.408 132.96C535.621 132.187 535.228 131.06 535.228 129.58V123.48H536.648V129.44C536.648 130.547 536.921 131.387 537.468 131.96C538.014 132.533 538.794 132.82 539.808 132.82C540.914 132.82 541.788 132.487 542.428 131.82C543.068 131.14 543.388 130.2 543.388 129V123.48H544.808ZM550.145 125.54C550.478 124.833 550.971 124.3 551.625 123.94C552.291 123.58 553.111 123.4 554.085 123.4V124.78L553.745 124.76C552.638 124.76 551.771 125.1 551.145 125.78C550.518 126.46 550.205 127.413 550.205 128.64V134H548.785V123.48H550.145V125.54ZM148.14 158.12C147.1 158.12 146.1 157.953 145.14 157.62C144.193 157.287 143.46 156.847 142.94 156.3L143.52 155.16C144.027 155.667 144.7 156.08 145.54 156.4C146.38 156.707 147.247 156.86 148.14 156.86C149.393 156.86 150.333 156.633 150.96 156.18C151.587 155.713 151.9 155.113 151.9 154.38C151.9 153.82 151.727 153.373 151.38 153.04C151.047 152.707 150.633 152.453 150.14 152.28C149.647 152.093 148.96 151.893 148.08 151.68C147.027 151.413 146.187 151.16 145.56 150.92C144.933 150.667 144.393 150.287 143.94 149.78C143.5 149.273 143.28 148.587 143.28 147.72C143.28 147.013 143.467 146.373 143.84 145.8C144.213 145.213 144.787 144.747 145.56 144.4C146.333 144.053 147.293 143.88 148.44 143.88C149.24 143.88 150.02 143.993 150.78 144.22C151.553 144.433 152.22 144.733 152.78 145.12L152.28 146.3C151.693 145.913 151.067 145.627 150.4 145.44C149.733 145.24 149.08 145.14 148.44 145.14C147.213 145.14 146.287 145.38 145.66 145.86C145.047 146.327 144.74 146.933 144.74 147.68C144.74 148.24 144.907 148.693 145.24 149.04C145.587 149.373 146.013 149.633 146.52 149.82C147.04 149.993 147.733 150.187 148.6 150.4C149.627 150.653 150.453 150.907 151.08 151.16C151.72 151.4 152.26 151.773 152.7 152.28C153.14 152.773 153.36 153.447 153.36 154.3C153.36 155.007 153.167 155.653 152.78 156.24C152.407 156.813 151.827 157.273 151.04 157.62C150.253 157.953 149.287 158.12 148.14 158.12ZM161.705 147.4C162.691 147.4 163.585 147.627 164.385 148.08C165.185 148.52 165.811 149.147 166.265 149.96C166.718 150.773 166.945 151.7 166.945 152.74C166.945 153.793 166.718 154.727 166.265 155.54C165.811 156.353 165.185 156.987 164.385 157.44C163.598 157.88 162.705 158.1 161.705 158.1C160.851 158.1 160.078 157.927 159.385 157.58C158.705 157.22 158.145 156.7 157.705 156.02V161.88H156.285V147.48H157.645V149.56C158.071 148.867 158.631 148.333 159.325 147.96C160.031 147.587 160.825 147.4 161.705 147.4ZM161.605 156.84C162.338 156.84 163.005 156.673 163.605 156.34C164.205 155.993 164.671 155.507 165.005 154.88C165.351 154.253 165.525 153.54 165.525 152.74C165.525 151.94 165.351 151.233 165.005 150.62C164.671 149.993 164.205 149.507 163.605 149.16C163.005 148.813 162.338 148.64 161.605 148.64C160.858 148.64 160.185 148.813 159.585 149.16C158.998 149.507 158.531 149.993 158.185 150.62C157.851 151.233 157.685 151.94 157.685 152.74C157.685 153.54 157.851 154.253 158.185 154.88C158.531 155.507 158.998 155.993 159.585 156.34C160.185 156.673 160.858 156.84 161.605 156.84ZM174.139 158.1C173.126 158.1 172.213 157.873 171.399 157.42C170.586 156.953 169.946 156.313 169.479 155.5C169.013 154.687 168.779 153.767 168.779 152.74C168.779 151.713 169.013 150.793 169.479 149.98C169.946 149.167 170.586 148.533 171.399 148.08C172.213 147.627 173.126 147.4 174.139 147.4C175.153 147.4 176.066 147.627 176.879 148.08C177.693 148.533 178.326 149.167 178.779 149.98C179.246 150.793 179.479 151.713 179.479 152.74C179.479 153.767 179.246 154.687 178.779 155.5C178.326 156.313 177.693 156.953 176.879 157.42C176.066 157.873 175.153 158.1 174.139 158.1ZM174.139 156.84C174.886 156.84 175.553 156.673 176.139 156.34C176.739 155.993 177.206 155.507 177.539 154.88C177.873 154.253 178.039 153.54 178.039 152.74C178.039 151.94 177.873 151.227 177.539 150.6C177.206 149.973 176.739 149.493 176.139 149.16C175.553 148.813 174.886 148.64 174.139 148.64C173.393 148.64 172.719 148.813 172.119 149.16C171.533 149.493 171.066 149.973 170.719 150.6C170.386 151.227 170.219 151.94 170.219 152.74C170.219 153.54 170.386 154.253 170.719 154.88C171.066 155.507 171.533 155.993 172.119 156.34C172.719 156.673 173.393 156.84 174.139 156.84ZM187.918 157.36C187.652 157.6 187.318 157.787 186.918 157.92C186.532 158.04 186.125 158.1 185.698 158.1C184.712 158.1 183.952 157.833 183.418 157.3C182.885 156.767 182.618 156.013 182.618 155.04V148.68H180.738V147.48H182.618V145.18H184.038V147.48H187.238V148.68H184.038V154.96C184.038 155.587 184.192 156.067 184.498 156.4C184.818 156.72 185.272 156.88 185.858 156.88C186.152 156.88 186.432 156.833 186.698 156.74C186.978 156.647 187.218 156.513 187.418 156.34L187.918 157.36ZM190.503 147.48H191.923V158H190.503V147.48ZM191.223 145.18C190.93 145.18 190.683 145.08 190.483 144.88C190.283 144.68 190.183 144.44 190.183 144.16C190.183 143.893 190.283 143.66 190.483 143.46C190.683 143.26 190.93 143.16 191.223 143.16C191.517 143.16 191.763 143.26 191.963 143.46C192.163 143.647 192.263 143.873 192.263 144.14C192.263 144.433 192.163 144.68 191.963 144.88C191.763 145.08 191.517 145.18 191.223 145.18ZM199.355 144.26C198.741 144.26 198.275 144.427 197.955 144.76C197.648 145.093 197.495 145.587 197.495 146.24V147.48H200.735V148.68H197.535V158H196.115V148.68H194.235V147.48H196.115V146.18C196.115 145.22 196.388 144.46 196.935 143.9C197.495 143.34 198.281 143.06 199.295 143.06C199.695 143.06 200.081 143.12 200.455 143.24C200.828 143.347 201.141 143.507 201.395 143.72L200.915 144.78C200.501 144.433 199.981 144.26 199.355 144.26ZM211.687 147.48L206.427 159.26C206.001 160.247 205.507 160.947 204.947 161.36C204.387 161.773 203.714 161.98 202.927 161.98C202.421 161.98 201.947 161.9 201.507 161.74C201.067 161.58 200.687 161.34 200.367 161.02L201.027 159.96C201.561 160.493 202.201 160.76 202.947 160.76C203.427 160.76 203.834 160.627 204.167 160.36C204.514 160.093 204.834 159.64 205.127 159L205.587 157.98L200.887 147.48H202.367L206.327 156.42L210.287 147.48H211.687ZM218.921 143.16H220.341V158H218.921V143.16ZM224.293 147.48H225.713V158H224.293V147.48ZM225.013 145.18C224.719 145.18 224.473 145.08 224.273 144.88C224.073 144.68 223.973 144.44 223.973 144.16C223.973 143.893 224.073 143.66 224.273 143.46C224.473 143.26 224.719 143.16 225.013 143.16C225.306 143.16 225.553 143.26 225.753 143.46C225.953 143.647 226.053 143.873 226.053 144.14C226.053 144.433 225.953 144.68 225.753 144.88C225.553 145.08 225.306 145.18 225.013 145.18ZM235.084 147.4C236.07 147.4 236.964 147.627 237.764 148.08C238.564 148.52 239.19 149.147 239.644 149.96C240.097 150.773 240.324 151.7 240.324 152.74C240.324 153.78 240.097 154.707 239.644 155.52C239.19 156.333 238.564 156.967 237.764 157.42C236.964 157.873 236.07 158.1 235.084 158.1C234.204 158.1 233.41 157.913 232.704 157.54C232.01 157.167 231.45 156.627 231.024 155.92V158H229.664V143.16H231.084V149.48C231.524 148.8 232.084 148.287 232.764 147.94C233.457 147.58 234.23 147.4 235.084 147.4ZM234.984 156.84C235.717 156.84 236.384 156.673 236.984 156.34C237.584 155.993 238.05 155.507 238.384 154.88C238.73 154.253 238.904 153.54 238.904 152.74C238.904 151.94 238.73 151.227 238.384 150.6C238.05 149.973 237.584 149.493 236.984 149.16C236.384 148.813 235.717 148.64 234.984 148.64C234.237 148.64 233.564 148.813 232.964 149.16C232.377 149.493 231.91 149.973 231.564 150.6C231.23 151.227 231.064 151.94 231.064 152.74C231.064 153.54 231.23 154.253 231.564 154.88C231.91 155.507 232.377 155.993 232.964 156.34C233.564 156.673 234.237 156.84 234.984 156.84ZM244.578 149.54C244.912 148.833 245.405 148.3 246.058 147.94C246.725 147.58 247.545 147.4 248.518 147.4V148.78L248.178 148.76C247.072 148.76 246.205 149.1 245.578 149.78C244.952 150.46 244.638 151.413 244.638 152.64V158H243.218V147.48H244.578V149.54ZM254.75 147.4C256.123 147.4 257.177 147.747 257.91 148.44C258.643 149.12 259.01 150.133 259.01 151.48V158H257.65V156.36C257.33 156.907 256.857 157.333 256.23 157.64C255.617 157.947 254.883 158.1 254.03 158.1C252.857 158.1 251.923 157.82 251.23 157.26C250.537 156.7 250.19 155.96 250.19 155.04C250.19 154.147 250.51 153.427 251.15 152.88C251.803 152.333 252.837 152.06 254.25 152.06H257.59V151.42C257.59 150.513 257.337 149.827 256.83 149.36C256.323 148.88 255.583 148.64 254.61 148.64C253.943 148.64 253.303 148.753 252.69 148.98C252.077 149.193 251.55 149.493 251.11 149.88L250.47 148.82C251.003 148.367 251.643 148.02 252.39 147.78C253.137 147.527 253.923 147.4 254.75 147.4ZM254.25 156.98C255.05 156.98 255.737 156.8 256.31 156.44C256.883 156.067 257.31 155.533 257.59 154.84V153.12H254.29C252.49 153.12 251.59 153.747 251.59 155C251.59 155.613 251.823 156.1 252.29 156.46C252.757 156.807 253.41 156.98 254.25 156.98ZM264.227 149.54C264.56 148.833 265.053 148.3 265.707 147.94C266.373 147.58 267.193 147.4 268.167 147.4V148.78L267.827 148.76C266.72 148.76 265.853 149.1 265.227 149.78C264.6 150.46 264.287 151.413 264.287 152.64V158H262.867V147.48H264.227V149.54ZM280.027 147.48L274.767 159.26C274.34 160.247 273.847 160.947 273.287 161.36C272.727 161.773 272.054 161.98 271.267 161.98C270.76 161.98 270.287 161.9 269.847 161.74C269.407 161.58 269.027 161.34 268.707 161.02L269.367 159.96C269.9 160.493 270.54 160.76 271.287 160.76C271.767 160.76 272.174 160.627 272.507 160.36C272.854 160.093 273.174 159.64 273.467 159L273.927 157.98L269.227 147.48H270.707L274.667 156.42L278.627 147.48H280.027ZM290.941 147.4C292.315 147.4 293.368 147.747 294.101 148.44C294.835 149.12 295.201 150.133 295.201 151.48V158H293.841V156.36C293.521 156.907 293.048 157.333 292.421 157.64C291.808 157.947 291.075 158.1 290.221 158.1C289.048 158.1 288.115 157.82 287.421 157.26C286.728 156.7 286.381 155.96 286.381 155.04C286.381 154.147 286.701 153.427 287.341 152.88C287.995 152.333 289.028 152.06 290.441 152.06H293.781V151.42C293.781 150.513 293.528 149.827 293.021 149.36C292.515 148.88 291.775 148.64 290.801 148.64C290.135 148.64 289.495 148.753 288.881 148.98C288.268 149.193 287.741 149.493 287.301 149.88L286.661 148.82C287.195 148.367 287.835 148.02 288.581 147.78C289.328 147.527 290.115 147.4 290.941 147.4ZM290.441 156.98C291.241 156.98 291.928 156.8 292.501 156.44C293.075 156.067 293.501 155.533 293.781 154.84V153.12H290.481C288.681 153.12 287.781 153.747 287.781 155C287.781 155.613 288.015 156.1 288.481 156.46C288.948 156.807 289.601 156.98 290.441 156.98ZM304.418 147.4C305.738 147.4 306.785 147.787 307.558 148.56C308.345 149.32 308.738 150.433 308.738 151.9V158H307.318V152.04C307.318 150.947 307.045 150.113 306.498 149.54C305.951 148.967 305.171 148.68 304.158 148.68C303.025 148.68 302.125 149.02 301.458 149.7C300.805 150.367 300.478 151.293 300.478 152.48V158H299.058V147.48H300.418V149.42C300.805 148.78 301.338 148.287 302.018 147.94C302.711 147.58 303.511 147.4 304.418 147.4ZM322.232 143.16V158H320.872V155.92C320.446 156.627 319.879 157.167 319.172 157.54C318.479 157.913 317.692 158.1 316.812 158.1C315.826 158.1 314.932 157.873 314.132 157.42C313.332 156.967 312.706 156.333 312.252 155.52C311.799 154.707 311.572 153.78 311.572 152.74C311.572 151.7 311.799 150.773 312.252 149.96C312.706 149.147 313.332 148.52 314.132 148.08C314.932 147.627 315.826 147.4 316.812 147.4C317.666 147.4 318.432 147.58 319.112 147.94C319.806 148.287 320.372 148.8 320.812 149.48V143.16H322.232ZM316.932 156.84C317.666 156.84 318.326 156.673 318.912 156.34C319.512 155.993 319.979 155.507 320.312 154.88C320.659 154.253 320.832 153.54 320.832 152.74C320.832 151.94 320.659 151.227 320.312 150.6C319.979 149.973 319.512 149.493 318.912 149.16C318.326 148.813 317.666 148.64 316.932 148.64C316.186 148.64 315.512 148.813 314.912 149.16C314.326 149.493 313.859 149.973 313.512 150.6C313.179 151.227 313.012 151.94 313.012 152.74C313.012 153.54 313.179 154.253 313.512 154.88C313.859 155.507 314.326 155.993 314.912 156.34C315.512 156.673 316.186 156.84 316.932 156.84ZM340.261 147.48L335.001 159.26C334.575 160.247 334.081 160.947 333.521 161.36C332.961 161.773 332.288 161.98 331.501 161.98C330.995 161.98 330.521 161.9 330.081 161.74C329.641 161.58 329.261 161.34 328.941 161.02L329.601 159.96C330.135 160.493 330.775 160.76 331.521 160.76C332.001 160.76 332.408 160.627 332.741 160.36C333.088 160.093 333.408 159.64 333.701 159L334.161 157.98L329.461 147.48H330.941L334.901 156.42L338.861 147.48H340.261ZM346.268 158.1C345.255 158.1 344.342 157.873 343.528 157.42C342.715 156.953 342.075 156.313 341.608 155.5C341.142 154.687 340.908 153.767 340.908 152.74C340.908 151.713 341.142 150.793 341.608 149.98C342.075 149.167 342.715 148.533 343.528 148.08C344.342 147.627 345.255 147.4 346.268 147.4C347.282 147.4 348.195 147.627 349.008 148.08C349.822 148.533 350.455 149.167 350.908 149.98C351.375 150.793 351.608 151.713 351.608 152.74C351.608 153.767 351.375 154.687 350.908 155.5C350.455 156.313 349.822 156.953 349.008 157.42C348.195 157.873 347.282 158.1 346.268 158.1ZM346.268 156.84C347.015 156.84 347.682 156.673 348.268 156.34C348.868 155.993 349.335 155.507 349.668 154.88C350.002 154.253 350.168 153.54 350.168 152.74C350.168 151.94 350.002 151.227 349.668 150.6C349.335 149.973 348.868 149.493 348.268 149.16C347.682 148.813 347.015 148.64 346.268 148.64C345.522 148.64 344.848 148.813 344.248 149.16C343.662 149.493 343.195 149.973 342.848 150.6C342.515 151.227 342.348 151.94 342.348 152.74C342.348 153.54 342.515 154.253 342.848 154.88C343.195 155.507 343.662 155.993 344.248 156.34C344.848 156.673 345.522 156.84 346.268 156.84ZM363.987 147.48V158H362.627V156.08C362.254 156.72 361.741 157.22 361.087 157.58C360.434 157.927 359.687 158.1 358.847 158.1C357.474 158.1 356.387 157.72 355.587 156.96C354.801 156.187 354.407 155.06 354.407 153.58V147.48H355.827V153.44C355.827 154.547 356.101 155.387 356.647 155.96C357.194 156.533 357.974 156.82 358.987 156.82C360.094 156.82 360.967 156.487 361.607 155.82C362.247 155.14 362.567 154.2 362.567 153V147.48H363.987ZM377.559 158.1C376.519 158.1 375.585 157.873 374.759 157.42C373.945 156.967 373.305 156.333 372.839 155.52C372.372 154.693 372.139 153.767 372.139 152.74C372.139 151.713 372.372 150.793 372.839 149.98C373.305 149.167 373.945 148.533 374.759 148.08C375.585 147.627 376.519 147.4 377.559 147.4C378.465 147.4 379.272 147.58 379.979 147.94C380.699 148.287 381.265 148.8 381.679 149.48L380.619 150.2C380.272 149.68 379.832 149.293 379.299 149.04C378.765 148.773 378.185 148.64 377.559 148.64C376.799 148.64 376.112 148.813 375.499 149.16C374.899 149.493 374.425 149.973 374.079 150.6C373.745 151.227 373.579 151.94 373.579 152.74C373.579 153.553 373.745 154.273 374.079 154.9C374.425 155.513 374.899 155.993 375.499 156.34C376.112 156.673 376.799 156.84 377.559 156.84C378.185 156.84 378.765 156.713 379.299 156.46C379.832 156.207 380.272 155.82 380.619 155.3L381.679 156.02C381.265 156.7 380.699 157.22 379.979 157.58C379.259 157.927 378.452 158.1 377.559 158.1ZM388.148 147.4C389.522 147.4 390.575 147.747 391.308 148.44C392.042 149.12 392.408 150.133 392.408 151.48V158H391.048V156.36C390.728 156.907 390.255 157.333 389.628 157.64C389.015 157.947 388.282 158.1 387.428 158.1C386.255 158.1 385.322 157.82 384.628 157.26C383.935 156.7 383.588 155.96 383.588 155.04C383.588 154.147 383.908 153.427 384.548 152.88C385.202 152.333 386.235 152.06 387.648 152.06H390.988V151.42C390.988 150.513 390.735 149.827 390.228 149.36C389.722 148.88 388.982 148.64 388.008 148.64C387.342 148.64 386.702 148.753 386.088 148.98C385.475 149.193 384.948 149.493 384.508 149.88L383.868 148.82C384.402 148.367 385.042 148.02 385.788 147.78C386.535 147.527 387.322 147.4 388.148 147.4ZM387.648 156.98C388.448 156.98 389.135 156.8 389.708 156.44C390.282 156.067 390.708 155.533 390.988 154.84V153.12H387.688C385.888 153.12 384.988 153.747 384.988 155C384.988 155.613 385.222 156.1 385.688 156.46C386.155 156.807 386.808 156.98 387.648 156.98ZM401.625 147.4C402.945 147.4 403.992 147.787 404.765 148.56C405.552 149.32 405.945 150.433 405.945 151.9V158H404.525V152.04C404.525 150.947 404.252 150.113 403.705 149.54C403.158 148.967 402.378 148.68 401.365 148.68C400.232 148.68 399.332 149.02 398.665 149.7C398.012 150.367 397.685 151.293 397.685 152.48V158H396.265V147.48H397.625V149.42C398.012 148.78 398.545 148.287 399.225 147.94C399.918 147.58 400.718 147.4 401.625 147.4ZM416.395 149.54C416.728 148.833 417.221 148.3 417.875 147.94C418.541 147.58 419.361 147.4 420.335 147.4V148.78L419.995 148.76C418.888 148.76 418.021 149.1 417.395 149.78C416.768 150.46 416.455 151.413 416.455 152.64V158H415.035V147.48H416.395V149.54ZM426.566 147.4C427.94 147.4 428.993 147.747 429.726 148.44C430.46 149.12 430.826 150.133 430.826 151.48V158H429.466V156.36C429.146 156.907 428.673 157.333 428.046 157.64C427.433 157.947 426.7 158.1 425.846 158.1C424.673 158.1 423.74 157.82 423.046 157.26C422.353 156.7 422.006 155.96 422.006 155.04C422.006 154.147 422.326 153.427 422.966 152.88C423.62 152.333 424.653 152.06 426.066 152.06H429.406V151.42C429.406 150.513 429.153 149.827 428.646 149.36C428.14 148.88 427.4 148.64 426.426 148.64C425.76 148.64 425.12 148.753 424.506 148.98C423.893 149.193 423.366 149.493 422.926 149.88L422.286 148.82C422.82 148.367 423.46 148.02 424.206 147.78C424.953 147.527 425.74 147.4 426.566 147.4ZM426.066 156.98C426.866 156.98 427.553 156.8 428.126 156.44C428.7 156.067 429.126 155.533 429.406 154.84V153.12H426.106C424.306 153.12 423.406 153.747 423.406 155C423.406 155.613 423.64 156.1 424.106 156.46C424.573 156.807 425.226 156.98 426.066 156.98ZM440.223 157.36C439.956 157.6 439.623 157.787 439.223 157.92C438.836 158.04 438.43 158.1 438.003 158.1C437.016 158.1 436.256 157.833 435.723 157.3C435.19 156.767 434.923 156.013 434.923 155.04V148.68H433.043V147.48H434.923V145.18H436.343V147.48H439.543V148.68H436.343V154.96C436.343 155.587 436.496 156.067 436.803 156.4C437.123 156.72 437.576 156.88 438.163 156.88C438.456 156.88 438.736 156.833 439.003 156.74C439.283 156.647 439.523 156.513 439.723 156.34L440.223 157.36ZM451.597 153.18H442.797C442.877 154.273 443.297 155.16 444.057 155.84C444.817 156.507 445.777 156.84 446.937 156.84C447.59 156.84 448.19 156.727 448.737 156.5C449.284 156.26 449.757 155.913 450.157 155.46L450.957 156.38C450.49 156.94 449.904 157.367 449.197 157.66C448.504 157.953 447.737 158.1 446.897 158.1C445.817 158.1 444.857 157.873 444.017 157.42C443.19 156.953 442.544 156.313 442.077 155.5C441.61 154.687 441.377 153.767 441.377 152.74C441.377 151.713 441.597 150.793 442.037 149.98C442.49 149.167 443.104 148.533 443.877 148.08C444.664 147.627 445.544 147.4 446.517 147.4C447.49 147.4 448.364 147.627 449.137 148.08C449.91 148.533 450.517 149.167 450.957 149.98C451.397 150.78 451.617 151.7 451.617 152.74L451.597 153.18ZM446.517 148.62C445.504 148.62 444.65 148.947 443.957 149.6C443.277 150.24 442.89 151.08 442.797 152.12H450.257C450.164 151.08 449.77 150.24 449.077 149.6C448.397 148.947 447.544 148.62 446.517 148.62ZM468.582 147.48L463.322 159.26C462.895 160.247 462.402 160.947 461.842 161.36C461.282 161.773 460.608 161.98 459.822 161.98C459.315 161.98 458.842 161.9 458.402 161.74C457.962 161.58 457.582 161.34 457.262 161.02L457.922 159.96C458.455 160.493 459.095 160.76 459.842 160.76C460.322 160.76 460.728 160.627 461.062 160.36C461.408 160.093 461.728 159.64 462.022 159L462.482 157.98L457.782 147.48H459.262L463.222 156.42L467.182 147.48H468.582ZM474.589 158.1C473.575 158.1 472.662 157.873 471.849 157.42C471.035 156.953 470.395 156.313 469.929 155.5C469.462 154.687 469.229 153.767 469.229 152.74C469.229 151.713 469.462 150.793 469.929 149.98C470.395 149.167 471.035 148.533 471.849 148.08C472.662 147.627 473.575 147.4 474.589 147.4C475.602 147.4 476.515 147.627 477.329 148.08C478.142 148.533 478.775 149.167 479.229 149.98C479.695 150.793 479.929 151.713 479.929 152.74C479.929 153.767 479.695 154.687 479.229 155.5C478.775 156.313 478.142 156.953 477.329 157.42C476.515 157.873 475.602 158.1 474.589 158.1ZM474.589 156.84C475.335 156.84 476.002 156.673 476.589 156.34C477.189 155.993 477.655 155.507 477.989 154.88C478.322 154.253 478.489 153.54 478.489 152.74C478.489 151.94 478.322 151.227 477.989 150.6C477.655 149.973 477.189 149.493 476.589 149.16C476.002 148.813 475.335 148.64 474.589 148.64C473.842 148.64 473.169 148.813 472.569 149.16C471.982 149.493 471.515 149.973 471.169 150.6C470.835 151.227 470.669 151.94 470.669 152.74C470.669 153.54 470.835 154.253 471.169 154.88C471.515 155.507 471.982 155.993 472.569 156.34C473.169 156.673 473.842 156.84 474.589 156.84ZM492.308 147.48V158H490.948V156.08C490.574 156.72 490.061 157.22 489.408 157.58C488.754 157.927 488.008 158.1 487.168 158.1C485.794 158.1 484.708 157.72 483.908 156.96C483.121 156.187 482.728 155.06 482.728 153.58V147.48H484.148V153.44C484.148 154.547 484.421 155.387 484.968 155.96C485.514 156.533 486.294 156.82 487.308 156.82C488.414 156.82 489.288 156.487 489.928 155.82C490.568 155.14 490.888 154.2 490.888 153V147.48H492.308ZM497.645 149.54C497.978 148.833 498.471 148.3 499.125 147.94C499.791 147.58 500.611 147.4 501.585 147.4V148.78L501.245 148.76C500.138 148.76 499.271 149.1 498.645 149.78C498.018 150.46 497.705 151.413 497.705 152.64V158H496.285V147.48H497.645V149.54ZM518.706 153.18H509.906C509.986 154.273 510.406 155.16 511.166 155.84C511.926 156.507 512.886 156.84 514.046 156.84C514.7 156.84 515.3 156.727 515.846 156.5C516.393 156.26 516.866 155.913 517.266 155.46L518.066 156.38C517.6 156.94 517.013 157.367 516.306 157.66C515.613 157.953 514.846 158.1 514.006 158.1C512.926 158.1 511.966 157.873 511.126 157.42C510.3 156.953 509.653 156.313 509.186 155.5C508.72 154.687 508.486 153.767 508.486 152.74C508.486 151.713 508.706 150.793 509.146 149.98C509.6 149.167 510.213 148.533 510.986 148.08C511.773 147.627 512.653 147.4 513.626 147.4C514.6 147.4 515.473 147.627 516.246 148.08C517.02 148.533 517.626 149.167 518.066 149.98C518.506 150.78 518.726 151.7 518.726 152.74L518.706 153.18ZM513.626 148.62C512.613 148.62 511.76 148.947 511.066 149.6C510.386 150.24 510 151.08 509.906 152.12H517.366C517.273 151.08 516.88 150.24 516.186 149.6C515.506 148.947 514.653 148.62 513.626 148.62ZM526.977 147.4C528.297 147.4 529.343 147.787 530.117 148.56C530.903 149.32 531.297 150.433 531.297 151.9V158H529.877V152.04C529.877 150.947 529.603 150.113 529.057 149.54C528.51 148.967 527.73 148.68 526.717 148.68C525.583 148.68 524.683 149.02 524.017 149.7C523.363 150.367 523.037 151.293 523.037 152.48V158H521.617V147.48H522.977V149.42C523.363 148.78 523.897 148.287 524.577 147.94C525.27 147.58 526.07 147.4 526.977 147.4ZM533.592 161.98C533.152 161.98 532.739 161.92 532.352 161.8C531.952 161.693 531.625 161.527 531.372 161.3L531.872 160.22C532.285 160.58 532.832 160.76 533.512 160.76C534.072 160.76 534.499 160.593 534.792 160.26C535.099 159.927 535.252 159.433 535.252 158.78V147.48H536.672V158.78C536.672 159.767 536.405 160.547 535.872 161.12C535.339 161.693 534.579 161.98 533.592 161.98ZM535.972 145.16C535.679 145.16 535.432 145.06 535.232 144.86C535.032 144.66 534.932 144.42 534.932 144.14C534.932 143.873 535.032 143.64 535.232 143.44C535.432 143.24 535.679 143.14 535.972 143.14C536.265 143.14 536.512 143.24 536.712 143.44C536.912 143.627 537.012 143.853 537.012 144.12C537.012 144.413 536.912 144.66 536.712 144.86C536.512 145.06 536.265 145.16 535.972 145.16ZM544.94 158.1C543.927 158.1 543.013 157.873 542.2 157.42C541.387 156.953 540.747 156.313 540.28 155.5C539.813 154.687 539.58 153.767 539.58 152.74C539.58 151.713 539.813 150.793 540.28 149.98C540.747 149.167 541.387 148.533 542.2 148.08C543.013 147.627 543.927 147.4 544.94 147.4C545.953 147.4 546.867 147.627 547.68 148.08C548.493 148.533 549.127 149.167 549.58 149.98C550.047 150.793 550.28 151.713 550.28 152.74C550.28 153.767 550.047 154.687 549.58 155.5C549.127 156.313 548.493 156.953 547.68 157.42C546.867 157.873 545.953 158.1 544.94 158.1ZM544.94 156.84C545.687 156.84 546.353 156.673 546.94 156.34C547.54 155.993 548.007 155.507 548.34 154.88C548.673 154.253 548.84 153.54 548.84 152.74C548.84 151.94 548.673 151.227 548.34 150.6C548.007 149.973 547.54 149.493 546.94 149.16C546.353 148.813 545.687 148.64 544.94 148.64C544.193 148.64 543.52 148.813 542.92 149.16C542.333 149.493 541.867 149.973 541.52 150.6C541.187 151.227 541.02 151.94 541.02 152.74C541.02 153.54 541.187 154.253 541.52 154.88C541.867 155.507 542.333 155.993 542.92 156.34C543.52 156.673 544.193 156.84 544.94 156.84ZM561.726 147.48L556.466 159.26C556.04 160.247 555.546 160.947 554.986 161.36C554.426 161.773 553.753 161.98 552.966 161.98C552.46 161.98 551.986 161.9 551.546 161.74C551.106 161.58 550.726 161.34 550.406 161.02L551.066 159.96C551.6 160.493 552.24 160.76 552.986 160.76C553.466 160.76 553.873 160.627 554.206 160.36C554.553 160.093 554.873 159.64 555.166 159L555.626 157.98L550.926 147.48H552.406L556.366 156.42L560.326 147.48H561.726ZM576.846 147.4C578.166 147.4 579.199 147.78 579.946 148.54C580.706 149.3 581.086 150.42 581.086 151.9V158H579.666V152.04C579.666 150.947 579.399 150.113 578.866 149.54C578.346 148.967 577.606 148.68 576.646 148.68C575.553 148.68 574.693 149.02 574.066 149.7C573.439 150.367 573.126 151.293 573.126 152.48V158H571.706V152.04C571.706 150.947 571.439 150.113 570.906 149.54C570.386 148.967 569.639 148.68 568.666 148.68C567.586 148.68 566.726 149.02 566.086 149.7C565.459 150.367 565.146 151.293 565.146 152.48V158H563.726V147.48H565.086V149.4C565.459 148.76 565.979 148.267 566.646 147.92C567.313 147.573 568.079 147.4 568.946 147.4C569.826 147.4 570.586 147.587 571.226 147.96C571.879 148.333 572.366 148.887 572.686 149.62C573.073 148.927 573.626 148.387 574.346 148C575.079 147.6 575.913 147.4 576.846 147.4ZM594.136 153.18H585.336C585.416 154.273 585.836 155.16 586.596 155.84C587.356 156.507 588.316 156.84 589.476 156.84C590.129 156.84 590.729 156.727 591.276 156.5C591.823 156.26 592.296 155.913 592.696 155.46L593.496 156.38C593.029 156.94 592.443 157.367 591.736 157.66C591.043 157.953 590.276 158.1 589.436 158.1C588.356 158.1 587.396 157.873 586.556 157.42C585.729 156.953 585.083 156.313 584.616 155.5C584.149 154.687 583.916 153.767 583.916 152.74C583.916 151.713 584.136 150.793 584.576 149.98C585.029 149.167 585.643 148.533 586.416 148.08C587.203 147.627 588.083 147.4 589.056 147.4C590.029 147.4 590.903 147.627 591.676 148.08C592.449 148.533 593.056 149.167 593.496 149.98C593.936 150.78 594.156 151.7 594.156 152.74L594.136 153.18ZM589.056 148.62C588.043 148.62 587.189 148.947 586.496 149.6C585.816 150.24 585.429 151.08 585.336 152.12H592.796C592.703 151.08 592.309 150.24 591.616 149.6C590.936 148.947 590.083 148.62 589.056 148.62ZM602.406 147.4C603.726 147.4 604.773 147.787 605.546 148.56C606.333 149.32 606.726 150.433 606.726 151.9V158H605.306V152.04C605.306 150.947 605.033 150.113 604.486 149.54C603.94 148.967 603.16 148.68 602.146 148.68C601.013 148.68 600.113 149.02 599.446 149.7C598.793 150.367 598.466 151.293 598.466 152.48V158H597.046V147.48H598.406V149.42C598.793 148.78 599.326 148.287 600.006 147.94C600.7 147.58 601.5 147.4 602.406 147.4ZM616.122 157.36C615.855 157.6 615.522 157.787 615.122 157.92C614.735 158.04 614.328 158.1 613.902 158.1C612.915 158.1 612.155 157.833 611.622 157.3C611.088 156.767 610.822 156.013 610.822 155.04V148.68H608.942V147.48H610.822V145.18H612.242V147.48H615.442V148.68H612.242V154.96C612.242 155.587 612.395 156.067 612.702 156.4C613.022 156.72 613.475 156.88 614.062 156.88C614.355 156.88 614.635 156.833 614.902 156.74C615.182 156.647 615.422 156.513 615.622 156.34L616.122 157.36ZM628.241 158.1C627.228 158.1 626.314 157.873 625.501 157.42C624.688 156.953 624.048 156.313 623.581 155.5C623.114 154.687 622.881 153.767 622.881 152.74C622.881 151.713 623.114 150.793 623.581 149.98C624.048 149.167 624.688 148.533 625.501 148.08C626.314 147.627 627.228 147.4 628.241 147.4C629.254 147.4 630.168 147.627 630.981 148.08C631.794 148.533 632.428 149.167 632.881 149.98C633.348 150.793 633.581 151.713 633.581 152.74C633.581 153.767 633.348 154.687 632.881 155.5C632.428 156.313 631.794 156.953 630.981 157.42C630.168 157.873 629.254 158.1 628.241 158.1ZM628.241 156.84C628.988 156.84 629.654 156.673 630.241 156.34C630.841 155.993 631.308 155.507 631.641 154.88C631.974 154.253 632.141 153.54 632.141 152.74C632.141 151.94 631.974 151.227 631.641 150.6C631.308 149.973 630.841 149.493 630.241 149.16C629.654 148.813 628.988 148.64 628.241 148.64C627.494 148.64 626.821 148.813 626.221 149.16C625.634 149.493 625.168 149.973 624.821 150.6C624.488 151.227 624.321 151.94 624.321 152.74C624.321 153.54 624.488 154.253 624.821 154.88C625.168 155.507 625.634 155.993 626.221 156.34C626.821 156.673 627.494 156.84 628.241 156.84ZM639.96 144.26C639.347 144.26 638.88 144.427 638.56 144.76C638.253 145.093 638.1 145.587 638.1 146.24V147.48H641.34V148.68H638.14V158H636.72V148.68H634.84V147.48H636.72V146.18C636.72 145.22 636.993 144.46 637.54 143.9C638.1 143.34 638.887 143.06 639.9 143.06C640.3 143.06 640.687 143.12 641.06 143.24C641.433 143.347 641.747 143.507 642 143.72L641.52 144.78C641.107 144.433 640.587 144.26 639.96 144.26ZM648.492 147.48H649.912V158H648.492V147.48ZM649.212 145.18C648.918 145.18 648.672 145.08 648.472 144.88C648.272 144.68 648.172 144.44 648.172 144.16C648.172 143.893 648.272 143.66 648.472 143.46C648.672 143.26 648.918 143.16 649.212 143.16C649.505 143.16 649.752 143.26 649.952 143.46C650.152 143.647 650.252 143.873 650.252 144.14C650.252 144.433 650.152 144.68 649.952 144.88C649.752 145.08 649.505 145.18 649.212 145.18ZM659.403 157.36C659.136 157.6 658.803 157.787 658.403 157.92C658.016 158.04 657.609 158.1 657.183 158.1C656.196 158.1 655.436 157.833 654.903 157.3C654.369 156.767 654.103 156.013 654.103 155.04V148.68H652.223V147.48H654.103V145.18H655.523V147.48H658.723V148.68H655.523V154.96C655.523 155.587 655.676 156.067 655.983 156.4C656.303 156.72 656.756 156.88 657.343 156.88C657.636 156.88 657.916 156.833 658.183 156.74C658.463 156.647 658.703 156.513 658.903 156.34L659.403 157.36ZM661.768 144H663.448L663.148 153.8H662.048L661.768 144ZM662.608 158.1C662.314 158.1 662.061 158 661.848 157.8C661.648 157.587 661.548 157.34 661.548 157.06C661.548 156.767 661.648 156.527 661.848 156.34C662.048 156.14 662.301 156.04 662.608 156.04C662.901 156.04 663.148 156.14 663.348 156.34C663.548 156.527 663.648 156.767 663.648 157.06C663.648 157.34 663.548 157.587 663.348 157.8C663.148 158 662.901 158.1 662.608 158.1Z" fill="#FCA908"/>
<path d="M119 128.778C119 132.766 115.766 136 111.778 136H61.2222C57.2337 136 54 132.766 54 128.778V78.2222C54 74.2337 57.2337 71 61.2222 71H111.778C115.766 71 119 74.2337 119 78.2222V128.778Z" fill="url(#paint0_linear_134_1305)"/>
<path d="M97.5301 93.0748C97.5301 96.6029 96.0207 99.6813 92.9404 101.64C96.9704 103.489 99.769 107.239 99.769 111.661C99.769 118.38 93.612 124.035 85.6622 124.035C77.3765 124.035 72.2271 117.932 72.2271 113.51C72.2271 111.327 74.5237 109.76 76.5387 109.76C80.3448 109.76 79.4493 116.31 85.7759 116.31C88.6865 116.31 91.0391 114.072 91.0391 111.103C91.0391 103.265 81.5202 109.032 81.5202 102.426C81.5202 96.5487 89.4683 100.523 89.4683 94.308C89.4683 92.1792 87.9589 90.5561 85.4383 90.5561C80.1209 90.5561 80.8486 96.0413 77.0407 96.0413C74.7458 96.0413 73.4025 93.9704 73.4025 91.8994C73.4025 87.5336 79.3915 82.8301 85.6062 82.8301C93.6698 82.8301 97.5301 88.709 97.5301 93.0748Z" fill="white"/>
<path d="M530.53 74.1176C530.53 75.9035 529.08 77.3529 527.294 77.3529H491.706C489.92 77.3529 488.471 75.9035 488.471 74.1176V61.1765C488.471 59.3906 489.92 57.9412 491.706 57.9412H527.294C529.08 57.9412 530.53 59.3906 530.53 61.1765V74.1176Z" fill="#FDCB58"/>
<path d="M533.765 80.5883C533.765 82.3742 532.315 83.8236 530.529 83.8236H488.47C486.685 83.8236 485.235 82.3742 485.235 80.5883V67.6472C485.235 65.8613 486.685 64.4119 488.47 64.4119H530.529C532.315 64.4119 533.765 65.8613 533.765 67.6472V80.5883Z" fill="#FDD888"/>
<path d="M537 103.235C537 105.021 535.551 106.471 533.765 106.471H485.235C483.449 106.471 482 105.021 482 103.235V74.1176C482 72.3317 483.449 70.8823 485.235 70.8823H533.765C535.551 70.8823 537 72.3317 537 74.1176V103.235Z" fill="#FEE7B8"/>
<path d="M517.588 54.7061H509.5C507.714 54.7061 506.265 56.1538 506.265 57.9413V59.559H509.5C511.286 59.559 512.735 61.0084 512.735 62.7943H517.588C519.374 62.7943 520.824 61.3449 520.824 59.559V57.9413C520.824 56.1538 519.374 54.7061 517.588 54.7061Z" fill="#78B159"/>
<path d="M507.882 61.1768H499.794C498.008 61.1768 496.559 62.6262 496.559 64.4121V66.0297H499.794C501.58 66.0297 503.029 67.4791 503.029 69.265H507.882C509.668 69.265 511.118 67.8156 511.118 66.0297V64.4121C511.118 62.6262 509.668 61.1768 507.882 61.1768Z" fill="#F18F26"/>
<path d="M501.412 72.5002C501.412 74.286 499.962 75.7355 498.177 75.7355H490.088C488.302 75.7355 486.853 74.286 486.853 72.5002V70.8825C486.853 69.0966 488.302 67.6472 490.088 67.6472H498.177C499.962 67.6472 501.412 69.0966 501.412 70.8825V72.5002Z" fill="#9268CA"/>
<defs>
<linearGradient id="paint0_linear_134_1305" x1="86.5" y1="71" x2="86.5" y2="136" gradientUnits="userSpaceOnUse">
<stop stop-color="#F18F26"/>
<stop offset="0.6875" stop-color="#F18F26" stop-opacity="0.463542"/>
<stop offset="1" stop-color="#F18F26" stop-opacity="0"/>
</linearGradient>
</defs>
</svg>
